<?xml version="1.0" standalone="no"?>
<!DOCTYPE svg PUBLIC "-//W3C//DTD SVG 1.1//EN" "http://www.w3.org/Graphics/SVG/1.1/DTD/svg11.dtd" >
<svg xmlns="http://www.w3.org/2000/svg" xmlns:xlink="http://www.w3.org/1999/xlink" version="1.1">
<metadata>
Created by FontForge 20170731 at Thu Dec  3 17:48:57 1998
 By Aleksey,,,
(C) 1994 Brendel Informatik GmbH
</metadata>
<defs>
<font id="BellamyBold" horiz-adv-x="532" >
  <font-face 
    font-family="BellamyBold"
    font-weight="100"
    font-stretch="normal"
    units-per-em="1000"
    panose-1="0 0 0 0 0 0 0 0 0 0"
    ascent="800"
    descent="-200"
    x-height="474"
    cap-height="701"
    bbox="-210 -262.4 956 955"
    underline-thickness="50"
    underline-position="-170"
    unicode-range="U+0020-E002"
  />
<missing-glyph horiz-adv-x="955" 
d="M59 0v955h837v-955h-837zM837 59v837h-719v-837h719z" />
    <glyph glyph-name=".notdef" horiz-adv-x="955" 
d="M59 0v955h837v-955h-837zM837 59v837h-719v-837h719z" />
    <glyph glyph-name=".null" unicode="&#xe001;" horiz-adv-x="0" 
 />
    <glyph glyph-name="nonmarkingreturn" unicode="&#xe002;" horiz-adv-x="177" 
 />
    <glyph glyph-name="space" unicode=" " horiz-adv-x="177" 
 />
    <glyph glyph-name="exclam" unicode="!" horiz-adv-x="287" 
d="M328 708l18 2q20 0 40 -21l27 -27q7 -5 8 -17q0 -12 -15 -38l-31 -44l-27 -38q-29 -43 -54.5 -88t-46.5 -96l-34 -93l-19 -58q-7 -23 -20 -20q-21 8 -31.5 14t-20.5 19t-10 42q0 38 13.5 80.5t39.5 104.5q21 51 42 92l27 55l18 38q9 47 16 63q6 18 60 30zM75 151
q8 3 24 5q8 0 19.5 -5.5t18.5 -16.5l32 -36q10 -10 10 -26q0 -4 -1 -13t-4.5 -27t-25 -27.5t-34.5 -9.5q-23 0 -34 14l-36 41q-14 20 -14 48q0 17 11.5 29.5t33.5 23.5z" />
    <glyph glyph-name="quotedbl" unicode="&#x22;" horiz-adv-x="254" 
d="M230 387h-20l-22 178l-6 35l-4 41q0 21 4.5 34.5t13.5 19t22 5.5q10 0 20.5 -6t16 -22.5t5.5 -34.5v-19q-3 -15 -4 -23l-4 -29zM344 387h-20l-23 178l-5 32l-3 43q0 22 3 35t12.5 19t23.5 6q12 0 21.5 -5.5t14.5 -18t5 -39.5l-3 -45l-4 -26z" />
    <glyph glyph-name="numbersign" unicode="#" horiz-adv-x="638" 
d="M362 690h82l-78 -225h136l79 225h82l-78 -225h155l-23 -64h-156l-51 -142h156l-23 -63h-156l-81 -228h-83l81 228h-135l-81 -228h-83l81 228h-155l23 63h154l52 142h-155l22 64h156zM291 259h136l52 142h-138z" />
    <glyph glyph-name="dollar" unicode="$" horiz-adv-x="472" 
d="M459 698q25 -12 38 -29q10 -13 26 -52l16 -42q8 -22 8 -45t-12 -66t-29.5 -56t-38.5 -13q-12 0 -23 6.5t-20.5 19t-15.5 34.5q-3 9 3 26l10 33q3 10 5 31q0 15 -3.5 21t-10.5 6l-67 -181q58 -48 89 -79.5t31 -98.5q0 -45 -25 -90.5t-83 -88t-150 -42.5l-16 -45
q-8 -22 -14 -30.5t-18 -9.5q-11 0 -18 8.5t-7 16.5q0 11 7 32l12 32q-54 20 -81.5 43.5t-34.5 54.5l-7 47q0 27 5.5 46t26.5 43q16 19 43 19q9 0 20 -2t23 -10q11 -5 14 -28l1 -37q0 -10 1 -15t7 -17q6 -17 27 -17q13 53 29 96.5t32 78.5q-56 44 -82.5 81.5t-26.5 90.5
q0 51 30 99t77.5 80.5t80.5 41.5q29 6 79 13q5 15 9.5 27t10 24t14.5 13q12 3 18.5 -3.5t7.5 -11.5l-3 -12l-3 -10zM322 546q-20 -18 -27 -41q-3 -9 -5 -19t-2 -22q0 -13 4.5 -22.5t12.5 -17.5l56 142q-19 0 -39 -20zM246 118q29 0 49 18t29 41q6 18 8 34q0 32 -34 60
l-26 -69z" />
    <glyph glyph-name="percent" unicode="%" horiz-adv-x="547" 
d="M665 689q10 5 26 5q13 0 21.5 -4t14.5 -14l7 -20q3 -18 -22 -40l-97 -81l-113 -99q-45 -40 -94 -92q-24 -26 -48 -53t-49 -58q-43 -53 -74 -98l-40 -61l-33 -58q-11 -20 -33 -20q-21 0 -31 17q-6 14 -8 30q0 42 41 99l86 114q43 54 103 119q54 60 121 122l114 103l73 64z
M427 265l13 3l14 2q19 0 30 -18l18 -31l8 -13l12 -14q6 -10 7 -23l-3 -16l-3 -20q-10 -44 -44 -85t-67 -51t-48 -10q-20 0 -33 5q-14 3 -35 23t-21 55l3 22q7 50 54 104t95 67zM327 700l13 3l14 2q9 0 16.5 -3.5t13.5 -13.5l17 -31l21 -29q5 -8 7 -21l-2 -13q0 -7 -1 -12
q-4 -15 -7 -25q-6 -30 -40.5 -71.5t-65.5 -51t-50 -9.5h-18q-9 3 -13 4q-17 5 -37 23t-20 57l6 40q6 32 51.5 84.5t94.5 66.5zM356 93q0 -18 7 -24q3 -3 9 -3q5 0 17 5q19 9 39 36t25 40l4 15v6q0 6 -5 10l-11 4l-12 -2q-18 -6 -47 -39q-24 -30 -26 -48zM256 527
q0 -15 7 -23q7 -4 26 3q18 9 38.5 35.5t28.5 46.5l2 13q0 7 -5 11q-2 3 -13 4l-19 -4q-9 -3 -38 -36q-27 -33 -27 -50z" />
    <glyph glyph-name="ampersand" unicode="&#x26;" horiz-adv-x="630" 
d="M380 336q4 -22 6.5 -34t8.5 -31t13.5 -32t13.5 -14q6 0 9 3q14 14 26 44l6 29q0 18 14 26q11 9 37 9q8 0 13 -1t22 -8t26 -42l2 -20q0 -32 -15.5 -57t-50.5 -63l-3 -9q0 -13 25 -20q4 -1 11 -1q6 0 17.5 3.5t32 16.5t29.5 15q8 0 8 -19l-3 -20l-6 -27q-12 -36 -37 -57
t-47 -28q-11 -4 -21 -6t-25 -2q-20 0 -39 6t-37 18l-34 27q-45 -20 -86 -34q-39 -11 -75 -11q-45 0 -88 22q-41 23 -65.5 64.5t-24.5 84.5q0 54 18.5 97.5t50.5 65.5l57 35l41 24q17 9 19 14q3 3 3 16l-1 28v29q0 47 15 88t64.5 87t108.5 46q12 0 33 -6t33 -27
q8 -17 14.5 -31.5t16.5 -31.5l23 -38q14 -26 14 -53v-16l-10 -31q-6 -24 -46 -57t-100 -63zM437 512q5 7 8 15t3 17q0 8 -5 18q-3 11 -21 17q-11 2 -20 -1.5t-18 -12.5t-16 -24t-7 -44v-23l2 -12q29 11 44 20t30 30zM285 202l-15 39q-9 30 -13 34q-8 6 -35 -15
q-24 -21 -33 -40.5t-9 -40.5q0 -19 8 -29.5t24 -20.5q16 -8 35 -8l28 3l25 7q8 3 11 7q3 3 -1 9z" />
    <glyph glyph-name="quotesingle" unicode="'" horiz-adv-x="218" 
d="M185 419q-6 0 -10 4q-3 5 2 10q30 30 55 64t25 59l-3 15q-3 8 -21.5 22.5t-21.5 33.5q-1 11 3 29q6 16 21.5 30.5t45.5 14.5l17 -3q10 -2 21 -13q11 -8 22 -24l17 -21q5 -5 8 -16l3 -18q0 -31 -18.5 -63.5t-46 -60t-56.5 -41.5z" />
    <glyph glyph-name="parenleft" unicode="(" horiz-adv-x="382" 
d="M520 831l15 2q20 0 30.5 -12t15.5 -24l4 -23l-4 -25q-3 -15 -17 -21l-38 -22q-24 -15 -51 -42q-27 -24 -48 -48q-10 -10 -28 -32.5t-41 -53.5q-48 -63 -81.5 -160t-33.5 -199q0 -110 20.5 -166.5t20.5 -66.5q0 -14 -22 -33.5t-42 -19.5l-28 9q-21 9 -33.5 21.5
t-30.5 66.5q-8 28 -12 61t-4 82q0 143 53.5 291.5t126.5 227.5q37 40 71 73t62 56q60 49 95 58z" />
    <glyph glyph-name="parenright" unicode=")" horiz-adv-x="382" 
d="M26 -113l-15 -2q-21 0 -38 17q-13 16 -13 42q0 14 2 19l4 14q0 6 17 15q14 5 37 21l48 39l47 46q19 19 70 87q46 62 83 163q16 48 25 99t9 100q0 106 -21 168l-20 66q0 11 22.5 32t40.5 21q8 0 28.5 -9t34 -21.5t30 -66t16.5 -141.5q0 -143 -52.5 -292.5t-126.5 -227.5
q-38 -41 -69 -71q-35 -34 -65 -58q-60 -51 -94 -60z" />
    <glyph glyph-name="asterisk" unicode="*" horiz-adv-x="310" 
d="M385 634l43 21l12 5l10 2q9 -3 9 -20l-2 -22q-3 -21 -6.5 -27t-16.5 -13l-24 -10q-12 -5 -12 -11q0 -7 4 -12l17 -12l22 -17q4 -6 0 -14l-28 -27q-15 -15 -29 -15q-6 0 -14 5l-16 11q-7 6 -15 3q-6 -3 -12 -18l-10 -23q-6 -13 -12 -16.5t-19 -3.5h-20q-9 0 -17 7
q-5 6 -7 16l2 10l11 26l6 17l2 9q-3 4 -10 3l-11 -3l-21 -5l-26 -5q-10 0 -15 5l-8 18q-2 10 -2 15q1 7 1 11q2 12 6.5 21t16.5 12l42 6q6 2 7 4q3 3 -1 8l-23 25q-7 8 -5 21q1 8 10 17q7 9 22 13l12 3q10 0 19 -6t29 -26l18 36q5 10 11.5 16.5t20.5 6.5l14 -3q7 -1 16 -9
q9 -6 9 -17l-2 -9z" />
    <glyph glyph-name="plus" unicode="+" horiz-adv-x="708" 
d="M349 646h121v-263h258v-123h-258v-260h-121v260h-259v123h259v263z" />
    <glyph glyph-name="comma" unicode="," horiz-adv-x="205" 
d="M-22 -126q-6 0 -10 4q-3 5 2 9q37 37 58.5 71.5t21.5 52.5l-3 15q-3 8 -21 23q-18 12 -21 33q-1 11 3 29q6 18 16 26.5t24 14.5l27 4l18 -2q9 -3 20 -14l20 -22l16 -20l10 -17l4 -22q0 -28 -20 -61q-17 -31 -45 -59q-24 -27 -49 -39q-11 -6 -28.5 -12t-42.5 -14z" />
    <glyph glyph-name="hyphen" unicode="-" horiz-adv-x="364" 
d="M52 227q-3 17 8 22l53 15l64 13l40 5l39 2h11l17 -4q9 0 18 -12q8 -8 14 -27.5t6 -36.5q0 -21 -6 -29q-5 -3 -14 -5l-23 4h-24l-29 -4l-32 -6q-13 -2 -16.5 -2.5t-19.5 -5.5l-34 -9l-17 -3q-15 0 -27.5 14.5t-27.5 68.5z" />
    <glyph glyph-name="period" unicode="." horiz-adv-x="208" 
d="M50 151q8 3 24 5q10 0 19 -4.5t26 -24.5l25 -30q9 -9 9 -28l-2 -18q-7 -37 -27.5 -46.5t-34.5 -9.5q-24 0 -35 14l-34 41q-16 22 -16 48q0 17 12 30.5t34 22.5z" />
    <glyph glyph-name="slash" unicode="/" horiz-adv-x="273" 
d="M504 770l-21 -24l-32 -42l-38 -58l-57 -87l-79 -124l-107 -174q-26 -44 -40 -67q-23 -40 -46 -83l-42 -88q-16 -36 -29 -37l-12 1q-7 5 -9 9q-3 10 8 38l39 84q14 27 28.5 54t30.5 54l88 143l88 142l54 86l54 83l48 74q5 7 10 15q9 12 16 18q13 11 29 11q8 0 16 -9
q6 -12 3 -19z" />
    <glyph glyph-name="zero" unicode="0" 
d="M450 698l18 3q20 0 42 -16q18 -15 26 -33l9 -44l11 -22l13 -16q8 -13 14 -35q3 -11 4 -19.5t1 -26.5q0 -38 -7 -69q-3 -16 -10 -40t-19 -58q-23 -66 -110.5 -180t-150 -131.5t-84.5 -17.5q-27 0 -49 7.5t-50 30.5t-41 71.5t-13 99.5q0 121 90.5 249.5t165.5 173.5l101 58
zM401 537q-80 -59 -147 -176t-67 -189q0 -34 14 -42l23 -7q14 0 66 30t124 165.5t72 210.5v13q0 17 -5.5 21.5t-16.5 6.5q-9 0 -17 -4z" />
    <glyph glyph-name="one" unicode="1" 
d="M542 649q0 -22 -3 -30l-14 -32l-194 -424l-13 -33l-9 -37l-6 -42l1 -23q0 -9 -8 -16l-22 -10q-10 -3 -31 -5q-36 0 -54 25q-16 27 -16 46q0 22 6 46t18 51l142 340l3 12l2 7q0 5 -7 4l-34 -10q-14 -3 -18.5 -4t-16.5 -1q-17 0 -33.5 12.5t-16.5 51.5l3 30q3 12 9 15.5
t36 8.5q29 3 51 10l40 12l48 20l26 12l26 11q14 6 24 6q8 0 19 -6l23 -21q14 -15 19 -26z" />
    <glyph glyph-name="two" unicode="2" 
d="M242 170l-3 -9q0 -8 6 -6l63 12l47 4q26 0 47.5 -8t39.5 -29q16 -21 16 -47q0 -14 -6 -31l-11 -18l-8 -10q-2 -4 -11 -5l-31 8q-27 9 -69 9q-18 0 -28 -1t-30 -6l-46 -11l-29 -8l-40 -12l-40 -7q-18 0 -24 9q-11 12 -32 47q-17 32 -19 48q0 31 29 67t92 91l203 167
q50 41 78 72t28 51q0 15 -12 23l-18 7q-18 0 -51 -17l-27 -20q-7 -5 -20.5 -18.5l-19.5 -19.5q-26 -27 -43 -27l-32 3q-11 3 -23 15q-4 6 -7 15q-6 16 -6 34q0 13 7.5 39t51.5 59t85.5 47.5t87.5 14.5q27 0 37.5 -1.5t28.5 -6.5q29 -6 56 -27q24 -18 38.5 -52t14.5 -66
q0 -46 -24 -82.5t-112 -107.5l-148 -118z" />
    <glyph glyph-name="three" unicode="3" 
d="M463 380q24 -12 34.5 -34.5t10.5 -51.5v-22q-3 -11 -5 -23.5t-20 -60t-85.5 -108t-112.5 -72.5l-58 -11l-28 -2q-32 0 -60.5 9.5t-51.5 33.5t-35 55q-5 14 -8 29.5t-3 32.5q0 25 7 49q3 13 8.5 25t14.5 26q16 26 36 32l31 5q20 0 38 -14q18 -12 18 -42q0 -8 -2 -12.5
t-4 -10t-9 -18.5q-12 -24 -12 -34l3 -17q3 -10 11 -15l18 -6q26 0 63 24.5t60 48.5q17 19 32 48q6 12 8 22.5t2 18.5q0 15 -11 21q-8 6 -23 6l-30 -1h-12q-5 0 -17 2.5t-18 10.5l-13 24q-2 8 -3 15t-2 15l2 16q3 10 29 26l50 28l13 7q30 18 53.5 33t34.5 23q28 20 28 46
q0 8 -2 13t-10 11t-21 6q-12 0 -28 -5l-31 -15q-17 -8 -27 -20l-32 -26q-15 -12 -27 -12q-33 0 -44.5 19t-11.5 43q0 11 1 17t8.5 24.5t55 48t79.5 37.5q17 4 31 6t33 2q21 0 31 -1t28 -7q28 -6 61 -38q35 -30 35 -92v-12l-6 -30q-3 -22 -25.5 -54t-43.5 -51
q-23 -18 -37 -24q-3 -2 -5 -9q4 -6 6 -8z" />
    <glyph glyph-name="four" unicode="4" 
d="M468 373q-1 -4 1 -7t8 -3l27 2q14 0 19.5 -1t17.5 -7q16 -6 25 -21q6 -10 8 -27q0 -15 -5 -35t-11 -31l-10 -15l-7 -3q-6 0 -13 5t-21 8l-29 2q-9 0 -19 -0.5t-27 -7.5q-19 -6 -30 -24q-5 -8 -10.5 -23.5t-9.5 -27.5l-13 -47l-7 -35l-3 -29l3 -25q0 -12 -15 -17l-27 -4
l-23 -2q-17 0 -30 6t-29 25q-14 19 -14 43q0 23 11 51l18 48l4 13q6 15 0 18q-8 0 -14 -2l-13 -3l-20 -5l-45 -14l-32 -5q-14 0 -27.5 9t-33 47.5t-21.5 53.5q0 49 94 151t176 168q63 44 110.5 73.5t80.5 29.5l16 -3q8 -1 31.5 -24.5t27.5 -35.5l4 -16q0 -22 -22 -63
l-20 -34l-62 -116zM209 321l-1 -7q4 -3 6 -3l49 9l41 8q7 3 13.5 10t14.5 26l71 147q2 5 -1 7q-2 3 -7 1q-36 -18 -82.5 -69.5t-103.5 -128.5z" />
    <glyph glyph-name="five" unicode="5" 
d="M598 562q-27 9 -92 9q-45 0 -80 -6q-33 -4 -44 -13.5t-24 -30.5l-24 -43q-3 -4 -1 -10q1 -1 7 -2l33 9l34 4q25 0 44 -8q19 -6 39 -26.5t29 -50.5t9 -62l-3 -40q-3 -19 -18.5 -71t-84 -122.5t-130.5 -88.5q-64 -16 -82 -16t-45 9q-55 21 -73.5 49.5t-23.5 58.5l-3 42
q0 9 0.5 21t7.5 30q7 24 29 41t51 17q8 0 28.5 -6.5t24.5 -25.5l4 -27q0 -12 -7 -27l-7 -22q0 -18 15 -23l22 -2q18 0 51 21.5t69 73.5t36 93q0 19 -3.5 27t-13.5 17q-8 5 -21 7q-14 0 -25 -5q-10 -3 -48 -26t-51 -21l-15 9l-16 15l-25 18q-10 8 -14 15l-1 10q0 25 16 54
l34 60l47 82l-9 16q-12 21 -12 31l3 14q3 8 28 16t67 15l150 26l29 4l26 2q37 0 52.5 -15t22.5 -38q3 -12 5 -22t2 -23q0 -12 -2 -18l-6 -19q-3 -9 -11 -6z" />
    <glyph glyph-name="six" unicode="6" 
d="M392 494q-4 -4 -4 -8t5 -7q43 -12 70.5 -30.5t42 -55.5t14.5 -71q0 -46 -18 -95t-57 -105q-19 -27 -44.5 -49.5t-56.5 -40.5q-62 -36 -124 -36q-36 0 -64 16.5t-44.5 44.5t-23.5 56.5t-7 55.5q0 22 3 45t10 49q12 51 49 122.5t154 188.5t165 123l57 5q14 0 29.5 -5
t26 -18.5t10.5 -32.5l-2 -17l-6 -22l-9 -24q-7 -15 -25 -12l-28 2h-12q-12 -1 -20.5 -5t-29.5 -21l-35 -27zM286 358q-32 -56 -51 -98q-19 -48 -19 -75l3 -32q3 -10 12 -18q9 -6 21 -6q10 0 21 5q32 18 66 71t42 81q6 27 6 38q0 27 -17.5 43.5t-41.5 16.5q-16 0 -27 -5z" />
    <glyph glyph-name="seven" unicode="7" 
d="M273 17q-4 -6 -7 -8l-12 -5l-20 -7l-22 -3q-9 0 -20 5t-29.5 20.5t-22.5 30.5q-6 31 30 110q17 37 40 76.5t49 74.5t49.5 66.5t44.5 56.5l94 115q3 3 0 8q-2 3 -7 5h-22.5t-21.5 -2q-17 0 -46 -7l-44 -11l-22 -11q-12 -9 -23 -6q-14 6 -23.5 15.5t-21.5 30.5q-9 20 -9 39
q0 12 7 26.5t26 21.5l39 10l63 9l56 6l68 5l82 3q37 0 56.5 -12t26.5 -36l6 -25v-6q0 -20 -4 -28.5t-20 -28.5l-25 -28l-37 -38q-22 -23 -29 -31q-11 -12 -34 -40q-32 -39 -41 -51q-2 -3 -25 -35l-53 -80l-50 -83q-27 -46 -36.5 -76.5t-9.5 -75.5z" />
    <glyph glyph-name="eight" unicode="8" 
d="M457 346q19 -36 30.5 -64.5t11.5 -58.5l-1 -19q0 -9 -15 -51.5t-67 -87.5q-48 -42 -102 -55t-86 -13q-39 0 -72.5 9t-59.5 32.5t-40 57.5q-13 37 -13 70q0 7 1 20.5t5.5 41.5t48.5 69t90.5 64.5t47.5 32.5q-1 3 -2.5 6.5t-6.5 10.5l-16 32q-3 11 -5 21t-2 23
q0 34 22.5 77.5t83.5 81t101 45.5l45 8l21 1q18 0 32 -5q15 -3 25 -13q9 -7 13 -19l10 -39l9 -40q2 -9 8 -18.5t7 -22.5l2 -19q0 -46 -29.5 -80.5t-82.5 -66.5q-15 -10 -16 -22zM339 496l-3 -20q0 -15 8 -23q9 -6 15 -6q7 0 10 2l26 10l52 27q30 18 36.5 36.5t6.5 28.5
q0 12 -9.5 20.5t-22.5 8.5q-10 0 -18 -4q-36 -12 -64 -30.5t-37 -49.5zM184 196l-2 -16q0 -24 16 -40q9 -8 19 -12t25 -4l16 1l24 6q16 3 42.5 27.5t32.5 45.5l7 33q0 14 -9 30t-30 37q-41 -15 -86.5 -45t-54.5 -63z" />
    <glyph glyph-name="nine" unicode="9" 
d="M269 232q-60 15 -81.5 30.5t-33.5 55t-12 66.5q0 46 19 94q11 26 25.5 49.5t39.5 52.5q46 54 105 87.5t116 33.5h12l29 -4q20 0 51 -22q30 -19 48 -56t18 -80q0 -27 -4 -49.5t-16 -54.5q-18 -54 -48.5 -103t-97.5 -128q-63 -74 -142.5 -140.5t-127.5 -66.5q-19 0 -33 6
t-24.5 18t-12.5 28l2 16l9 25q6 16 26 26l39 18q20 11 35 23l29 26l21 19l13 14q3 3 3 8t-7 8zM282 392q0 -30 13 -39q10 -6 26 -8q18 0 49 16t69.5 72.5t38.5 100.5q0 33 -12.5 42.5t-23.5 9.5q-12 0 -44 -17t-74 -75.5t-42 -101.5z" />
    <glyph glyph-name="colon" unicode=":" horiz-adv-x="196" 
d="M47 151q8 3 24 5q24 0 39 -22l31 -37q10 -12 10 -29l-2 -18q-7 -36 -28 -45.5t-35 -9.5q-24 0 -35 14l-34 41q-16 22 -16 48q0 17 12 30.5t34 22.5zM119 395q9 3 23 5q23 0 38.5 -20t35.5 -42q7 -11 7 -24t-5 -33q-3 -24 -25 -33t-37 -9q-22 0 -33 14l-36 41
q-15 21 -15 48q0 17 12.5 30.5t34.5 22.5z" />
    <glyph glyph-name="semicolon" unicode=";" horiz-adv-x="227" 
d="M-22 -120q-6 0 -10 4q-3 5 2 10q37 37 58.5 71.5t21.5 52.5l-3 15q-3 8 -21 23q-18 12 -21 33q-1 11 3 29q6 16 21 30.5t45 14.5l19 -3q9 -3 20 -14l20 -22l16 -19l10 -17l4 -22q0 -28 -20 -61q-18 -33 -45.5 -61t-56.5 -42q-20 -9 -36 -14q-4 -1 -27 -8zM143 395
q8 3 24 5q23 0 38.5 -20t35.5 -42q5 -8 7 -24l-6 -33q-5 -24 -26 -33t-35 -9q-22 0 -33 14l-36 41q-15 21 -15 48q0 17 12 30.5t34 22.5z" />
    <glyph glyph-name="less" unicode="&#x3c;" horiz-adv-x="605" 
d="M115 382l466 173v-104l-357 -126l357 -125v-105l-466 174v113z" />
    <glyph glyph-name="equal" unicode="=" horiz-adv-x="890" 
d="M907 526v-123h-774v123h774zM907 240v-122h-774v122h774z" />
    <glyph glyph-name="greater" unicode="&#x3e;" horiz-adv-x="605" 
d="M626 269l-466 -174v105l357 125l-357 126v104l466 -173v-113z" />
    <glyph glyph-name="question" unicode="?" horiz-adv-x="395" 
d="M246 197q-33 0 -45 8t-21 32q-2 5 -4.5 18t-3.5 17q0 30 22 63.5t58 66.5l72 66q41 35 65 63q18 21 20 35q0 12 -14 16q-12 1 -37.5 -6.5t-48.5 -22.5q-24 -13 -40 -31l-21 -27q-3 -5 -22 -5q-13 0 -26 5.5t-24 19t-11 37.5q0 11 7 33.5t56 58.5t93.5 51t82.5 15
q26 0 49 -5.5t46 -22.5q23 -14 35 -42t12 -60q0 -57 -29 -89q-15 -18 -34 -37t-46 -45l-93 -89l-24 -26q-11 -11 -17.5 -21t-12.5 -32q-3 -18 -8 -26t-16 -13t-20 -5zM149 151q8 3 24 5q8 0 20 -6q11 -4 15 -12l25 -31q21 -23 21 -40l-2 -18q-7 -36 -29 -45t-35 -9
q-23 0 -34 14l-44 50q-7 12 -7 39q0 17 12 30t34 23z" />
    <glyph glyph-name="at" unicode="@" horiz-adv-x="912" 
d="M606 161q-32 -50 -71 -72t-84 -22q-38 0 -72 17.5t-59 55.5q-23 38 -23 94q0 67 33 132.5t87 106.5q28 21 53 30.5t54 9.5q61 0 87 -19q26 -17 44 -58l18 60h119l-61 -221l-15 -53q-7 -33 -7 -51q0 -19 9 -29t34 -10l31 4q21 3 47.5 35t50 84t23.5 118q0 44 -11 84
t-48.5 92.5t-124 79.5t-164.5 27q-99 0 -184 -48.5t-127.5 -124.5t-54.5 -127.5t-12 -105.5q0 -103 44 -182t128 -123.5t170 -44.5q88 0 169.5 21.5t164.5 72.5l23 -40q-81 -53 -177.5 -81.5t-186.5 -28.5q-114 0 -209 48t-151 138t-62 149l-6 67v17q0 98 44.5 191.5
t123 150.5t160.5 79.5t161 22.5q108 0 193.5 -36.5t130.5 -100.5t51 -113l6 -59l1 -16q0 -38 -6 -74t-20 -75q-26 -74 -84.5 -120t-128.5 -46q-26 0 -51.5 10t-39.5 28.5t-20 55.5zM425 196q0 -37 32 -62q11 -6 27 -6q18 0 33 6q41 21 70.5 99.5t33.5 108.5l4 41q0 19 -5 32
q-3 12 -14 20l-22 10l-22 3q-12 0 -39.5 -9t-63.5 -104q-16 -45 -25 -81.5t-9 -57.5z" />
    <glyph glyph-name="A" unicode="A" horiz-adv-x="514" 
d="M342 184l-21 -1l-95 -8q-32 -4 -46 -15q-8 -7 -29 -39l-25 -42l-12 -32l-9 -38q-3 -12 -15 -17q-14 -2 -26.5 1.5t-31 18.5t-27.5 30q-7 18 -7 35q0 12 3.5 22.5t19.5 35.5l16 30l7 17q-3 10 -5 15l-4 26q0 21 8 28l30 17l33 14l51 77q47 65 79 103q24 29 52 59.5
t44 47.5q65 70 118.5 112.5t85.5 36.5q13 -3 20 -7.5t19 -22.5l16 -25l21 -22q6 -8 6 -15l-4 -14l-16 -32l-24 -53l-36 -89l-37 -102q-3 -10 -10 -38t-12 -53.5t-8 -58.5t-3 -65l2 -44l2 -30q0 -25 -3 -38.5t-15 -19.5l-19 -5q-28 0 -57 18q-26 18 -38 38q-10 22 -10 47
l1 24q0 10 3 25.5t5 25.5zM280 308q-4 -9 6 -10l45 6l34 3l8 30l16 48l21 50l17 37q3 4 -2 8q-3 3 -7 0q-65 -58 -138 -172z" />
    <glyph glyph-name="B" unicode="B" horiz-adv-x="495" 
d="M463 370q20 -22 35 -51q12 -24 12 -54q0 -21 -14 -63q-12 -45 -87.5 -105t-152.5 -79l-92 -21l-30 -3q-22 0 -35 5q-14 3 -24 16t-15 26l-9 22l-12 24l-11 23q-4 21 24 91l154 344q4 8 4 14q-3 8 -17 23.5t-12 28.5q5 20 27 33q9 6 21.5 12t32.5 14q32 12 79 21
q21 4 47 7t47 3q44 0 72 -7q32 -6 57 -26q27 -19 40 -52t13 -66q0 -42 -24.5 -73t-77.5 -62l-44 -23q-12 -5 -12 -13q2 -7 4 -9zM432 488q26 14 48.5 33t23.5 35q0 17 -17.5 28t-43.5 11q-29 0 -59.5 -9.5t-44.5 -22.5q8 -13 10 -24q0 -10 -14 -31l-28 -42l-3 -9q0 -7 10 -8
q30 3 56.5 12t61.5 27zM187 134l28 9l37 16l38 18l29 19q27 18 45.5 39.5t18.5 44.5q0 21 -9 28t-27 10l-36 2q-45 0 -60 -4.5t-25 -14.5t-19 -35l-22 -64l-10 -31l-6 -23q-3 -9 2 -12.5t16 -1.5z" />
    <glyph glyph-name="C" unicode="C" horiz-adv-x="472" 
d="M421 695l20 2q21 0 40.5 -7.5t40 -27.5t30.5 -56t10 -71q0 -23 -1.5 -33.5t-5.5 -33t-8 -38.5t-10 -27q-9 -20 -29 -26l-29 -3q-11 0 -26 6q-13 3 -22 20q-4 8 -6 17.5t-2 22.5v9q0 8 12 44.5t14 52.5q0 18 -14 18q-10 0 -38 -20t-69 -59q-37 -35 -99.5 -140t-62.5 -166
q0 -12 2 -20.5t7.5 -16.5t16.5 -14l18 -4q16 0 30 7l34 21l34 25l44 41l42 44q10 8 27 10q13 0 30 -9t28 -26q12 -15 12 -26q0 -7 -15 -44t-90.5 -94.5t-123.5 -67.5q-15 -3 -33.5 -6.5t-31.5 -3.5q-12 0 -24 1.5t-29.5 8.5t-30 15.5t-27.5 23.5q-27 27 -40 66.5t-13 79.5
q0 30 15 105.5t137 225.5t236 174z" />
    <glyph glyph-name="D" unicode="D" horiz-adv-x="526" 
d="M220 561q-14 11 -23 25q-7 14 -7 27q0 9 9 30t64 39.5t80 21.5l45 3q52 0 100.5 -18.5t74.5 -56.5q27 -36 36.5 -71.5t9.5 -70.5q0 -69 -44.5 -168.5t-179.5 -208.5t-235 -121q-30 0 -47 6t-25 23q-6 19 -11 25q-3 8 -8 13l-18 28q-5 11 -7 24l1 13l14 48q14 47 53 139
q45 106 68 152zM293 202q83 67 138.5 149t55.5 152q0 34 -25.5 53t-52.5 19q-25 0 -53 -11q6 -12 6 -20q0 -10 -10 -26l-19 -29l-30 -52l-40 -77l-38 -82l-33 -78q-11 -34 -13 -47q0 -12 6 -15t13 1l51 30q9 5 21.5 14.5t22.5 18.5z" />
    <glyph glyph-name="E" unicode="E" horiz-adv-x="452" 
d="M292 428l-3 -10q0 -7 16 -8l52 8l32 3q20 0 37 -9q14 -9 23 -32t9 -44q0 -14 -3.5 -25.5t-12.5 -16.5l-12 -4l-15 6l-23 2l-46 -2q-46 0 -79.5 -9.5t-40 -16.5t-18.5 -36l-21 -61l-4 -19q0 -7 7 -11l15 -3l22 3l22 5l35 8l28 5l29 3q20 0 31 -3.5t22 -15.5l15 -22
q6 -10 7 -23l2 -15v-6l-3 -21q-3 -12 -15 -15q-15 4 -29 7t-24 3q-17 0 -59 -12l-78 -21l-38 -13q-27 -9 -43 -9t-33 11q-9 6 -18.5 14t-23.5 21q-24 24 -24 55q0 25 10 54l13 39l36 92l-19 33q-3 6 -5 17q0 16 20 26l29 10q8 4 13 12l6 14l27 57l36 75l32 61q-24 30 -24 50
l4 13q3 9 25 15l50 11l142 22l38 5l35 3q25 0 38.5 -3.5t24 -15t18 -36.5t7.5 -44l-4 -23q-3 -15 -16 -18l-10 3l-10 6l-20 5l-14 1l-28 -1h-23q-14 -3 -20 -4l-49 -9q-23 -6 -53 -51q-13 -21 -23.5 -41t-23.5 -49z" />
    <glyph glyph-name="F" unicode="F" horiz-adv-x="434" 
d="M79 317q-3 6 -5 17q0 16 20 26l29 10q8 6 20 26l27 57l67 136q-24 32 -24 49q0 6 3.5 13.5t19 13t56.5 13.5l143 22l39 6l33 2q25 0 38 -4q15 -3 24.5 -13.5t18 -36t8.5 -44.5q0 -12 -3.5 -25t-16.5 -17l-9 3l-11 6l-21 5l-13 1l-13 -1h-16h-23q-14 -3 -20 -4l-49 -9
q-23 -6 -50.5 -49.5t-40.5 -71.5l-12 -30q0 -8 17 -8l51 8l33 3q21 0 35.5 -9t23.5 -32t9 -44q0 -14 -3.5 -25.5t-12.5 -16.5l-11 -4l-15 6l-24 2l-45 -2q-46 0 -79.5 -9.5t-41 -18t-18.5 -34.5l-29 -76l-13 -35l-7 -27l-2 -24l1 -20q0 -12 2 -18q0 -12 -13 -25t-50 -13
q-22 0 -37.5 8t-25.5 23l-11 23l-2 18q0 23 4 36l17 50l47 130z" />
    <glyph glyph-name="G" unicode="G" horiz-adv-x="536" 
d="M376 251q-14 0 -22 -2l-28 -7l-27 -5q-12 0 -23.5 16t-11.5 51q0 11 5 23.5t42 22.5l67 13l41 5l22 2q27 0 47 -9t36 -28t16 -28q0 -6 -10 -25l-30 -69l-36 -88q-10 -30 -10 -83v-30q0 -19 -12 -19q-20 3 -27 8q-7 3 -20 20t-18 26l-11 27q-46 -38 -88 -58t-79 -20
q-16 0 -24 1t-28 7q-31 9 -57 37q-24 28 -36.5 67.5t-12.5 78.5q0 80 41.5 168t102 163t129.5 128.5t125 53.5h9q41 0 61 -23q17 -18 34 -53l24 -48l7 -22l1 -20q0 -19 -6 -42t-15.5 -39t-21.5 -26.5t-30 -10.5l-21 3q-9 3 -26.5 20.5t-17.5 33.5q0 9 6 26l10 27l4 21
q0 7 -5.5 14t-22.5 9q-31 0 -90 -65q-30 -33 -51.5 -61.5t-35 -51t-27 -50.5t-25 -57.5t-17.5 -55t-6 -46.5q0 -20 5.5 -30.5t15.5 -19.5q6 -5 10.5 -6.5t13.5 -1.5q15 0 34 6.5t42 22.5q49 34 70 57t21 30q0 12 -13 12z" />
    <glyph glyph-name="H" unicode="H" horiz-adv-x="549" 
d="M365 229l19 56l3 9l2 8q0 6 -6 6l-46 -3q-15 0 -22.5 -1.5t-39 -7.5t-40.5 -18.5t-28 -65.5l-26 -79l-11 -38l-2 -23l1 -20q0 -12 2 -18q0 -12 -13 -25t-50 -13q-22 0 -37.5 8t-30.5 33q-8 11 -8 30q0 21 7 45l13 42l22 64l24 66l-12 26l-7 29q0 11 2 17.5t7.5 12
t15.5 8.5l19 6q8 3 17 16l19 35l16 32l49 97l18 38l14 31l4 19q2 14 7 21l15 13l23 11q4 1 11.5 2.5t15.5 2.5q28 0 52 -31q21 -28 23 -42q0 -9 -9 -21l-30 -49l-37 -64l-26 -49l-7 -17q0 -12 12 -10l133 16l63 127l18 37l17 37l2 20q0 9 7 16l15 13l23 11q15 6 27 6
q27 0 51.5 -30.5t24.5 -42.5q0 -9 -9 -21l-31 -49l-34 -59l-71 -145q-57 -120 -75 -196l-16 -86v-18q0 -13 2 -21q0 -12 -6 -20l-20 -11q-14 -6 -36 -6t-37.5 8t-27 26t-11.5 37q0 20 9 49l12 38z" />
    <glyph glyph-name="I" unicode="I" horiz-adv-x="282" 
d="M307 695q15 6 27 6q27 0 51.5 -30.5t24.5 -42.5q0 -9 -8 -20l-16 -24l-31 -52q-22 -39 -43 -83l-41 -91l-46 -111q-10 -27 -19 -50t-16 -37l-15 -38l-7 -28l-2 -22l1 -20q0 -12 2 -18q0 -12 -13 -25t-50 -13q-22 0 -38 8t-27 26.5t-11 38.5t4 35l22 65l37 97q17 46 23 60
q2 6 18 40q17 42 20 48q9 19 21 43l39 79l31 65l14 31l4 19q2 14 7 21l15 13z" />
    <glyph glyph-name="J" unicode="J" horiz-adv-x="408" 
d="M170 4l-31 -3q-27 0 -52.5 9t-46 33t-32.5 58q-4 14 -7 32t-3 35q0 11 0.5 24.5t7 33t8.5 25t9.5 18t24.5 18.5l23 5q17 0 31 -12l23 -24q8 -11 10 -27l-3 -24l-7 -29l-3 -21q0 -10 5.5 -18.5t18.5 -5.5q23 5 46 44l53 100q8 17 27 57q13 27 24 52.5t19 47.5q4 10 18 54
l25 82l14 62q1 3 1 11q0 4 -2.5 15t-0.5 19q3 7 15 13t40 9q25 0 38.5 -3.5t23.5 -19.5l18 -25q7 -11 7 -23t-7 -30l-26 -81q-8 -24 -22 -63.5t-28 -74.5q-33 -82 -77 -169q-47 -95 -82.5 -139t-99.5 -65z" />
    <glyph glyph-name="K" unicode="K" horiz-adv-x="536" 
d="M257 327l-35 -85l-31 -77l-16 -42l-7 -27l-2 -24l1 -20q0 -12 2 -18q0 -12 -13 -25t-50 -13q-22 0 -38 8t-27 26.5t-11 38.5t4 35l22 65l37 97q17 46 23 60q2 6 18 40q17 42 20 48q9 19 21 43l39 79l31 65l14 31l4 19q2 14 7 21l15 13l23 11q10 3 26 5q27 0 51.5 -30.5
t24.5 -42.5q0 -9 -8 -20l-16 -24l-16 -28l-21 -38q-1 -6 2 -8q5 -2 10 1l131 103q28 22 39 31q29 22 43 31.5t24 13t24 3.5q11 0 25 -6l33 -36l17 -17q9 -9 9 -14q0 -6 -22 -21l-47 -33l-133 -91q-42 -27 -75 -57t-36 -50l-2 -37l3 -49l8 -76q6 -47 19 -84q3 -11 5.5 -17.5
t10 -19.5t18.5 -24q11 -9 12 -15q3 -12 -25 -33q-29 -16 -59 -16q-20 0 -31 7q-33 17 -53.5 68.5t-20.5 169.5l-1 43l-1 43q0 9 -8 9q-5 0 -11 -10z" />
    <glyph glyph-name="L" unicode="L" horiz-adv-x="400" 
d="M186 172l-2 -14q0 -12 8 -16l16 -3l22 3l20 5l34 9q22 6 41 8q21 0 41 -20q18 -20 21 -40l3 -28l-2 -15q-2 -9 -5 -13t-11 -7l-26 3l-21 3l-16 -1q-10 0 -21 -5l-78 -21l-38 -13q-27 -9 -43 -9t-32 10.5t-39 31.5q-19 21 -24 33l-4 27q0 22 4 38l19 54l37 94
q33 85 64 152q15 34 27.5 60.5t21.5 42.5l30 58l14 35l3 21q0 9 7 16l15 13l23 11q15 6 27 6q28 0 52 -31q21 -28 23 -42q0 -9 -9 -21l-30 -51q-14 -24 -43 -81q-16 -30 -31 -60q-40 -85 -75 -175z" />
    <glyph glyph-name="M" unicode="M" horiz-adv-x="682" 
d="M404 372l58 73l79 103l87 111q40 49 71 49q11 0 37 -23.5t37.5 -38.5t11.5 -29t-10 -40l-28 -77l-33 -91l-23 -72l-21 -74l-30 -110q-18 -66 -18 -101l1 -12l1 -9l1 -6v-5q0 -8 -7 -11q-35 -19 -54 -19q-11 0 -25 6l-25 15q-13 10 -20.5 23.5t-7.5 28.5l2 17l6 27l9 35
q2 8 7 25.5t13 37.5q13 46 17 58q8 26 18 51l36 92l-1 5q-4 3 -6 3l-6 -4t-12 -12l-28 -34l-50 -70q-36 -53 -51 -82l-24 -51l-7 -35l2 -13q3 -10 1 -15q-6 -12 -27.5 -24.5t-34.5 -15.5l-25 -3q-16 0 -29 5.5t-23.5 18t-18.5 37.5q-5 25 -5 54q0 50 12 106.5t27 100.5l6 17
q3 11 3 17q0 5 -3 8q-5 2 -10 -8l-17 -33l-32 -63l-37 -81l-41 -108l-11 -29l-4 -23l1 -25l4 -25l-4 -11q-3 -4 -23 -10l-34 -7q-5 -1 -13 -1q-3 0 -8.5 1.5t-19.5 15.5l-29 29q-6 12 -6 29t1 25t6 23.5t10.5 30t13.5 31.5l218 438q26 54 40.5 70.5t34.5 16.5q8 0 19 -6
l18 -13l14 -11l14 -8l12 -6l12 -12q8 -8 8 -26l-6 -36l-7 -36l-21 -92q-3 -16 -5 -34.5t-2 -41.5q0 -9 5 -13q5 -3 9 2z" />
    <glyph glyph-name="N" unicode="N" horiz-adv-x="554" 
d="M408 325l43 101l54 119q32 70 60 110t62 40q18 0 29 -6.5t16 -14.5l7 -9l18 -17q3 -3 5 -13q0 -12 -14 -32l-52 -79q-35 -54 -73 -126q-31 -61 -61 -138l-29 -79l-10 -32l-11 -40l-4 -24l1 -18l1 -18q0 -11 -8 -20q-6 -9 -25 -19q-14 -7 -35 -14l-25 -5q-15 0 -43.5 25.5
t-37.5 54.5q-3 15 -5 31t-2 35v22v16v12l-1 30v32v11q0 78 12 135l-4 7q-2 3 -8 -3l-45 -93q-19 -42 -34 -86l-21 -73l-14 -63l-7 -45v-13l-1 -15q-6 -7 -12 -12t-18 -5q-7 0 -11 2l-15 9l-12 10l-37 25q-11 6 -11 30q0 22 6 45l37 111q32 89 69 178t80.5 167.5t63 103.5
t46.5 25q15 0 24 -3t19 -17l17 -22l22 -21q18 -18 18 -43q0 -17 -5 -33l-13 -46l-11 -51l-11 -71l-3 -48q0 -19 -2 -28q0 -6 8 -7q7 0 13 15z" />
    <glyph glyph-name="O" unicode="O" horiz-adv-x="486" 
d="M417 699l19 3q17 0 37 -14q20 -11 26 -25l11 -36q6 -24 13 -34l18 -22q8 -11 15 -38.5t7 -53.5q0 -56 -17 -103q-27 -94 -118 -217.5t-156 -144t-92 -20.5q-20 0 -42 6t-49.5 27.5t-43 68.5t-15.5 95q0 100 90 243.5t154 185.5t97 60q27 14 46 19zM201 320
q-9 -18 -17.5 -40.5t-11.5 -32.5q-13 -44 -13 -71q0 -21 9 -38q9 -14 38 -14q53 6 117 93q31 42 53.5 76t34.5 58t21.5 47.5t17.5 46.5q15 42 15 73q0 18 -9 33t-33 15q-50 0 -119 -84q-65 -81 -103 -162z" />
    <glyph glyph-name="P" unicode="P" horiz-adv-x="472" 
d="M188 161l-12 -33l-9 -32l-2 -24l1 -20q0 -12 2 -18q0 -12 -13 -25t-50 -13q-22 0 -37.5 8t-25.5 23l-11 23l-2 18q0 23 4 36l17 50l33 92q12 32 21.5 56.5t22.5 55.5l51 116l46 103q-24 27 -24 47l6 20q6 13 52 30t84 23l54 5q47 0 85.5 -16.5t72.5 -61.5t34 -110
q0 -44 -24.5 -103t-119.5 -120t-140 -70l-48 -8q-10 0 -20 9t-15 10q-7 -7 -9 -12l-13 -31zM300 363q28 10 68.5 35t76.5 61q33 35 33 69q0 21 -10.5 30.5t-23.5 13.5l-23 3h-13l-25 -5q-14 -1 -31 -27q-13 -21 -43 -84l-28 -62l-9 -23q0 -7 2 -11l9 -4z" />
    <glyph glyph-name="Q" unicode="Q" horiz-adv-x="486" 
d="M423 700l18 3q19 0 39.5 -13.5t26.5 -26.5l11 -37q6 -24 14 -35l17 -21q9 -12 15 -38q3 -14 5 -26t2 -27q0 -54 -20 -116t-55.5 -118t-102.5 -134l-39 -46l-4 -19l-1 -21q0 -26 4 -37.5t6.5 -16.5t10 -14.5t21.5 -13.5l21 -5q16 0 25 8l18 15q3 3 8 0q3 -3 1 -10l-15 -33
q-8 -17 -24 -37t-37.5 -38t-42.5 -27q-13 -5 -19.5 -6.5t-15.5 -1.5q-27 0 -47.5 18.5t-32.5 43.5q-4 10 -7 24.5t-3 28.5l2 25l5 30q3 14 -10 14q-14 0 -21 -2l-22 -2q-28 0 -48.5 9.5t-47.5 37.5q-23 26 -37 67q-11 41 -11 87q0 25 4 51t16 73q19 80 120.5 205.5
t231.5 174.5zM213 172q-7 5 -19 7l-17 -4q-10 -3 -13 -17t11 -24q8 -3 28 -3q21 0 27 10q3 6 -4 16zM463 499l1 18q0 24 -10 34.5t-22 10.5q-10 0 -19 -4q-70 -22 -142 -125.5t-102 -195.5l-3 -11q0 -6 3 -9h8l23 12l20 8q9 3 25 3q32 0 70 -35q59 68 98 148.5t50 145.5z
" />
    <glyph glyph-name="R" unicode="R" horiz-adv-x="500" 
d="M219 572q-10 10 -16 18t-8.5 13t-3.5 12t0 11q5 15 31 33t56 27l56 14l54 4q40 0 75 -9t65 -33q30 -22 49 -65t19 -82q0 -13 -2 -27t-3 -23q0 -33 -48 -95q-44 -56 -143 -106l-16 -7q-8 -4 -11 -11v-12q9 -53 27 -96t63 -88q6 -6 0 -16q-15 -21 -35 -30.5t-43 -9.5h-12
l-26 6q-17 3 -31.5 28t-33.5 83l-25 66l-7 18l-13 24q-7 13 -17 13q-6 0 -9 -9l-5 -13l-18 -49l-13 -39l-7 -30l-2 -20l1 -20q0 -12 2 -18q0 -12 -13 -25t-50 -13q-22 0 -37.5 8t-30.5 33q-8 11 -8 30q0 20 9 49l16 50q6 21 14.5 44.5t14.5 40t21 56t26 65.5l48 113z
M455 478q18 29 18 54q0 13 -8 25q-6 12 -21 18t-34 6q-39 0 -57 -25l-36 -72l-46 -99l-10 -28q0 -5 9 -7q39 0 97.5 39.5t87.5 88.5z" />
    <glyph glyph-name="S" unicode="S" horiz-adv-x="437" 
d="M385 701l32 5q36 0 60.5 -26t38.5 -73t14 -82l-4 -29q-2 -11 -7 -24.5t-19 -39.5q-23 -45 -37 -51l-20 -4q-18 0 -38 17q-18 18 -22.5 30t-5.5 19.5t-1 22.5q0 10 8 22l18 21q7 7 14 21l11 32q4 13 -7 20q-10 0 -17 -1.5t-13.5 -4.5t-27.5 -13.5t-55.5 -49.5t-34.5 -74
v-11q0 -28 15 -53t50 -58l13 -13q30 -27 49 -57.5t19 -62.5l-2 -21q-9 -44 -48 -85t-90.5 -61t-107.5 -20q-23 0 -34 1t-31 6q-28 8 -53.5 25t-40.5 42q-13 26 -13 53q0 40 36 64q17 9 37 9q12 0 18.5 -3t26.5 -34t34 -40q16 -8 36 -8q13 0 26.5 3t31.5 11q33 15 41 57
q0 12 -1 19.5t-7 17.5q-9 18 -53 62l-13 13q-72 74 -72 142q0 17 7 55q4 21 19 44.5t46 55.5q56 59 98 80l57 23z" />
    <glyph glyph-name="T" unicode="T" horiz-adv-x="485" 
d="M325 543q-31 -11 -60 -11q-22 0 -38 6t-28 21l-15 25l-4 27l-1 25q0 14 2.5 20.5t14.5 3.5l32 -4h14l19 4l242 41l39 6l30 3q23 0 39.5 -6.5t26.5 -19.5l16 -26l9 -27l2 -26q0 -20 -17 -20l-37 4l-23 1h-30q-17 -3 -36.5 -5t-31 -15.5t-36.5 -65.5l-66 -149l-42 -100
l-39 -97q-14 -33 -19 -56l-3 -30l1 -20q0 -12 2 -18q0 -12 -13 -25t-51 -13q-22 0 -37.5 8t-27 26t-11.5 39q0 16 6 39l21 60l32 86q11 29 21.5 54.5t28.5 67.5q37 82 43 95q21 41 31 62q3 5 0 8q-1 1 -6 2z" />
    <glyph glyph-name="U" unicode="U" 
d="M241 636l3 16q1 13 6 19l12 11l24 13q15 5 29 7q27 0 51.5 -30.5t24.5 -42.5q0 -10 -10 -21l-30 -51q-14 -23 -30.5 -54.5t-34.5 -68.5l-53 -119l-26 -69l-11 -37q-3 -12 -4 -18t-1 -19q0 -27 9 -30l18 -2q30 0 61.5 36t71.5 115l156 307l49 90q14 20 42 20q18 0 30 -11
l33 -35q12 -12 14 -21q0 -8 -14 -30l-29 -51q-35 -64 -73 -144l-63 -140q-10 -23 -21.5 -53.5t-16.5 -46.5q-9 -32 -9 -66q0 -35 12 -86q2 -15 -5 -18l-18 -6l-25 -3l-11 1l-22 4q-15 3 -25 16t-15 36l2 32l4 24q3 9 -2 14q-3 5 -9 -1l-85 -97q-25 -25 -82 -25
q-17 0 -24.5 1t-21.5 8t-39 41q-23 34 -23 93q0 32 9 74q5 23 11.5 43.5t17.5 50.5q20 55 46 116l52 113l34 66z" />
    <glyph glyph-name="V" unicode="V" horiz-adv-x="505" 
d="M268 276l101 143l95 133l46 61q13 18 22 28q4 5 23 25q23 23 56 23q9 0 14 -2q6 0 20 -11l26 -20l18 -12q5 -2 8 -10q3 -14 -20 -37l-36 -39q-52 -58 -88 -107l-70 -93l-77 -109l-73 -106l-45 -67l-33 -52q-20 -27 -41 -27q-16 0 -25 3l-21 15l-18 16l-27 13
q-8 8 -11.5 25t-3.5 41v21.5t2 22.5l6 41l38 189l29 135l16 75l3 21l-1 29q0 13 2.5 20t11 13.5t21.5 9.5l25 2l24 -3q9 -1 23 -18l20 -31q11 -14 11 -33l-3 -24l-3 -12q-5 -17 -17 -50l-34 -104l-25 -91l-10 -42q0 -13 9 -13q7 0 12 8z" />
    <glyph glyph-name="W" unicode="W" horiz-adv-x="682" 
d="M245 699q17 4 31 4q7 0 11 -1t15 -15l19 -26l13 -11q11 -9 11 -26q0 -14 -9 -35l-20 -45l-26 -67l-26 -79l-16 -58l-11 -51q-1 -4 3 -8q6 -2 9 4l86 149l77 136q38 68 62 93t61 25q16 0 30.5 -6.5t22.5 -17.5q5 -8 7 -24q0 -8 -1 -18t-4 -22l-9 -42l-30 -116l-22 -102
l-7 -48q0 -8 4 -9q7 4 9 7l6 11l114 238q47 96 78 129.5t57 33.5l14 -2q8 -2 16 -8l17 -15l17 -16l19 -15q9 -9 -15 -41q-20 -25 -56 -79l-72 -117l-74 -132l-73 -141l-52 -103q-15 -26 -35 -30l-18 3l-19 10l-14 11l-14 9l-22 12q-12 9 -16.5 26.5t-5.5 27t-1 29.5v38
q3 18 4 26l7 58l6 45q2 15 3 22t5 19q1 6 -6 7q-4 -5 -7 -9q-9 -12 -19 -30l-41 -76l-40 -82l-35 -80q-15 -35 -25.5 -49t-26.5 -15q-11 0 -29 9l-23 12l-22 9q-15 7 -20 13.5t-12 25.5l-4 39l2 28l15 87q5 28 13 71t16 82q15 83 36 161.5t21 89.5l-1 19l-1 17l1 12
q1 4 13.5 10t28.5 9z" />
    <glyph glyph-name="X" unicode="X" horiz-adv-x="505" 
d="M382 536l27 28l48 51q21 22 23 24q18 18 39 36q31 26 60 26h9l6 -3l16 -13l23 -21l19 -17q11 -7 12 -12q3 -9 -4 -17l-21 -17l-22 -15l-17 -15l-207 -191q-12 -12 -12 -25l4 -26q2 -10 4.5 -24t6.5 -31l16 -69l16 -58l12 -43q5 -18 22 -39.5t18 -27.5q0 -9 -5 -14
l-27 -19q-23 -13 -55 -13q-14 0 -29.5 6.5t-29.5 27.5q-9 19 -31 96l-23 92q-6 21 -16 21q-3 -1 -6 -3t-8 -7l-39 -49l-36 -48l-14 -21l-14 -30l-5 -28l2 -20l-3 -12q-3 -9 -22 -15q-12 -3 -18 -4t-19 -1q-33 0 -54 30q-17 29 -19 42q0 31 29 77.5t56 79.5l54 64l51 59
l36 40q11 13 11 29l-3 28l-6 37l-11 67l-8 62l-4 17l-6 17l-4 12l-2 10q0 5 5.5 12.5t24.5 14.5t39 7q26 0 37.5 -6t26.5 -29q12 -19 14 -34l-1 -19l-1 -21v-26q0 -14 4 -27q3 -15 13 -15q6 0 18 12z" />
    <glyph glyph-name="Y" unicode="Y" horiz-adv-x="495" 
d="M202 284q-32 6 -42 20t-10 50v15.5t4 26.5l12 57l16 62l13 47l7 27l1 23l-1 33v12.5t4 17.5q0 9 20 16l23 6l12 1h8q12 0 25 -5q13 -3 24 -14.5t23 -41.5l8 -21q0 -9 -6 -24l-13 -34l-17 -50l-16 -54l-10 -39q-3 -17 8 -17q8 0 24 20l54 69l76 96q37 46 75.5 82t76.5 36
l15 -1q6 0 11 -5l25 -18l27 -20q6 -3 9 -12q2 -12 -22 -36l-91 -88q-31 -30 -61 -63.5t-53 -64.5l-88 -121l-69 -98l-38 -61q-9 -18 -15 -49q0 -27 -3 -39q0 -12 -18 -21t-39 -9q-13 0 -21 4l-14 9l-13 11l-18 14q-10 8 -13 15l-1 15q0 31 26 76l49 82l21 36q6 11 6 17
t-11 10z" />
    <glyph glyph-name="Z" unicode="Z" horiz-adv-x="500" 
d="M221 154l78 10q15 0 23 2l28 2q21 0 36.5 -5t27.5 -19q9 -11 14 -23l4 -25q0 -17 -3.5 -28.5t-10.5 -20.5q-5 -9 -16 -12q-9 -2 -26 5l-23 9l-13 1h-12l-17 -1l-32 -4q-20 -2 -29.5 -4t-34.5 -10q-16 -4 -30.5 -8t-27.5 -9l-34 -13l-29 -4q-14 0 -26 9l-26 30l-22 26
q-8 10 -11 20q-3 23 55.5 102.5t120.5 148.5t123.5 123.5t102.5 85t43 37.5q0 11 -11 10l-40 -7q-13 -2 -20 -4t-21 -7l-47 -18l-44 -18q-10 -3 -16 2l-18 21q-9 13 -17 32q-4 15 -5 18v13q0 9 7 24.5t51 27.5l96 17l73 9l40 2l39 1l40 1q26 0 39.5 -3.5t19.5 -10.5l11 -28
q2 -10 4.5 -17.5t6.5 -15.5l6 -22q3 -9 1 -17q-3 -16 -34 -38l-62 -44l-74 -57q-39 -31 -82 -72l-74 -72l-57 -62l-37 -41l-19 -23q-3 -5 -5 -15q0 -11 16 -11z" />
    <glyph glyph-name="bracketleft" unicode="[" horiz-adv-x="395" 
d="M283 665v-825h124v-33h-230v887h230v-29h-124z" />
    <glyph glyph-name="backslash" unicode="\" horiz-adv-x="650" 
d="M131 789q5 9 16 9q26 0 48 -35l32 -51l74 -114l95 -149l96 -154q59 -95 98 -173q18 -36 29 -60q8 -18 15 -37.5t5 -28.5q-3 -5 -8 -8l-13 -2q-9 0 -23 26l-39 79q-23 48 -60 112q-20 37 -35 62t-39 61l-83 132l-82 130l-65 100q-22 34 -45 59l-20 23q-3 6 4 19z" />
    <glyph glyph-name="bracketright" unicode="]" horiz-adv-x="395" 
d="M154 694h229v-887h-229v33h124v825h-124v29z" />
    <glyph glyph-name="asciicircum" unicode="^" horiz-adv-x="268" 
d="M431 550q-3 -11 -13.5 -18t-23.5 -7q-10 0 -17.5 3.5t-32.5 29.5q-22 25 -30 28l-10 2q-22 0 -66 -30.5t-53 -30.5l-8 2q-24 15 -24 36q0 11 12 28t38 39q13 10 31.5 22.5t42.5 25.5q46 25 71 20q12 -3 29 -32l27 -52l22 -40q8 -14 5 -26z" />
    <glyph glyph-name="underscore" unicode="_" horiz-adv-x="529" 
d="M575 -143h-570v38h570v-38z" />
    <glyph glyph-name="grave" unicode="`" horiz-adv-x="196" 
d="M355 555q2 -7 -1.5 -13t-14.5 -14l-16 -10l-15 -1q-21 3 -68 41q-24 20 -38.5 33t-19.5 20q-11 14 -11 26q0 7 4 14l31 26l34 22q15 4 28 -15l34 -62l30 -37q19 -21 23 -30z" />
    <glyph glyph-name="a" unicode="a" horiz-adv-x="518" 
d="M519 265q8 3 13 -8l11 -19q3 -6 5 -18q0 -10 -14 -45t-61 -98.5t-79.5 -73t-46.5 -9.5q-30 0 -52 19l-12 14l-9 23q-3 15 -12 17q-6 -4 -10 -6q-9 -6 -27 -20l-51 -36q-18 -9 -41 -9q-12 0 -43 8q-33 7 -46 50t-13 71q0 64 33 139.5t75 122.5t83 76t74 29l25 -3
q16 -3 37 -38.5t31 -42.5l22 -9l20 -9q10 -5 15 -16t7 -26q0 -18 -6.5 -36t-21.5 -45l-13 -27l-22 -48l-7 -33q0 -6 4 -12.5t17 -7.5q19 0 39 26l41 57l25 36q4 6 10 7zM217 298q-19 -30 -39.5 -77.5t-20.5 -71.5l3 -15q3 -8 16 -11q14 -3 43.5 23t69.5 100q34 67 34 105
q-3 20 -12 24q-9 5 -25 -4.5t-33.5 -28t-35.5 -44.5z" />
    <glyph glyph-name="b" unicode="b" horiz-adv-x="437" 
d="M283 455q7 5 17 11q16 10 30 16q25 11 46 11q18 0 43 -12.5t37 -40t12 -65.5q0 -40 -11 -87.5t-36 -108.5q-45 -117 -100 -149.5t-91 -32.5q-26 0 -43 9q-3 2 -10.5 7.5t-15.5 13.5l-18 24q-3 6 -5.5 9t-3.5 4q-5 0 -8 -8l-3 -25l-7 -20q-3 -6 -16 -9l-16 -3
q-17 0 -36 18t-25 34t-8 34q0 9 1 15t6 22l18 57l34 94q16 47 28 76q6 14 22 51l58 128l42 85l18 36l7 19q0 23 12 29l22 7l18 3q11 0 21 -5q11 -3 26 -19q13 -16 18 -32q4 -15 -18 -58l-25 -43l-22 -40l-25 -47q0 -5 1 -6.5t6 -1.5zM264 151l15 22l19 38l23 64q13 42 13 63
q0 9 -6 19.5t-23 8.5q-23 -5 -50 -36t-59 -91l-4 -30l-2 -26q0 -18 6.5 -33.5t16.5 -21.5l13 -2q16 0 38 25z" />
    <glyph glyph-name="c" unicode="c" horiz-adv-x="358" 
d="M272 366q-48 -39 -80 -103.5t-32 -107.5v-10q2 -13 8 -22t18 -12l17 -2q30 0 60 27l44 41q14 15 19 15q12 0 14 -12q-6 -61 -30 -98.5t-54 -57.5t-49 -25t-35 -5q-33 0 -66 17t-53.5 52t-20.5 72q0 71 45 168.5t106.5 142t108.5 44.5q17 0 36 -9t31.5 -30.5t15.5 -49.5
q0 -33 -1.5 -46t-6.5 -37q-6 -38 -25 -53q-17 -11 -34 -13l-22 5q-17 6 -17 34q0 12 5 28.5t10 25.5l5 15q0 7 -7 8q-7 0 -10 -2z" />
    <glyph glyph-name="d" unicode="d" horiz-adv-x="528" 
d="M481 668q0 23 18.5 31t33.5 8q10 0 21.5 -3.5t24 -19.5t19.5 -33q2 -6 2 -10q0 -7 -7 -23l-32 -56q-19 -32 -55 -111l-50 -117l-38 -105l-22 -66l-1 -7q0 -12 12 -12q3 1 6.5 2t12.5 7t14 10t15 15q15 15 37 48l24 37q3 5 9 7q7 2 12 -2q5 -2 11 -13l8 -15l3 -15
q0 -29 -43 -97t-81.5 -99t-79.5 -31l-24 3q-13 3 -25 14q-9 10 -20 34q-7 22 -20 23q-2 -2 -4 -3q-6 -5 -13 -12l-41 -38q-28 -22 -61 -22l-23 2q-27 5 -47.5 21.5t-33.5 48t-13 69.5q0 28 4 50.5t16 55.5q20 59 55.5 112t86.5 93.5t100 40.5q28 0 41 -5q14 -3 24 -13.5
t16 -12.5q6 0 12 12l51 100l30 62l10 20zM159 154q2 -10 7 -15l11 -8q9 -3 20 0q8 3 33.5 24.5t58 86.5t32.5 102q0 17 -10 23l-13 4q-11 0 -41 -18q-28 -19 -65.5 -91.5t-32.5 -107.5z" />
    <glyph glyph-name="e" unicode="e" horiz-adv-x="407" 
d="M170 183q-6 0 -9 -9l-2 -23q0 -18 12 -33q11 -11 37 -11q31 0 65 25t69 73l41 56q4 6 12 8q9 0 16 -8l10 -14q5 -14 5 -31q0 -36 -56.5 -102.5t-104 -93t-95.5 -26.5q-38 0 -68.5 17t-51.5 48q-19 32 -19 63v18q0 67 37 156.5t97.5 140t115.5 50.5q13 0 33 -5.5t38.5 -22
t27.5 -45.5q6 -15 6 -33q0 -32 -12.5 -65t-41.5 -67q-27 -34 -67.5 -50t-94.5 -16zM271 373l-20 -17l-26 -28q-7 -8 -13 -16q-1 -2 -13 -20l-6 -27l21 -4q26 0 49.5 26.5t34.5 75.5q5 15 -12 15q-7 0 -15 -5z" />
    <glyph glyph-name="f" unicode="f" horiz-adv-x="336" 
d="M307 473q-3 -5 4 -8h16h24q27 0 39.5 -15.5t12.5 -32.5q0 -8 -5 -21q-3 -14 -12.5 -25t-24.5 -18q-9 -3 -21 2.5t-32 5.5h-21l-18 -6q-8 -1 -20 -24l-28 -67l-33 -91l-21 -74l-9 -52q0 -30 -13.5 -42t-35.5 -12l-17 2q-8 0 -16 6l-31 32q-15 14 -15 37q0 20 9 49l25 73
l32 91l27 70q-18 0 -34 8.5t-21 19.5l-2 19q0 17 5.5 32.5t12 25t11.5 10.5l20 -6l26 -6q16 -2 24.5 7.5t29.5 54.5l7 17q29 69 71.5 115t96.5 46h12q25 0 47.5 -11t38.5 -35q17 -22 24 -48q4 -12 6 -23.5t2 -26.5q0 -21 -9.5 -42t-32.5 -28l-26 -6q-15 0 -32 18.5t-15 31.5
l1 13q0 9 -6 15.5t-17 1.5q-15 -8 -30 -31z" />
    <glyph glyph-name="g" unicode="g" horiz-adv-x="441" 
d="M222 26q2 7 -2 9q-3 3 -8 0l-39 -24q-14 -6 -32 -8q-15 0 -49.5 15.5t-44.5 49.5l-9 44l-1 24q0 60 28 128.5t71 120t91 83.5q21 15 42.5 22t41.5 7q40 0 64 -39l16 -33q9 -17 20 -25l34 -21q12 -6 16 -14l4 -12q0 -12 -15 -42l-16 -36l-120 -338q-34 -93 -65.5 -126
t-61.5 -39l-38 -6q-31 0 -65.5 15.5t-59.5 41.5q-23 26 -40 59.5t-17 60.5l4 19q3 12 12 24q5 5 11 8.5t25 14.5q6 2 10 2q16 0 36 -18q25 -23 26 -35l-4 -22q0 -11 6.5 -25t13.5 -21t20 -10q11 -2 20 2t21 19q8 11 25 52zM203 270q-14 -24 -28 -58q-1 -2 -7 -20.5t-6 -29.5
l3 -14l9 -12l12 -5q10 -3 23 6l35 31q24 23 58 88.5t31 98.5q0 17 -14 24q-8 3 -27.5 -6t-47.5 -43q-11 -13 -22 -29.5t-19 -30.5z" />
    <glyph glyph-name="h" unicode="h" horiz-adv-x="523" 
d="M261 634l10 20l5 15l3 16q3 9 11 13l16 6l22 3q10 0 21.5 -3.5t23 -18.5t19.5 -34q1 -4 1 -11q0 -8 -2 -12q-5 -13 -37 -67q-11 -21 -32 -62q-31 -63 -39 -79q-2 -4 -1 -8l7 -2q4 2 6 4q7 5 15 15q15 18 43 36.5t56 18.5q12 0 19.5 -1.5t24 -17.5t25.5 -34t9 -34
q0 -21 -13 -47l-22 -46l-30 -60l-27 -62q-8 -24 -5 -36q5 -10 18 -9q21 3 45 36l36 51l17 25q4 5 11 8q14 3 21 -15l7 -23q0 -8 -9.5 -37t-66.5 -100t-86 -78l-36 -6q-14 0 -20 1.5t-17 6.5q-19 8 -36 32t-17 64q0 29 12 67l33 87l8 17l6 17q2 6 -2 11q-10 10 -39 -14
l-38 -40l-30 -43l-24 -42l-17 -37l-10 -31l-7 -42q-3 -26 -8 -33.5t-18.5 -13t-27.5 -5.5q-10 0 -14 2l-18 16l-23 22q-10 10 -10 35q0 9 0.5 21t8.5 37.5t39 105.5q26 65 43 106q9 20 31 69q19 42 46.5 98.5t62.5 121.5z" />
    <glyph glyph-name="i" unicode="i" horiz-adv-x="291" 
d="M239 641l14 3q7 0 21 -10l34 -27q28 -19 28 -47l-3 -17q-3 -12 -9.5 -21.5t-24.5 -17.5q-9 -6 -21 -6t-26 9l-21 18l-22 16q-22 16 -22 39q0 20 14 37t38 24zM157 179l-3 -22q0 -18 8 -22l13 -1q8 0 21 14l29 34l25 31l22 31q7 12 11 13q7 0 10 -1l10 -13l7 -16
q2 -8 2 -12q0 -26 -25 -66q-30 -50 -54 -78t-58 -53q-35 -22 -64 -22q-38 0 -56 27q-6 11 -11.5 23.5t-8.5 24.5l-4 38q0 38 12 84.5t25 77.5l26 62l24 55l16 34l6 19q0 9 3.5 15.5t12.5 11.5l19 6l18 3q11 0 21 -5q12 -3 24.5 -18.5t18.5 -31.5q5 -16 -11 -44l-40 -73
q-23 -41 -49 -126z" />
    <glyph glyph-name="j" unicode="j" horiz-adv-x="227" 
d="M243 641l13 3q6 0 22 -10l34 -27q27 -18 27 -48l-3 -19q-1 -8 -8 -18t-25 -18q-9 -6 -21 -6t-26 9l-21 18l-22 16q-22 16 -22 39q0 20 14 37t38 24zM134 403l10 21l5 17q0 9 3.5 16t18 13.5t30.5 6.5q11 0 21 -5q12 -3 25 -18t19 -32q3 -13 -17 -51q-19 -33 -48.5 -107.5
t-58.5 -173.5l-50 -176q-21 -78 -44.5 -111t-64 -44.5t-61.5 -11.5q-25 0 -45.5 6.5t-42 24t-33 47.5t-11.5 57v12q3 32 14.5 48t29.5 26q8 4 15 6t17 2q11 0 21.5 -5.5t17.5 -15.5t9 -26v-13l-6 -15q-1 -3 -1 -6.5v-4.5q0 -4 2.5 -11.5t16.5 -7.5q16 0 29 20q10 18 36 105
l39 130q10 34 16.5 53t24.5 65q27 74 63 159z" />
    <glyph glyph-name="k" unicode="k" horiz-adv-x="504" 
d="M253 668l3 17q3 9 13 13l19 6l18 3q10 0 21.5 -3.5t24.5 -20t18 -32.5q4 -15 -15 -52l-33 -58q-13 -23 -42 -88l-30 -69q-3 -6 1 -12q3 -4 10 0l120 93q31 22 66 22q12 0 18 -2q9 0 23 -11t20 -25l5 -21q0 -10 -3.5 -21t-13.5 -27q-7 -15 -25 -19l-38 -6q-25 -6 -40 -17
q-14 -8 -20 -27l-10 -82q0 -23 -1 -40.5t-2 -34.5q0 -8 5.5 -11t14.5 -3q15 3 43 36t46 68l7 15q4 8 15 10q9 0 13 -5l12 -16q6 -11 8 -30q0 -28 -42 -93t-78 -94q-9 -7 -24 -16t-24 -13q-21 -6 -46 -6q-21 0 -33 13q-24 21 -35 48q-9 26 -9 61l2 51l2 41q0 8 -3 11.5
t-10 5.5q-3 -1 -8 -3t-13 -7.5t-19 -19.5q-7 -11 -16 -40l-20 -62q-6 -21 -6 -48l-1 -26q0 -7 -13.5 -17.5t-35.5 -10.5l-18 2q-12 2 -21 11l-26 29q-12 12 -12 37q0 15 2 26.5t9 31.5l18 52l32 92l54 136q30 72 75 159t48 99z" />
    <glyph glyph-name="l" unicode="l" horiz-adv-x="300" 
d="M230 634l9 18l5 16l3 20q3 6 10 9l18 6l22 4q10 0 21.5 -3.5t24.5 -20t18 -32.5q1 -4 1 -11q0 -8 -2 -12l-45 -85q-18 -33 -34.5 -66.5t-33.5 -72.5l-65 -169l-21 -62q-2 -8 -2 -11q0 -14 17 -14q8 0 19 11l27 31l46 62l10 16q4 6 11 7q10 0 27 -24l4 -23q0 -8 -2 -17
t-3 -14q-4 -21 -62.5 -100t-88 -88t-35.5 -9h-8q-14 0 -31 6q-13 6 -28 22t-24 41q-4 12 -6 23.5t-2 26.5q0 42 12 83q6 19 15.5 46.5t22.5 63.5q26 72 59 146t91 176z" />
    <glyph glyph-name="m" unicode="m" horiz-adv-x="710" 
d="M283 243l12 27q5 15 -6 18t-16 1q-9 -3 -15 -9l-14 -16l-27 -41q-29 -47 -51.5 -100t-22.5 -84q0 -19 -6.5 -26t-24.5 -16l-20 -3q-13 0 -22.5 5t-23.5 19q-4 4 -10.5 13t-9.5 14q-3 9 -5 26q0 14 9 47l13 58q3 12 4.5 16.5t9.5 23.5l89 224l7 29q5 7 20 12l21 6h9
q23 0 34 -10l27 -19q15 -9 16 -19l-3 -15l-11 -18q-3 -8 1 -12q3 -3 11 0q19 21 40 41q15 14 29 27q24 21 52 21q9 0 21 -6q11 -4 19.5 -12t18.5 -23l15 -21q3 -5 1 -16l-2 -12q0 -6 4 -9q5 -2 9 2q39 47 65.5 70.5t57.5 20.5q18 -3 28.5 -11.5t27.5 -34.5q5 -8 10.5 -19
t5.5 -22q0 -21 -10 -42l-29 -63l-33 -68l-17 -36q-4 -10 -6 -21.5t-2 -12.5q0 -12 8 -15q12 -4 21 3l15 14l17 21l14 18l41 56q9 13 18 10q26 -12 26 -40q0 -21 -21.5 -68.5t-72.5 -103.5t-104 -56q-21 -3 -42 6t-40 38t-19 66q0 31 11 60q8 25 13.5 38t21.5 49l13 27
q3 12 -5.5 17t-17.5 2t-16 -10l-12 -15l-27 -41l-22 -38l-32 -64l-13 -36l-4 -46q0 -19 -5 -25l-12 -9l-17 -7l-18 -4q-21 0 -41 19q-17 18 -25 33q-3 8 -5 27l3 25l11 40q5 23 18 56q6 18 11 29.5t9 19.5z" />
    <glyph glyph-name="n" unicode="n" horiz-adv-x="523" 
d="M300 268q3 11 -2.5 17t-16.5 6l-10 -3l-12 -6l-16 -18l-35 -53q-30 -49 -49 -95q-17 -46 -17 -77q0 -19 -6.5 -26t-24.5 -16l-20 -3q-13 0 -22.5 5t-23.5 19q-4 4 -10.5 13t-9.5 14q-3 9 -5 26q0 14 9 47l13 58q3 12 4.5 16.5t9.5 23.5l89 224l5 26q3 9 21 15t31 6
q22 0 37 -12l35 -23q6 -5 6 -14l-3 -13l-12 -19q-3 -8 1 -13q4 -3 11 1q39 42 66 66q13 11 27 17t28 6q8 0 20.5 -5t25.5 -18t22.5 -32.5t9.5 -34.5q0 -20 -12 -50l-23 -52l-34 -74l-19 -45q-5 -14 -5 -19v-8q0 -9 7 -13q9 -3 17 0l16 13l18 21l16 22l41 56q10 11 19 10
q26 -11 26 -38q0 -22 -22 -70t-73 -104t-103 -56q-4 -1 -11 -1q-18 0 -35.5 8t-37 37.5t-19.5 65.5q0 37 14 71l24 58l13 29z" />
    <glyph glyph-name="o" unicode="o" horiz-adv-x="377" 
d="M273 484l24 2q17 0 33 -5t31 -19q19 -25 19 -78q0 -14 10 -41q5 -11 8 -24t3 -25q0 -64 -42.5 -147t-94.5 -116.5t-100 -33.5q-15 0 -30.5 3t-32.5 11q-31 15 -50 43q-15 26 -20 52l-2 38q0 66 39.5 150t86.5 121.5t69.5 50t48.5 18.5zM206 288q-19 -26 -39.5 -77
t-16.5 -70q6 -18 21 -21q7 -1 19 3.5t32 22t47 75.5t27 90q0 21 -9.5 27.5t-16.5 6.5q-6 0 -18 -6.5t-23 -20.5z" />
    <glyph glyph-name="p" unicode="p" horiz-adv-x="427" 
d="M127 35q-3 5 -9 0q-4 -4 -13 -33l-22 -75l-17 -62l-5 -29l-2 -23l1 -12l1 -14q0 -9 -6 -17l-21 -14q-12 -5 -29 -7q-27 0 -41.5 21t-21.5 39l-4 26q0 19 4 34l15 51l26 80l38 111q28 76 30 82q15 35 22 51l42 100l22 50q8 18 9 29l4 25q3 12 20 23q20 10 37 10
q10 0 20 -5l18 -10q6 -5 9 -16l3 -22q3 -11 14 -5l38 39q23 23 55 23l17 -2q45 -9 60.5 -45.5t15.5 -74.5q0 -56 -23.5 -127t-59 -123.5t-78.5 -85t-91 -32.5q-27 0 -40.5 6.5t-37.5 33.5zM225 294q-18 -27 -31 -66.5t-13 -62.5v-8l5 -18q3 -12 22 -15q11 0 19.5 3.5
t28.5 24t46.5 86t23.5 92.5q-3 21 -19 28q-15 4 -34 -9t-48 -55z" />
    <glyph glyph-name="q" unicode="q" horiz-adv-x="441" 
d="M221 14l-45 -27q-17 -9 -35 -9q-17 0 -54 14t-47 56q-4 22 -6 36t-2 29q0 63 33 138t78 123.5t87 76t79 27.5h12q24 -3 36 -12t24 -29l15 -31l12 -20q5 -8 31 -23q23 -11 29 -27q5 -13 -7 -39l-22 -49l-24 -54l-28 -74l-29 -87l-24 -82l24 -50q3 -10 -1 -17l-15 -18
l-21 -22l-16 -19l-15 -22l-14 -24l-12 -25q-6 -13 -21 -16q-9 -2 -33.5 6t-33 18.5t-8.5 31.5q0 16 3 35t11 44t16.5 50t18.5 52l14 33q0 5 -1 7q-3 3 -9 -1zM214 262q-7 -12 -14.5 -27t-17.5 -39q-15 -36 -15 -59l2 -16q3 -8 18 -10q22 0 42 19q11 9 21.5 19t20.5 22
q19 21 37 48q15 25 24 52q8 29 8 60q0 9 -3.5 16.5t-9.5 10.5q-3 3 -11 3q-11 0 -24 -8q-16 -8 -39 -37q-24 -27 -39 -54z" />
    <glyph glyph-name="r" unicode="r" horiz-adv-x="359" 
d="M275 398q26 35 51 55t54 20q31 0 50 -34q6 -14 6 -30q0 -19 -5 -34q-3 -17 -15.5 -36t-33.5 -34q-21 -13 -29 -12q-3 2 -5 3q-6 4 -13 11q-13 12 -28 12q-12 0 -27 -11t-32 -31q-32 -38 -47.5 -66t-27.5 -58l-16 -41l-7 -26l-2 -23l1 -26q0 -9 -9 -20q-10 -9 -22.5 -14.5
t-28.5 -7.5q-17 0 -30 10.5t-26 27.5q-10 18 -10 42q0 15 2 28.5t9.5 43.5t29.5 87l40 103l41 95l5 27q1 11 9 17l18 7l17 4l11 2h6q15 0 24.5 -6t14.5 -11q1 -1 12 -13.5t13 -25.5l-3 -14l-7 -17l3 -6z" />
    <glyph glyph-name="s" unicode="s" horiz-adv-x="336" 
d="M257 486l22 2q17 0 30 -5q14 -3 22 -12q5 -6 11 -31l8 -38l10 -40q6 -23 6 -33l-3 -18q-1 -9 -14 -30.5t-24 -27.5l-17 -4q-6 0 -16.5 9.5t-18.5 28.5t-8 32q0 8 5 14l12 15q6 7 4 18q-3 8 -15 10q-18 0 -47 -32q-21 -26 -21 -49l4 -20q3 -13 46 -53.5t49 -56.5t6 -31
q0 -36 -29 -74q-26 -29 -70 -47q-45 -16 -84 -16l-15 1l-27 3q-17 3 -43 18q-23 15 -35 38q-9 23 -9 39q0 22 10.5 36t23 20t30.5 6q10 0 16 -3q6 -1 16 -13l10 -18q3 -6 12.5 -12t22.5 -6q11 0 20 4q23 6 28 27q1 11 -9 23l-42 39q-32 27 -46 52.5t-14 54.5l4 34
q3 28 48.5 72t74.5 56l36 14z" />
    <glyph glyph-name="t" unicode="t" horiz-adv-x="346" 
d="M298 485q-3 -6 4 -7h17l21 -1q17 -3 25 -8q9 -3 15 -15q6 -9 6 -25q0 -17 -9 -35q-9 -15 -19 -25q-8 -6 -21 -8l-14 3l-14 7l-23 3q-23 0 -29.5 -5t-18.5 -26l-25 -55l-28 -73l-16 -45l-2 -12q0 -10 13 -17q6 -3 15 0l24 15q9 7 12 9q11 9 22 20l25 24l32 35q24 27 31 28
l10 -3q5 -3 11 -16t6 -25q0 -13 -3.5 -26t-31.5 -56t-95.5 -97t-119.5 -54q-24 0 -40.5 8.5t-33.5 36.5q-14 28 -14 67q0 41 12.5 82t14.5 47q11 25 15 37l29 73q3 9 -5 14q-12 4 -19 7.5t-13 10.5t-9 17l-3 21q0 26 13 42l10 14l11 4l7 -2q11 -8 29 -8q21 0 27.5 6.5
t17.5 27.5l17 36l12 31l1 17q0 11 8 24q6 15 43 15q15 0 27 -5t23 -20q6 -7 9 -12.5t8 -14.5l4 -29q0 -10 -1 -15t-6 -16z" />
    <glyph glyph-name="u" unicode="u" 
d="M376 415l10 22l4 17q0 8 3.5 14.5t12.5 11.5l20 6l17 3q10 0 21.5 -3.5t24 -19.5t18.5 -32q5 -15 -15 -51l-29 -55l-47 -99l-14 -33q-6 -18 -6 -34q0 -17 11 -21q11 -3 21 3l15 15l24 34l51 67q2 3 9 5q3 -2 5 -3q7 -5 13 -11q13 -15 13 -43q0 -30 -49 -99t-80.5 -87
t-45 -21.5t-18.5 -4.5t-17 -1q-17 0 -38 9q-17 9 -32 35l-8 20q-5 15 -13 15q-2 -1 -3 -2q-9 -7 -21 -20q-19 -20 -46 -37.5t-64 -17.5q-46 0 -70 42q-11 20 -17 41.5t-6 44.5q0 48 15.5 98t42.5 98l48 96l10 20l5 17q0 8 3.5 15.5t14.5 11.5l19 6l15 2q10 0 21.5 -3.5
t23.5 -19t20 -32.5q2 -6 2 -10q0 -7 -7 -23l-34 -61q-24 -43 -45 -96t-21 -84q0 -7 5 -12.5t13 -5.5q11 0 31.5 12t48.5 52.5t48 75.5l36 69z" />
    <glyph glyph-name="v" unicode="v" horiz-adv-x="454" 
d="M169 245l-12 -42l-2 -15q0 -12 4 -18.5t17 -7.5q21 0 69 72t48 103l-1 21q0 31 13.5 66t36.5 49.5t40 14.5q8 0 24.5 -6.5t22.5 -34.5t6 -42q0 -24 -7 -44l-22 -53q-3 -6 2 -9l16 -1q9 0 13 2l20 10l22 14l10 8q8 5 14 4q13 -3 13 -40l-3 -23l-13 -26q-8 -15 -36 -32
q-28 -14 -57 -14q-39 0 -46 -3.5t-35 -43.5l-14 -20q-47 -64 -90.5 -99t-91.5 -35q-22 0 -41 11q-19 13 -39 47.5t-20 92.5q0 19 3 42t9 46t12.5 44t17.5 47l21 50l16 33l15 29l6 18q0 9 3.5 16.5t10.5 11.5l17 6l22 3q11 0 21 -5q13 -3 24 -20q11 -13 19 -30q3 -12 -12 -43
l-31 -59q-19 -42 -35 -95z" />
    <glyph glyph-name="w" unicode="w" horiz-adv-x="575" 
d="M169 205q10 19 18.5 35.5t19.5 34.5l48 80l57 85q31 43 58 43q12 0 30.5 -12t29.5 -28q13 -16 13 -33q0 -13 -9 -43l-9 -29l-20 -81l-5 -31l-3 -29q0 -8 5 -11q7 0 11 2q22 17 40.5 55.5t30.5 75.5l13 69l3 34l-2 23l3 14q3 9 11.5 15t29.5 9q22 0 33.5 -5t28.5 -25
l21 -27l4 -18l-4 -16l-5 -16l-3 -14l-8 -45q-24 -114 -87.5 -208t-105.5 -106l-45 -10q-18 0 -32 10l-31 27q-17 18 -23.5 33.5t-6.5 35.5t6 49l9 41l4 17q2 9 -7 9q-6 0 -10 -8l-14 -25l-48 -88l-32 -64q-20 -33 -41 -33q-12 0 -45 18q-30 18 -44 32q-10 14 -20 43
q-6 26 -6 58q0 30 2 51t9 51q11 55 25 94l21 62l7 21l3 23l4 21q3 5 14 10l22 8l19 3q15 0 25 -6.5t28.5 -29t18.5 -34.5q0 -8 -9 -26l-16 -30l-22 -57l-16 -52q-7 -28 -7 -49q3 -4 5 -5q5 1 6 2z" />
    <glyph glyph-name="x" unicode="x" horiz-adv-x="467" 
d="M273 381q6 0 13 7l12 13q41 38 76 60t60 22l17 -4q10 -3 23.5 -18t18.5 -27l4 -14q0 -12 -7 -25.5t-19 -27.5l-16 -17q-5 -3 -16 -3l-16 -1q-7 0 -28 -10.5t-65 -45.5t-44 -55q-1 -7 -1 -19q0 -17 5.5 -39.5t16.5 -33t27 -11.5l16 3q10 3 22.5 12t17.5 13t15 14l27 26
l12 10q5 5 13 5q6 -1 10 -14l6 -21l2 -14v-6q0 -15 -10 -32q-24 -46 -69.5 -84t-70.5 -42l-34 -4q-20 0 -38 5.5t-34.5 23t-24.5 38.5q-5 18 -10 58q0 15 -9 15q-8 0 -20 -15l-22 -38q-12 -21 -12 -35q0 -12 -2 -18q0 -6 -5 -13t-21 -13t-30 -6l-14 2q-7 3 -28 24.5
t-24 31.5l-3 17q0 27 29.5 69t63.5 75l52 50q19 19 19 37l-4 30l-7 43l-2 12q-3 18 -11 31t-8 22q0 5 6 15t21.5 19.5t35.5 9.5q20 3 34 -8l34 -28q5 -5 6 -17l1 -17l1 -24q0 -13 8 -13z" />
    <glyph glyph-name="y" unicode="y" horiz-adv-x="400" 
d="M216 220l39 65l43 69l40 62q5 8 8 27l3 23q0 5 13 14q6 4 14.5 6t23.5 2l20 -4q15 -3 25 -15.5t19 -32.5l8 -23q0 -6 -17 -32l-37 -59l-51 -86l-56 -96l-50 -93l-45 -85l-29 -64q-12 -27 -12 -52l2 -32v-12q0 -8 -4 -13.5t-18 -14.5q-6 -5 -12 -7t-9 -4l-19 -3l-18 4
q-10 3 -29.5 20t-25.5 31l-5 22q0 26 15 65l36 77l20 44q-24 18 -35.5 48.5t-11.5 67.5v22.5t2 20.5l9 50l28 137l7 28l5 31l-1 24l3 15q3 6 15 12l23 11l23 4q16 0 30 -11q15 -9 27 -32.5t10 -40.5l-10 -28l-11 -31l-11 -44l-16 -80q-3 -16 7 -17q8 0 15 10z" />
    <glyph glyph-name="z" unicode="z" horiz-adv-x="395" 
d="M213 133q16 0 25 2l28 2q28 0 45 -6.5t31 -24t14 -37.5q0 -13 -7 -29t-13.5 -23.5t-18.5 -7.5q-7 0 -11 1t-20 7q-21 9 -46 9q-39 0 -76 -5.5t-66 -13.5l-41 -7q-9 0 -20 9q-8 10 -21 34q-12 26 -12 44q0 20 27 53q27 30 64 64l79 72l62 56q18 17 20 24q0 6 -5 6l-30 -1
l-38 -5l-28 -2h-11h-8q-5 2 -7 2q-8 3 -16 11q-12 9 -12 35q0 15 8.5 30t24.5 28q13 9 23 10l17 -2l18 -2h17l98 7h22l25 1q31 0 43 -3q12 -1 17 -7.5t15 -42.5l10 -46q0 -21 -27 -45l-57 -48l-79 -71l-66 -59q-6 -6 -6 -12q0 -9 9 -7z" />
    <glyph glyph-name="braceleft" unicode="{" horiz-adv-x="518" 
d="M529 710l-63 -15l-26 -13q-43 -22 -55 -58q-10 -37 -10 -89v-71q0 -108 -45.5 -147t-163.5 -61q32 -3 56 -7t38 -10q29 -9 62 -35q32 -23 43.5 -70.5t11.5 -102.5v-41q0 -89 29.5 -130.5t125.5 -53.5v-38q-53 0 -89.5 6.5t-83 34t-61.5 69.5q-13 46 -13 114v70
q0 90 -36 122.5t-130 47.5v50l65 12q25 6 55 29q29 20 37.5 50t8.5 82v80q0 62 5 85q4 26 36.5 62t91.5 51.5t111 15.5v-39z" />
    <glyph glyph-name="bar" unicode="|" horiz-adv-x="268" 
d="M235 -193h-47v887h47v-887z" />
    <glyph glyph-name="braceright" unicode="}" horiz-adv-x="518" 
d="M129 749q55 0 112 -15.5t88.5 -49.5t37.5 -65t6 -84v-80q0 -55 6.5 -82t37.5 -49q28 -19 58 -29q23 -7 64 -13v-50q-93 -12 -129.5 -45.5t-36.5 -124.5v-70q0 -76 -12.5 -115t-61.5 -67q-22 -13 -42.5 -21.5t-40 -12.5t-41.5 -6t-49 -2v38q93 11 124 53q15 21 23 53t8 78
v41q0 32 2 54.5t8 48.5q10 44 45.5 70.5t72.5 36.5q39 9 83 15q-119 21 -164 59t-45 149v71q0 32 -2 52t-8 39q-9 31 -55 56q-18 12 -45 18l-44 10v39z" />
    <glyph glyph-name="asciitilde" unicode="~" horiz-adv-x="320" 
d="M324 701l56 -13q14 -3 38.5 -8t32.5 -5q20 0 31 4l18 7l18 10q5 3 8.5 -0.5t1.5 -9.5l-8 -13l-21 -32q-15 -22 -40 -40.5t-59 -24.5q-19 -3 -60 13q-39 18 -56 18q-19 0 -26 -2q-8 0 -22 -7l-32 -16q-5 -3 -8.5 0.5t-1.5 9.5l6 13l18 26q15 21 48 45.5t58 24.5z" />
    <glyph glyph-name="c128" horiz-adv-x="581" 
d="M671 535q0 35 -10 71t-31 56q-20 20 -39.5 27.5t-40.5 7.5l-20 -2q-115 -24 -236 -174q-122 -151 -137 -226t-15 -105q0 -40 13 -79.5t40 -66.5q12 -14 27.5 -23.5t30.5 -15t29 -8t24 -1.5q13 0 31.5 3t33.5 6q49 11 123 67q76 58 91 95t15 44q0 11 -12 26q-11 17 -28 26
t-30 9q-15 -1 -27 -10l-42 -44l-44 -41l-34 -25l-34 -21q-13 -7 -30 -7l-18 4q-17 9 -21.5 21.5t-4.5 29.5q0 60 62 166q64 107 100 140q42 39 69.5 59t37.5 20q14 0 14 -18q-1 -8 -4.5 -21t-9.5 -32q-12 -36 -12 -44v-9q0 -13 2 -22.5t6 -17.5q9 -17 22 -20q15 -6 26 -6
l29 3q20 6 29 26q6 11 10 27t8 38q2 12 3.5 19.5t2 14t1 14t0.5 19.5zM481 428q2 6 2 13q0 24 -33.5 33.5t-108.5 9.5h-10t-18 1t-18 1h-12q-10 0 -22 -1.5t-26 -3.5t-35 -6.5t-50 -12.5q-29 -7 -49 -14t-33 -14q-21 -11 -21 -26q0 -2 8 -26q7 -22 24 -22q9 0 36 11
q33 13 62 21q58 14 82 14q10 0 22 -1t27 -3q12 -2 45 -6q7 0 21 -3q5 -1 12 -1h17q37 0 55 10t23 26zM465 300q2 6 2 13q0 24 -33.5 33.5t-108.5 9.5h-10t-18 1t-18 1h-12q-10 0 -22 -1.5t-26 -3.5t-35 -6.5t-50 -12.5q-29 -7 -49 -14t-33 -14q-21 -11 -21 -26q0 -2 8 -26
q7 -22 24 -22q9 0 37 11q36 14 61 21q58 14 82 14q10 0 22 -1t27 -3q12 -2 45 -6q7 0 21 -3q5 -1 12 -1h17q37 0 55 10t23 26zM481 428q-5 -16 -22.5 -26t-53.5 -10q-18 0 -37.5 2t-39 5t-37 5t-32.5 2q-24 0 -82 -14q-8 -2 -26.5 -8.5t-46.5 -17.5q-17 -6 -25 -6
q-16 0 -25 24q-1 4 -4 11.5t-3 12.5q0 14 24 27t86 29q31 8 51.5 12.5t30.5 6.5q19 3 44 3q7 0 25 -1t33 -1q142 0 142 -43q0 -7 -2 -13z" />
    <glyph glyph-name="c128" unicode="&#x20ac;" horiz-adv-x="581" 
d="M671 535q0 35 -10 71t-31 56q-20 20 -39.5 27.5t-40.5 7.5l-20 -2q-115 -24 -236 -174q-122 -151 -137 -226t-15 -105q0 -40 13 -79.5t40 -66.5q12 -14 27.5 -23.5t30.5 -15t29 -8t24 -1.5q13 0 31.5 3t33.5 6q49 11 123 67q76 58 91 95t15 44q0 11 -12 26q-11 17 -28 26
t-30 9q-15 -1 -27 -10l-42 -44l-44 -41l-34 -25l-34 -21q-13 -7 -30 -7l-18 4q-17 9 -21.5 21.5t-4.5 29.5q0 60 62 166q64 107 100 140q42 39 69.5 59t37.5 20q14 0 14 -18q-1 -8 -4.5 -21t-9.5 -32q-12 -36 -12 -44v-9q0 -13 2 -22.5t6 -17.5q9 -17 22 -20q15 -6 26 -6
l29 3q20 6 29 26q6 11 10 27t8 38q2 12 3.5 19.5t2 14t1 14t0.5 19.5zM481 428q2 6 2 13q0 24 -33.5 33.5t-108.5 9.5h-10t-18 1t-18 1h-12q-10 0 -22 -1.5t-26 -3.5t-35 -6.5t-50 -12.5q-29 -7 -49 -14t-33 -14q-21 -11 -21 -26q0 -2 8 -26q7 -22 24 -22q9 0 36 11
q33 13 62 21q58 14 82 14q10 0 22 -1t27 -3q12 -2 45 -6q7 0 21 -3q5 -1 12 -1h17q37 0 55 10t23 26zM465 300q2 6 2 13q0 24 -33.5 33.5t-108.5 9.5h-10t-18 1t-18 1h-12q-10 0 -22 -1.5t-26 -3.5t-35 -6.5t-50 -12.5q-29 -7 -49 -14t-33 -14q-21 -11 -21 -26q0 -2 8 -26
q7 -22 24 -22q9 0 37 11q36 14 61 21q58 14 82 14q10 0 22 -1t27 -3q12 -2 45 -6q7 0 21 -3q5 -1 12 -1h17q37 0 55 10t23 26zM481 428q-5 -16 -22.5 -26t-53.5 -10q-18 0 -37.5 2t-39 5t-37 5t-32.5 2q-24 0 -82 -14q-8 -2 -26.5 -8.5t-46.5 -17.5q-17 -6 -25 -6
q-16 0 -25 24q-1 4 -4 11.5t-3 12.5q0 14 24 27t86 29q31 8 51.5 12.5t30.5 6.5q19 3 44 3q7 0 25 -1t33 -1q142 0 142 -43q0 -7 -2 -13z" />
    <glyph glyph-name="OE" horiz-adv-x="863" 
d="M515 648q4 11 31 20l46 10l142 22l43 6l31 2q25 0 37 -4q14 -3 24.5 -14.5t18 -36.5t7.5 -44l-4 -23q-3 -15 -16 -18l-19 9l-21 5l-14 1l-13 -1h-16q-18 0 -42 -4l-50 -9q-24 -6 -51 -49q-15 -23 -24 -40t-15 -31l-11 -31q0 -7 16 -8l51 8l32 3q21 0 36 -8.5t24.5 -34
t9.5 -42.5q0 -31 -12 -39l-17 -7l-15 6l-23 2l-46 -2q-24 0 -41.5 -2t-44 -9.5t-33 -14.5t-18.5 -36l-22 -61l-4 -19q0 -7 6.5 -10.5t16.5 -3.5l12 1l31 7l35 8l28 5l29 3q20 0 31 -3.5t22 -15.5l15 -22q6 -10 7 -23l2 -15v-6l-3 -21q-3 -12 -15 -15q-15 4 -29 7t-24 3
q-17 0 -59 -12l-77 -21l-38 -13q-27 -9 -43 -9t-32.5 11t-48.5 42l-9 11q-11 -9 -25.5 -19.5t-24 -16.5t-23 -12t-29.5 -12q-15 -4 -28 -6t-30 -2q-20 0 -41 6t-51 27q-26 20 -42 68t-16 96q0 102 89 243t158.5 187t95.5 59l39 18l24 4q19 0 34 -11q17 -10 24 -21
q8 -9 12 -22zM210 320q-13 -27 -27.5 -73t-14.5 -73q0 -22 9.5 -36t37.5 -14q53 6 117 93q31 42 53.5 76t34.5 58t21.5 47.5t17.5 46.5q15 42 15 73q0 18 -9 33t-32 15q-50 0 -119 -84q-32 -40 -57.5 -80t-46.5 -82z" />
    <glyph glyph-name="OE" unicode="&#x152;" horiz-adv-x="863" 
d="M515 648q4 11 31 20l46 10l142 22l43 6l31 2q25 0 37 -4q14 -3 24.5 -14.5t18 -36.5t7.5 -44l-4 -23q-3 -15 -16 -18l-19 9l-21 5l-14 1l-13 -1h-16q-18 0 -42 -4l-50 -9q-24 -6 -51 -49q-15 -23 -24 -40t-15 -31l-11 -31q0 -7 16 -8l51 8l32 3q21 0 36 -8.5t24.5 -34
t9.5 -42.5q0 -31 -12 -39l-17 -7l-15 6l-23 2l-46 -2q-24 0 -41.5 -2t-44 -9.5t-33 -14.5t-18.5 -36l-22 -61l-4 -19q0 -7 6.5 -10.5t16.5 -3.5l12 1l31 7l35 8l28 5l29 3q20 0 31 -3.5t22 -15.5l15 -22q6 -10 7 -23l2 -15v-6l-3 -21q-3 -12 -15 -15q-15 4 -29 7t-24 3
q-17 0 -59 -12l-77 -21l-38 -13q-27 -9 -43 -9t-32.5 11t-48.5 42l-9 11q-11 -9 -25.5 -19.5t-24 -16.5t-23 -12t-29.5 -12q-15 -4 -28 -6t-30 -2q-20 0 -41 6t-51 27q-26 20 -42 68t-16 96q0 102 89 243t158.5 187t95.5 59l39 18l24 4q19 0 34 -11q17 -10 24 -21
q8 -9 12 -22zM210 320q-13 -27 -27.5 -73t-14.5 -73q0 -22 9.5 -36t37.5 -14q53 6 117 93q31 42 53.5 76t34.5 58t21.5 47.5t17.5 46.5q15 42 15 73q0 18 -9 33t-32 15q-50 0 -119 -84q-32 -40 -57.5 -80t-46.5 -82z" />
    <glyph glyph-name="quoteleft" horiz-adv-x="218" 
d="M350 701q6 0 10 -4q3 -5 -2 -9q-40 -40 -60 -73.5t-20 -50.5l3 -16q3 -8 21 -22q18 -12 21 -33q2 -13 -3 -29t-20 -29q-16 -16 -46 -16l-20 3q-10 4 -21 14l-21 25l-14 15l-9 18l-3 21q0 28 18.5 61.5t46 61.5t55.5 40q14 6 34.5 13t29.5 10z" />
    <glyph glyph-name="quoteleft" unicode="&#x2018;" horiz-adv-x="218" 
d="M350 701q6 0 10 -4q3 -5 -2 -9q-40 -40 -60 -73.5t-20 -50.5l3 -16q3 -8 21 -22q18 -12 21 -33q2 -13 -3 -29t-20 -29q-16 -16 -46 -16l-20 3q-10 4 -21 14l-21 25l-14 15l-9 18l-3 21q0 28 18.5 61.5t46 61.5t55.5 40q14 6 34.5 13t29.5 10z" />
    <glyph glyph-name="quoteright" horiz-adv-x="218" 
d="M175 419q-10 -1 -11 8q2 3 3 4q6 8 9 11l41 47q30 35 30 65v6l-5 12q-2 9 -20 21.5t-21 33.5q-1 11 3 29q6 16 21.5 30.5t45.5 14.5l22 -4q16 -3 33 -29l30 -41l3 -21q0 -31 -18.5 -63.5t-46 -60t-56.5 -41.5z" />
    <glyph glyph-name="quoteright" unicode="&#x2019;" horiz-adv-x="218" 
d="M175 419q-10 -1 -11 8q2 3 3 4q6 8 9 11l41 47q30 35 30 65v6l-5 12q-2 9 -20 21.5t-21 33.5q-1 11 3 29q6 16 21.5 30.5t45.5 14.5l22 -4q16 -3 33 -29l30 -41l3 -21q0 -31 -18.5 -63.5t-46 -60t-56.5 -41.5z" />
    <glyph glyph-name="quotedblleft" horiz-adv-x="446" 
d="M341 701q10 1 11 -7q-2 -4 -5 -7.5t-13 -14.5l-41 -50q-24 -30 -24 -56v-6l3 -10q1 -5 20 -22t23 -35q2 -13 -3 -29t-20 -29q-16 -16 -46 -16q-12 0 -19.5 2.5t-19.5 12.5l-21 22l-17 20l-9 18l-3 21q0 28 18.5 61.5t46 61.5t55.5 40q14 6 34.5 13t29.5 10zM587 701
q9 0 10 -7q-2 -4 -5 -7.5t-13 -14.5l-41 -50q-24 -30 -24 -56v-6l3 -10q1 -5 20 -22t23 -35q2 -13 -3 -29t-20 -29q-16 -16 -46 -16q-12 0 -19.5 2.5t-19.5 12.5l-23 26l-24 33l-3 22q0 28 18.5 61.5t46 61.5t55.5 40q7 3 27 10t38 13z" />
    <glyph glyph-name="quotedblleft" unicode="&#x201c;" horiz-adv-x="446" 
d="M341 701q10 1 11 -7q-2 -4 -5 -7.5t-13 -14.5l-41 -50q-24 -30 -24 -56v-6l3 -10q1 -5 20 -22t23 -35q2 -13 -3 -29t-20 -29q-16 -16 -46 -16q-12 0 -19.5 2.5t-19.5 12.5l-21 22l-17 20l-9 18l-3 21q0 28 18.5 61.5t46 61.5t55.5 40q14 6 34.5 13t29.5 10zM587 701
q9 0 10 -7q-2 -4 -5 -7.5t-13 -14.5l-41 -50q-24 -30 -24 -56v-6l3 -10q1 -5 20 -22t23 -35q2 -13 -3 -29t-20 -29q-16 -16 -46 -16q-12 0 -19.5 2.5t-19.5 12.5l-23 26l-24 33l-3 22q0 28 18.5 61.5t46 61.5t55.5 40q7 3 27 10t38 13z" />
    <glyph glyph-name="quotedblright" horiz-adv-x="446" 
d="M416 419q-10 -1 -11 8l4 6t12 12q14 14 40.5 49t26.5 60v6l-4 10q0 6 -20 22q-18 17 -20 28t-2 19q0 9 4 21t20 26.5t46 14.5l18 -2q18 -6 35 -29l24 -30q5 -5 8 -14.5t3 -20.5q0 -28 -18.5 -61.5t-46 -61t-56.5 -41.5zM171 419q-10 -1 -11 8l4 6t12 12q14 14 40.5 49
t26.5 60v6l-4 10q0 6 -19 22t-23 35q-1 14 3 30q6 14 19 29q18 15 48 15l18 -2q18 -6 35 -29l24 -30q5 -5 8 -14.5t3 -20.5q0 -28 -18.5 -61.5t-46 -61t-56.5 -41.5z" />
    <glyph glyph-name="quotedblright" unicode="&#x201d;" horiz-adv-x="446" 
d="M416 419q-10 -1 -11 8l4 6t12 12q14 14 40.5 49t26.5 60v6l-4 10q0 6 -20 22q-18 17 -20 28t-2 19q0 9 4 21t20 26.5t46 14.5l18 -2q18 -6 35 -29l24 -30q5 -5 8 -14.5t3 -20.5q0 -28 -18.5 -61.5t-46 -61t-56.5 -41.5zM171 419q-10 -1 -11 8l4 6t12 12q14 14 40.5 49
t26.5 60v6l-4 10q0 6 -19 22t-23 35q-1 14 3 30q6 14 19 29q18 15 48 15l18 -2q18 -6 35 -29l24 -30q5 -5 8 -14.5t3 -20.5q0 -28 -18.5 -61.5t-46 -61t-56.5 -41.5z" />
    <glyph glyph-name="bullet" horiz-adv-x="196" 
d="M113 386q9 3 23 5q21 0 31 -11l29 -35q18 -23 20 -40l-6 -32q-6 -24 -27.5 -33.5t-32.5 -9.5q-22 0 -33 14l-39 46q-12 15 -12 44q0 17 12.5 30t34.5 22z" />
    <glyph glyph-name="bullet" unicode="&#x2022;" horiz-adv-x="196" 
d="M113 386q9 3 23 5q21 0 31 -11l29 -35q18 -23 20 -40l-6 -32q-6 -24 -27.5 -33.5t-32.5 -9.5q-22 0 -33 14l-39 46q-12 15 -12 44q0 17 12.5 30t34.5 22z" />
    <glyph glyph-name="endash" horiz-adv-x="718" 
d="M683 141l-80 17l-62 4q-82 0 -187 -9q-43 0 -80.5 -5t-73.5 -12l-68 -11l-28 -3q-24 0 -30 10l-18 46q-12 35 -10 40q7 21 44 31q17 4 44.5 8t40.5 6l168 12l177 7q63 0 101.5 -5.5t51.5 -24.5t18 -44l3 -54q0 -14 -11 -13z" />
    <glyph glyph-name="endash" unicode="&#x2013;" horiz-adv-x="718" 
d="M683 141l-80 17l-62 4q-82 0 -187 -9q-43 0 -80.5 -5t-73.5 -12l-68 -11l-28 -3q-24 0 -30 10l-18 46q-12 35 -10 40q7 21 44 31q17 4 44.5 8t40.5 6l168 12l177 7q63 0 101.5 -5.5t51.5 -24.5t18 -44l3 -54q0 -14 -11 -13z" />
    <glyph glyph-name="emdash" horiz-adv-x="811" 
d="M784 141l-80 17l-61 4q-20 0 -143 -6q-62 -3 -109 -3q-75 0 -118.5 -4t-82.5 -12l-66 -12l-31 -3q-23 0 -32 13l-17 46l-9 37q7 21 44 31q18 5 33 7.5t59.5 7t108 8t105.5 3.5l236 7q63 0 102 -6q39 -4 52.5 -24.5t16.5 -44.5l3 -53q0 -14 -11 -13z" />
    <glyph glyph-name="emdash" unicode="&#x2014;" horiz-adv-x="811" 
d="M784 141l-80 17l-61 4q-20 0 -143 -6q-62 -3 -109 -3q-75 0 -118.5 -4t-82.5 -12l-66 -12l-31 -3q-23 0 -32 13l-17 46l-9 37q7 21 44 31q18 5 33 7.5t59.5 7t108 8t105.5 3.5l236 7q63 0 102 -6q39 -4 52.5 -24.5t16.5 -44.5l3 -53q0 -14 -11 -13z" />
    <glyph glyph-name="oe" horiz-adv-x="637" 
d="M290 58q-9 -10 -20 -18l-36 -24q-26 -16 -72 -16q-30 0 -61 14.5t-50 43.5q-15 28 -20 53l-2 37q0 65 39 148.5t85 120.5q11 9 32.5 25.5t38.5 25.5q27 15 43 18l31 4q17 0 34 -5.5t28 -19.5q11 -11 17 -45l25 24q57 48 112 48q12 0 48 -9q34 -7 46 -42q5 -16 8 -29
t3 -24q0 -31 -13 -66q-5 -14 -16 -33.5t-25 -35.5q-26 -33 -67 -50q-40 -14 -95 -14q-5 0 -8 -15l-2 -18q0 -16 9 -31l14 -10q1 0 8 -1t19 -1q40 0 76 33q31 29 86 102l11 19q4 6 12 8q8 0 14.5 -5.5t12 -17t5.5 -33.5q0 -37 -57.5 -101.5t-104 -90.5t-96.5 -26
q-37 0 -66.5 15.5t-45.5 41.5zM206 292q-19 -26 -39.5 -77t-16.5 -70q6 -17 21 -22q10 -2 18.5 2t31 24t49 77t26.5 89q0 12 -5 18q-3 8 -10 12l-10 4q-9 0 -19 -7q-17 -9 -46 -50zM504 379l-17 -15l-26 -28q-18 -20 -30 -41t-5 -24l21 -4q27 0 50.5 26t35.5 76q3 14 -14 14
q-8 0 -15 -4z" />
    <glyph glyph-name="oe" unicode="&#x153;" horiz-adv-x="637" 
d="M290 58q-9 -10 -20 -18l-36 -24q-26 -16 -72 -16q-30 0 -61 14.5t-50 43.5q-15 28 -20 53l-2 37q0 65 39 148.5t85 120.5q11 9 32.5 25.5t38.5 25.5q27 15 43 18l31 4q17 0 34 -5.5t28 -19.5q11 -11 17 -45l25 24q57 48 112 48q12 0 48 -9q34 -7 46 -42q5 -16 8 -29
t3 -24q0 -31 -13 -66q-5 -14 -16 -33.5t-25 -35.5q-26 -33 -67 -50q-40 -14 -95 -14q-5 0 -8 -15l-2 -18q0 -16 9 -31l14 -10q1 0 8 -1t19 -1q40 0 76 33q31 29 86 102l11 19q4 6 12 8q8 0 14.5 -5.5t12 -17t5.5 -33.5q0 -37 -57.5 -101.5t-104 -90.5t-96.5 -26
q-37 0 -66.5 15.5t-45.5 41.5zM206 292q-19 -26 -39.5 -77t-16.5 -70q6 -17 21 -22q10 -2 18.5 2t31 24t49 77t26.5 89q0 12 -5 18q-3 8 -10 12l-10 4q-9 0 -19 -7q-17 -9 -46 -50zM504 379l-17 -15l-26 -28q-18 -20 -30 -41t-5 -24l21 -4q27 0 50.5 26t35.5 76q3 14 -14 14
q-8 0 -15 -4z" />
    <glyph glyph-name="Ydieresis" horiz-adv-x="495" 
d="M202 284q-32 6 -42 20t-10 50v15.5t4 26.5l12 57l16 62l13 47l7 27l1 23l-1 33v12.5t4 17.5q0 9 20 16l23 6l12 1h8q12 0 25 -5q13 -3 24 -14.5t23 -41.5l8 -21q0 -9 -6 -24l-13 -34l-17 -50l-16 -54l-10 -39q-3 -17 8 -17q8 0 24 20l54 69l76 96q37 46 75.5 82t76.5 36
l15 -1q6 0 11 -5l25 -18l27 -20q6 -3 9 -12q2 -12 -22 -36l-91 -88q-31 -30 -61 -63.5t-53 -64.5l-88 -121l-69 -98l-38 -61q-9 -18 -15 -49q0 -27 -3 -39q0 -12 -18 -21t-39 -9q-13 0 -21 4l-14 9l-13 11l-18 14q-10 8 -13 15l-1 15q0 31 26 76l49 82l21 36q6 11 6 17
t-11 10zM453 750q-5 -2 -11.5 1t-17.5 17q-5 7 -7 13.5t-2 12.5q0 21 41 71q20 24 33 38.5t20 19.5q16 11 27 11q7 0 13 -5q5 -2 25 -29t24 -36q3 -8 -0.5 -14t-15.5 -14l-61 -35q-13 -7 -36 -27.5t-32 -23.5z" />
    <glyph glyph-name="Ydieresis" unicode="&#x178;" horiz-adv-x="495" 
d="M202 284q-32 6 -42 20t-10 50v15.5t4 26.5l12 57l16 62l13 47l7 27l1 23l-1 33v12.5t4 17.5q0 9 20 16l23 6l12 1h8q12 0 25 -5q13 -3 24 -14.5t23 -41.5l8 -21q0 -9 -6 -24l-13 -34l-17 -50l-16 -54l-10 -39q-3 -17 8 -17q8 0 24 20l54 69l76 96q37 46 75.5 82t76.5 36
l15 -1q6 0 11 -5l25 -18l27 -20q6 -3 9 -12q2 -12 -22 -36l-91 -88q-31 -30 -61 -63.5t-53 -64.5l-88 -121l-69 -98l-38 -61q-9 -18 -15 -49q0 -27 -3 -39q0 -12 -18 -21t-39 -9q-13 0 -21 4l-14 9l-13 11l-18 14q-10 8 -13 15l-1 15q0 31 26 76l49 82l21 36q6 11 6 17
t-11 10zM453 750q-5 -2 -11.5 1t-17.5 17q-5 7 -7 13.5t-2 12.5q0 21 41 71q20 24 33 38.5t20 19.5q16 11 27 11q7 0 13 -5q5 -2 25 -29t24 -36q3 -8 -0.5 -14t-15.5 -14l-61 -35q-13 -7 -36 -27.5t-32 -23.5z" />
    <glyph glyph-name="nonbreakingspace" unicode="&#xa0;" horiz-adv-x="476" 
 />
    <glyph glyph-name="cent" unicode="&#xa2;" horiz-adv-x="409" 
d="M406 676l-11 -36q18 -18 27 -43.5t9 -50.5l-2 -25l-6 -30q-3 -14 -15 -38.5t-23 -28.5l-17 -4l-11 -1q-8 0 -17 6l-12 13q-4 8 -4 24q1 5 1.5 9.5t6.5 20.5l9 30q0 11 -11 11q-5 0 -13 -6l-26 -30q-19 -25 -48 -88.5t-29 -95.5l3 -22q3 -12 18 -18l21 -5q18 0 42 12.5
t45 28.5l34 30l29 32l29 33q14 15 21 18q8 -3 12.5 -6.5t8 -12.5t5.5 -24q0 -13 -16 -52t-80 -92.5t-108 -64.5q-42 -9 -66 -9l-16 -37q-6 -16 -12 -25.5t-12 -9.5q-10 0 -18 9q-4 6 3 29l18 43q-52 30 -70 69q-16 42 -16 94q0 75 59.5 173t106 118.5t67.5 25.5l38 4l13 37
q4 11 12 19q7 5 17 4q9 -3 9 -14q0 -13 -5 -24z" />
    <glyph glyph-name="sterling" unicode="&#xa3;" horiz-adv-x="509" 
d="M358 435v-11q3 -3 8 -3l32 3l24 2q22 0 38.5 -6.5t29 -24.5t12.5 -41l-2 -16q0 -9 -5 -19l-9 -23q-4 -12 -14 -13l-37 11q-20 5 -42 5l-43 -1q-25 0 -34 -8q-9 -6 -21 -30l-18 -40l-21 -36l-13 -18l-4 -12q0 -8 11 -7l66 9l30 3q26 0 47 -6q19 -4 33.5 -20.5t14.5 -42.5
q0 -11 -5 -27.5t-20.5 -33.5t-27.5 -18l-13 4l-13 6l-26 9l-29 1h-25q-43 0 -107 -13l-53 -13l-34 -10l-27 -4q-22 0 -30.5 16t-18 42.5t-9.5 36.5q3 12 20 25l35 24l33 23l29 27l28 39l18 28q3 5 3 13q0 9 -9 6l-19 -5l-12 -1q-13 0 -29 16q-14 17 -14 40l3 19
q3 16 13 33.5t25 23.5q7 1 22 -3l22 -4l20 2l20 7l19 58q29 91 45 126.5t48 66t71 41.5q38 9 61 9q36 0 65.5 -10.5t52.5 -35.5q23 -22 33 -51q4 -12 7 -27t3 -29q0 -17 -5.5 -36.5t-23.5 -38.5t-33 -22l-18 -3q-10 0 -17 4t-24 22.5t-19 34.5l3 16l3 23q0 21 -18 32
q-12 6 -32 -8.5t-36.5 -46.5t-37.5 -89z" />
    <glyph glyph-name="dieresis" unicode="&#xa8;" horiz-adv-x="258" 
d="M100 608q-3 6 -5 21q0 17 16 32l33 27q16 13 35 13l20 -3q16 -3 25 -12q9 -7 13 -22l5 -22q0 -21 -12 -30l-38 -34q-20 -13 -43 -13q-19 0 -29.5 11.5t-19.5 31.5zM288 608l-3 19q0 19 15 34l31 27q16 13 33 13l19 -3q14 -1 25 -9q9 -5 16 -20t7 -27q0 -21 -12 -30
l-39 -34q-16 -13 -42 -13q-19 0 -31 11q-10 12 -19 32z" />
    <glyph glyph-name="guillemotleft" unicode="&#xab;" horiz-adv-x="400" 
d="M250 526q14 2 21 -3q7 -3 20 -20q7 -8 7 -17q0 -5 -2 -8l-31 -30l-37 -35q-12 -12 -24 -30q-3 -5 -8 -14t-6 -13l-2 -17q0 -18 9 -42l17 -40l18 -36q4 -11 -12 -23q-15 -9 -26 -9q-8 0 -21 7t-56 72t-43 83q0 27 49 77t76 69l37 24zM447 526q12 2 19.5 -1.5t21.5 -20.5
q8 -11 8 -17q0 -4 -3 -9l-31 -30l-36 -34l-24 -32q-12 -18 -16 -29l-3 -15q0 -7 1.5 -15t8.5 -25l18 -41l18 -36q5 -10 -2 -15l-16 -11q-9 -6 -20 -6q-8 0 -22 7t-55.5 71.5t-41.5 83.5q0 30 48.5 78.5t76.5 68.5t36 23z" />
    <glyph glyph-name="acute" unicode="&#xb4;" horiz-adv-x="196" 
d="M213 517q-7 -2 -15 4l-15 14q-6 8 -8 25q0 25 37.5 70t55.5 58t28 13q7 0 13 -5l26 -32q19 -25 23 -34q3 -15 -16 -25l-31 -17l-28 -18l-40 -31q-21 -19 -30 -22z" />
    <glyph glyph-name="guillemotright" unicode="&#xbb;" horiz-adv-x="400" 
d="M298 190q-9 -2 -17.5 1.5t-19.5 15.5q-14 20 -8 30l29 28l36 34q15 15 26.5 32.5t16.5 33.5v25q-2 12 -13 38l-31 66q-3 7 0 14q5 7 16.5 12t21.5 7q10 0 23 -7.5t54.5 -72t41.5 -82.5q0 -35 -55.5 -86.5t-78.5 -66.5l-30 -18zM102 190q-10 -2 -18.5 1.5t-23.5 19.5
q-7 8 -7 17q0 3 2 9l32 31l37 35l23 29q12 18 15 30l3 16q0 15 -14 50l-31 66q-3 5 -1 12q1 5 13.5 12t24.5 9q11 0 24 -7.5t55 -71.5t42 -83q0 -30 -48.5 -78t-78.5 -69l-37 -24z" />
    <glyph glyph-name="Agrave" unicode="&#xc0;" horiz-adv-x="514" 
d="M342 184l-21 -1l-95 -8q-32 -4 -46 -15q-8 -7 -29 -39l-25 -42l-12 -32l-9 -38q-3 -12 -15 -17q-14 -2 -26.5 1.5t-31 18.5t-27.5 30q-7 18 -7 35q0 12 3.5 22.5t19.5 35.5l16 30l7 17q-3 10 -5 15l-4 26q0 21 8 28l30 17l33 14l51 77q47 65 79 103q24 29 52 59.5
t44 47.5q65 70 118.5 112.5t85.5 36.5q13 -3 20 -7.5t19 -22.5l16 -25l21 -22q6 -8 6 -15l-4 -14l-16 -32l-24 -53l-36 -89l-37 -102q-3 -10 -10 -38t-12 -53.5t-8 -58.5t-3 -65l2 -44l2 -30q0 -25 -3 -38.5t-15 -19.5l-19 -5q-28 0 -57 18q-26 18 -38 38q-10 22 -10 47
l1 24q0 10 3 25.5t5 25.5zM627 788q2 -8 -4 -15l-12 -12l-13 -8q-6 -3 -20 -3q-19 0 -65.5 38.5t-59.5 54.5q-10 17 -10 27q0 8 4 14t30.5 25.5t35.5 23.5q15 5 27 -17l35 -61l28 -35q22 -25 24 -32zM280 308q-4 -9 6 -10l45 6l34 3l8 30l16 48l21 50l17 37q3 4 -2 8
q-3 3 -7 0q-65 -58 -138 -172z" />
    <glyph glyph-name="Aacute" unicode="&#xc1;" horiz-adv-x="514" 
d="M342 184l-21 -1l-95 -8q-32 -4 -46 -15q-8 -7 -29 -39l-25 -42l-12 -32l-9 -38q-3 -12 -15 -17q-14 -2 -26.5 1.5t-31 18.5t-27.5 30q-7 18 -7 35q0 12 3.5 22.5t19.5 35.5l16 30l7 17q-3 10 -5 15l-4 26q0 21 8 28l30 17l33 14l51 77q47 65 79 103q24 29 52 59.5
t44 47.5q65 70 118.5 112.5t85.5 36.5q13 -3 20 -7.5t19 -22.5l16 -25l21 -22q6 -8 6 -15l-4 -14l-16 -32l-24 -53l-36 -89l-37 -102q-3 -10 -10 -38t-12 -53.5t-8 -58.5t-3 -65l2 -44l2 -30q0 -25 -3 -38.5t-15 -19.5l-19 -5q-28 0 -57 18q-26 18 -38 38q-10 22 -10 47
l1 24q0 10 3 25.5t5 25.5zM577 750q-7 -2 -13.5 1.5t-16 16t-9.5 27.5q3 23 41 70q20 24 33 38.5t20 19.5q16 11 27 11q6 0 14 -6l27 -33l21 -31q3 -8 -0.5 -14t-15.5 -14l-61 -35l-35 -28q-23 -20 -32 -23zM280 308q-4 -9 6 -10l45 6l34 3l8 30l16 48l21 50l17 37q3 4 -2 8
q-3 3 -7 0q-65 -58 -138 -172z" />
    <glyph glyph-name="Acircumflex" unicode="&#xc2;" horiz-adv-x="514" 
d="M342 184l-21 -1l-95 -8q-32 -4 -46 -15q-8 -7 -29 -39l-25 -42l-12 -32l-9 -38q-3 -12 -15 -17q-14 -2 -26.5 1.5t-31 18.5t-27.5 30q-7 18 -7 35q0 12 3.5 22.5t19.5 35.5l16 30l7 17q-3 10 -5 15l-4 26q0 21 8 28l30 17l33 14l51 77q47 65 79 103q24 29 52 59.5
t44 47.5q65 70 118.5 112.5t85.5 36.5q13 -3 20 -7.5t19 -22.5l16 -25l21 -22q6 -8 6 -15l-4 -14l-16 -32l-24 -53l-36 -89l-37 -102q-3 -10 -10 -38t-12 -53.5t-8 -58.5t-3 -65l2 -44l2 -30q0 -25 -3 -38.5t-15 -19.5l-19 -5q-28 0 -57 18q-26 18 -38 38q-10 22 -10 47
l1 24q0 10 3 25.5t5 25.5zM691 774q-3 -11 -13.5 -18t-24.5 -7l-17 3q-7 3 -30 28.5t-31 28.5l-11 2q-22 0 -68.5 -31.5t-57.5 -27.5q-25 16 -25 36q0 11 12 28t38.5 39.5t74 48.5t70.5 20q14 -3 29 -32l28 -53l22 -40q7 -13 4 -25zM280 308q-4 -9 6 -10l45 6l34 3l8 30
l16 48l21 50l17 37q3 4 -2 8q-3 3 -7 0q-65 -58 -138 -172z" />
    <glyph glyph-name="Atilde" unicode="&#xc3;" horiz-adv-x="514" 
d="M342 184l-21 -1l-95 -8q-32 -4 -46 -15q-8 -7 -29 -39l-25 -42l-12 -32l-9 -38q-3 -12 -15 -17q-14 -2 -26.5 1.5t-31 18.5t-27.5 30q-7 18 -7 35q0 12 3.5 22.5t19.5 35.5l16 30l7 17q-3 10 -5 15l-4 26q0 21 8 28l30 17l33 14l51 77q47 65 79 103q24 29 52 59.5
t44 47.5q65 70 118.5 112.5t85.5 36.5q13 -3 20 -7.5t19 -22.5l16 -25l21 -22q6 -8 6 -15l-4 -14l-16 -32l-24 -53l-36 -89l-37 -102q-3 -10 -10 -38t-12 -53.5t-8 -58.5t-3 -65l2 -44l2 -30q0 -25 -3 -38.5t-15 -19.5l-19 -5q-28 0 -57 18q-26 18 -38 38q-10 22 -10 47
l1 24q0 10 3 25.5t5 25.5zM540 874l55 -13q14 -3 38.5 -8t32.5 -5q20 0 35.5 5.5t31.5 15.5q5 3 9 -2q3 -2 2 -8l-16 -26q-29 -43 -52 -59t-60 -24q-20 -3 -58.5 12.5t-57.5 17.5l-26 -1q-10 0 -18 -5l-20 -10l-16 -9q-5 -3 -8 0t-3 11l16 26q25 33 56 57.5t59 24.5z
M280 308q-4 -9 6 -10l45 6l34 3l8 30l16 48l21 50l17 37q3 4 -2 8q-3 3 -7 0q-65 -58 -138 -172z" />
    <glyph glyph-name="Adieresis" unicode="&#xc4;" horiz-adv-x="514" 
d="M342 184l-21 -1l-95 -8q-32 -4 -46 -15q-8 -7 -29 -39l-25 -42l-12 -32l-9 -38q-3 -12 -15 -17q-14 -2 -26.5 1.5t-31 18.5t-27.5 30q-7 18 -7 35q0 12 3.5 22.5t19.5 35.5l16 30l7 17q-3 10 -5 15l-4 26q0 21 8 28l30 17l33 14l51 77q47 65 79 103q24 29 52 59.5
t44 47.5q65 70 118.5 112.5t85.5 36.5q13 -3 20 -7.5t19 -22.5l16 -25l21 -22q6 -8 6 -15l-4 -14l-16 -32l-24 -53l-36 -89l-37 -102q-3 -10 -10 -38t-12 -53.5t-8 -58.5t-3 -65l2 -44l2 -30q0 -25 -3 -38.5t-15 -19.5l-19 -5q-28 0 -57 18q-26 18 -38 38q-10 22 -10 47
l1 24q0 10 3 25.5t5 25.5zM412 792l-5 22q0 18 18 33l36 29q14 9 29 10l18 -3q11 -3 14.5 -3.5t9.5 -4.5q9 -3 15.5 -21.5t6.5 -26.5q0 -19 -16 -34l-34 -29q-19 -14 -43 -14q-19 0 -29.5 10t-19.5 32zM601 792l-5 21q0 17 18 34l34 29q13 9 29 10l20 -4q16 -3 25 -8.5
t15 -20t6 -26.5q0 -19 -16 -34l-35 -31q-16 -12 -43 -12q-19 0 -30 11t-18 31zM280 308q-4 -9 6 -10l45 6l34 3l8 30l16 48l21 50l17 37q3 4 -2 8q-3 3 -7 0q-65 -58 -138 -172z" />
    <glyph glyph-name="Aring" unicode="&#xc5;" horiz-adv-x="514" 
d="M342 184l-21 -1l-95 -8q-32 -4 -46 -15q-8 -7 -29 -39l-25 -42l-12 -32l-9 -38q-3 -12 -15 -17q-14 -2 -26.5 1.5t-31 18.5t-27.5 30q-7 18 -7 35q0 12 3.5 22.5t19.5 35.5l16 30l7 17q-3 10 -5 15l-4 26q0 21 8 28l30 17l33 14l51 77q47 65 79 103q24 29 52 59.5
t44 47.5q65 70 118.5 112.5t85.5 36.5q13 -3 20 -7.5t19 -22.5l16 -25l21 -22q6 -8 6 -15l-4 -14l-16 -32l-24 -53l-36 -89l-37 -102q-3 -10 -10 -38t-12 -53.5t-8 -58.5t-3 -65l2 -44l2 -30q0 -25 -3 -38.5t-15 -19.5l-19 -5q-28 0 -57 18q-26 18 -38 38q-10 22 -10 47
l1 24q0 10 3 25.5t5 25.5zM574 952l20 3q21 0 29 -7.5t11 -24.5l7 -29l8 -22l3 -17l-4 -24q-3 -15 -18.5 -39t-38.5 -36q-23 -10 -39 -10t-34 9q-39 24 -39 67q0 15 3 29t11 30q15 31 46 54zM280 308q-4 -9 6 -10l45 6l34 3l8 30l16 48l21 50l17 37q3 4 -2 8q-3 3 -7 0
q-65 -58 -138 -172zM582 824q24 27 21 47q-3 13 -16 16q-12 1 -23 -10l-14 -21l-8 -17l-2 -12q0 -13 11 -17q9 -3 16 0.5t15 13.5z" />
    <glyph glyph-name="AE" unicode="&#xc6;" horiz-adv-x="735" 
d="M715 700l41 7l34 3q22 0 35 -5q16 -3 27 -16q8 -10 16 -36t8 -44l-4 -23q-3 -15 -15 -18l-10 3l-10 6l-21 5l-14 1l-28 -1h-18q-16 -3 -25 -4l-51 -9q-22 -6 -50 -49q-15 -23 -24 -40t-15 -31l-11 -31q0 -7 16 -8l51 8l32 3q21 0 36 -8.5t24.5 -34t9.5 -42.5
q0 -31 -12 -39l-17 -7l-15 6l-22 2l-47 -2q-24 0 -41.5 -2t-44 -9.5t-33 -14.5t-18.5 -36l-22 -61l-4 -19q0 -7 6.5 -10.5t16.5 -3.5l12 1l31 7l35 8l28 5l30 3q20 0 31 -4q13 -3 20 -12t10 -13t6 -12q6 -11 7 -23l2 -15v-6l-3 -21q-3 -12 -15 -15q-15 4 -29 7t-24 3
q-17 0 -59 -12l-77 -21l-38 -13q-27 -9 -43 -9t-32 10.5t-39 31.5q-19 21 -23.5 32.5t-6.5 30.5q0 19 7 43l14 38q-7 0 -23 -1t-39 -4q-22 0 -31 -1t-42 -8q-26 -3 -37 -18l-33 -52q-20 -36 -34 -76l-4 -22q0 -6 -8 -9l-14 -2q-16 0 -37.5 14t-35.5 31q-11 16 -13 31
q0 13 4 26t16 35l27 55l-4 20l-2 22q0 24 14 31l56 19q11 3 23 19l23 30l44 56q24 32 32 42q13 17 36 43q38 46 104.5 110t121 102.5t82.5 38.5h6l10 -4q6 0 13 -7l14 -11l14 -8l18 -1zM476 526q-52 -48 -100 -105q-21 -25 -40 -51t-37 -52v-11q1 -3 6 -5l83 7q13 33 25 60
q5 11 19 41q24 56 58 113l-1 4q-3 3 -5 3z" />
    <glyph glyph-name="Ccedilla" unicode="&#xc7;" horiz-adv-x="472" 
d="M156 1q-36 11 -66.5 40.5t-43.5 69t-13 79.5q0 30 15 105.5t136.5 225.5t185.5 163l71 13q21 0 40.5 -7.5t40 -27.5t30.5 -56t10 -71q0 -23 -1.5 -33.5t-5.5 -33t-8 -38.5t-10 -27q-9 -20 -29 -26l-29 -3q-13 0 -25 4.5t-23 21.5q-9 17 -9 37l1 16l13 48l13 44
q0 6 -3.5 12.5t-11.5 6.5q-11 0 -44 -24q-12 -10 -29.5 -25t-36.5 -33q-33 -32 -95.5 -137t-62.5 -166l1 -19q2 -10 7.5 -18t16.5 -14l19 -4q16 0 30 7l34 21l34 25l44 41l42 44q10 8 27 10q32 0 51 -25t19 -36q0 -6 -15 -43t-91 -95t-147 -73l-11 -2l-13 -20l-10 -16
q-3 -6 0 -11q3 -6 20 -6l23 -3q11 -3 17 -18t6 -24q0 -27 -18 -55t-54.5 -47t-71.5 -19q-21 0 -38.5 5t-29 19.5t-11.5 28.5l4 17q3 9 23 23q3 3 18 5l11 -3q3 -2 2 -11q-3 -9 4 -16t23 -7q11 0 15 1.5t7 3t15 8t17 23.5q2 9 -7 15t-18 6l-12 -1l-12 -2q-7 0 -12 4l-15 10
q-9 6 -9 17q0 8 18.5 33.5t36.5 42.5z" />
    <glyph glyph-name="Egrave" unicode="&#xc8;" horiz-adv-x="452" 
d="M292 428l-3 -10q0 -7 16 -8l52 8l32 3q20 0 37 -9q14 -9 23 -32t9 -44q0 -14 -3.5 -25.5t-12.5 -16.5l-12 -4l-15 6l-23 2l-46 -2q-46 0 -79.5 -9.5t-40 -16.5t-18.5 -36l-21 -61l-4 -19q0 -7 7 -11l15 -3l22 3l22 5l35 8l28 5l29 3q20 0 31 -3.5t22 -15.5l15 -22
q6 -10 7 -23l2 -15v-6l-3 -21q-3 -12 -15 -15q-15 4 -29 7t-24 3q-17 0 -59 -12l-78 -21l-38 -13q-27 -9 -43 -9t-33 11q-9 6 -18.5 14t-23.5 21q-24 24 -24 55q0 25 10 54l13 39l36 92l-19 33q-3 6 -5 17q0 16 20 26l29 10q8 4 13 12l6 14l27 57l36 75l32 61q-24 30 -24 50
l4 13q3 9 25 15l50 11l142 22l38 5l35 3q25 0 38.5 -3.5t24 -15t18 -36.5t7.5 -44l-4 -23q-3 -15 -16 -18l-10 3l-10 6l-20 5l-14 1l-28 -1h-23q-14 -3 -20 -4l-49 -9q-23 -6 -53 -51q-13 -21 -23.5 -41t-23.5 -49zM477 788q2 -7 -4 -15l-16 -15q-10 -8 -29 -8t-65 37
q-43 38 -57 54q-13 18 -13 29q0 8 4 14t30.5 25.5t35.5 23.5q8 3 14 0q5 -3 13 -17l35 -61l28 -35q22 -25 24 -32z" />
    <glyph glyph-name="Eacute" unicode="&#xc9;" horiz-adv-x="452" 
d="M292 428l-3 -10q0 -7 16 -8l52 8l32 3q20 0 37 -9q14 -9 23 -32t9 -44q0 -14 -3.5 -25.5t-12.5 -16.5l-12 -4l-15 6l-23 2l-46 -2q-46 0 -79.5 -9.5t-40 -16.5t-18.5 -36l-21 -61l-4 -19q0 -7 7 -11l15 -3l22 3l22 5l35 8l28 5l29 3q20 0 31 -3.5t22 -15.5l15 -22
q6 -10 7 -23l2 -15v-6l-3 -21q-3 -12 -15 -15q-15 4 -29 7t-24 3q-17 0 -59 -12l-78 -21l-38 -13q-27 -9 -43 -9t-33 11q-9 6 -18.5 14t-23.5 21q-24 24 -24 55q0 25 10 54l13 39l36 92l-19 33q-3 6 -5 17q0 16 20 26l29 10q8 4 13 12l6 14l27 57l36 75l32 61q-24 30 -24 50
l4 13q3 9 25 15l50 11l142 22l38 5l35 3q25 0 38.5 -3.5t24 -15t18 -36.5t7.5 -44l-4 -23q-3 -15 -16 -18l-10 3l-10 6l-20 5l-14 1l-28 -1h-23q-14 -3 -20 -4l-49 -9q-23 -6 -53 -51q-13 -21 -23.5 -41t-23.5 -49zM389 750q-5 -2 -11.5 1t-17.5 17q-5 7 -7 13.5t-2 12.5
q0 21 41 71q20 24 33 38.5t20 19.5q14 11 26 11q8 0 14 -5q5 -2 25 -29t24 -36q2 -10 -1 -15q-1 -4 -15 -13l-62 -35l-35 -28q-23 -20 -32 -23z" />
    <glyph glyph-name="Ecircumflex" unicode="&#xca;" horiz-adv-x="452" 
d="M292 428l-3 -10q0 -7 16 -8l52 8l32 3q20 0 37 -9q14 -9 23 -32t9 -44q0 -14 -3.5 -25.5t-12.5 -16.5l-12 -4l-15 6l-23 2l-46 -2q-46 0 -79.5 -9.5t-40 -16.5t-18.5 -36l-21 -61l-4 -19q0 -7 7 -11l15 -3l22 3l22 5l35 8l28 5l29 3q20 0 31 -3.5t22 -15.5l15 -22
q6 -10 7 -23l2 -15v-6l-3 -21q-3 -12 -15 -15q-15 4 -29 7t-24 3q-17 0 -59 -12l-78 -21l-38 -13q-27 -9 -43 -9t-33 11q-9 6 -18.5 14t-23.5 21q-24 24 -24 55q0 25 10 54l13 39l36 92l-19 33q-3 6 -5 17q0 16 20 26l29 10q8 4 13 12l6 14l27 57l36 75l32 61q-24 30 -24 50
l4 13q3 9 25 15l50 11l142 22l38 5l35 3q25 0 38.5 -3.5t24 -15t18 -36.5t7.5 -44l-4 -23q-3 -15 -16 -18l-10 3l-10 6l-20 5l-14 1l-28 -1h-23q-14 -3 -20 -4l-49 -9q-23 -6 -53 -51q-13 -21 -23.5 -41t-23.5 -49zM588 774q-3 -11 -13.5 -18t-24.5 -7l-16 3q-7 3 -32 29
q-22 25 -29 28l-11 2q-22 0 -70 -31.5t-57 -27.5q-25 16 -25 36q0 26 38 56.5t86 58t71 21.5q14 -3 29 -32l28 -53l22 -40q7 -13 4 -25z" />
    <glyph glyph-name="Edieresis" unicode="&#xcb;" horiz-adv-x="452" 
d="M292 428l-3 -10q0 -7 16 -8l52 8l32 3q20 0 37 -9q14 -9 23 -32t9 -44q0 -14 -3.5 -25.5t-12.5 -16.5l-12 -4l-15 6l-23 2l-46 -2q-46 0 -79.5 -9.5t-40 -16.5t-18.5 -36l-21 -61l-4 -19q0 -7 7 -11l15 -3l22 3l22 5l35 8l28 5l29 3q20 0 31 -3.5t22 -15.5l15 -22
q6 -10 7 -23l2 -15v-6l-3 -21q-3 -12 -15 -15q-15 4 -29 7t-24 3q-17 0 -59 -12l-78 -21l-38 -13q-27 -9 -43 -9t-33 11q-9 6 -18.5 14t-23.5 21q-24 24 -24 55q0 25 10 54l13 39l36 92l-19 33q-3 6 -5 17q0 16 20 26l29 10q8 4 13 12l6 14l27 57l36 75l32 61q-24 30 -24 50
l4 13q3 9 25 15l50 11l142 22l38 5l35 3q25 0 38.5 -3.5t24 -15t18 -36.5t7.5 -44l-4 -23q-3 -15 -16 -18l-10 3l-10 6l-20 5l-14 1l-28 -1h-23q-14 -3 -20 -4l-49 -9q-23 -6 -53 -51q-13 -21 -23.5 -41t-23.5 -49zM308 792l-5 22q0 18 18 33l36 29q14 8 30 10l19 -4
q14 -3 24 -9t16 -22l5 -24q0 -19 -16 -34l-35 -29q-19 -14 -42 -14q-20 0 -30.5 10t-19.5 32zM497 792l-5 21q0 17 18 34l34 29q13 9 29 10l20 -4q16 -3 25 -8.5t15 -20t6 -26.5q0 -19 -16 -34l-34 -31q-19 -15 -44 -12q-19 0 -30 10q-10 11 -18 32z" />
    <glyph glyph-name="Igrave" unicode="&#xcc;" horiz-adv-x="282" 
d="M307 695q15 6 27 6q27 0 51.5 -30.5t24.5 -42.5q0 -9 -8 -20l-16 -24l-31 -52q-22 -39 -43 -83l-41 -91l-46 -111q-10 -27 -19 -50t-16 -37l-15 -38l-7 -28l-2 -22l1 -20q0 -12 2 -18q0 -12 -13 -25t-50 -13q-22 0 -38 8t-27 26.5t-11 38.5t4 35l22 65l37 97q17 46 23 60
q2 6 18 40q17 42 20 48q9 19 21 43l39 79l31 65l14 31l4 19q2 14 7 21l15 13zM442 788q2 -8 -4 -15l-12 -12l-14 -8q-6 -3 -20 -3q-18 0 -63.5 38t-60.5 55q-11 16 -11 27q0 7 4 14l32 26q25 19 34 23q14 4 26 -15l20 -38l18 -28q6 -11 26.5 -33t24.5 -31z" />
    <glyph glyph-name="Iacute" unicode="&#xcd;" horiz-adv-x="282" 
d="M307 695q15 6 27 6q27 0 51.5 -30.5t24.5 -42.5q0 -9 -8 -20l-16 -24l-31 -52q-22 -39 -43 -83l-41 -91l-46 -111q-10 -27 -19 -50t-16 -37l-15 -38l-7 -28l-2 -22l1 -20q0 -12 2 -18q0 -12 -13 -25t-50 -13q-22 0 -38 8t-27 26.5t-11 38.5t4 35l22 65l37 97q17 46 23 60
q2 6 18 40q17 42 20 48q9 19 21 43l39 79l31 65l14 31l4 19q2 14 7 21l15 13zM391 750q-7 -2 -14 2l-16 17q-8 11 -8 26q3 23 41 70q20 24 33 38.5t20 19.5q14 11 26 11q8 0 14 -5l26 -32q20 -26 22 -33q6 -15 -15 -28l-62 -35l-35 -28q-23 -20 -32 -23z" />
    <glyph glyph-name="Icircumflex" unicode="&#xce;" horiz-adv-x="282" 
d="M307 695q15 6 27 6q27 0 51.5 -30.5t24.5 -42.5q0 -9 -8 -20l-16 -24l-31 -52q-22 -39 -43 -83l-41 -91l-46 -111q-10 -27 -19 -50t-16 -37l-15 -38l-7 -28l-2 -22l1 -20q0 -12 2 -18q0 -12 -13 -25t-50 -13q-22 0 -38 8t-27 26.5t-11 38.5t4 35l22 65l37 97q17 46 23 60
q2 6 18 40q17 42 20 48q9 19 21 43l39 79l31 65l14 31l4 19q2 14 7 21l15 13zM515 774q-4 -12 -14.5 -18.5t-24.5 -6.5l-16 3q-7 3 -30 28.5t-31 28.5l-11 2q-22 0 -63 -28l-50 -32q-6 -3 -14 1q-24 17 -24 36q0 11 12 28t38.5 39.5t74 48.5t70.5 20q14 -3 28 -32l28 -53
l22 -40q8 -12 5 -25z" />
    <glyph glyph-name="Idieresis" unicode="&#xcf;" horiz-adv-x="282" 
d="M307 695q15 6 27 6q27 0 51.5 -30.5t24.5 -42.5q0 -9 -8 -20l-16 -24l-31 -52q-22 -39 -43 -83l-41 -91l-46 -111q-10 -27 -19 -50t-16 -37l-15 -38l-7 -28l-2 -22l1 -20q0 -12 2 -18q0 -12 -13 -25t-50 -13q-22 0 -38 8t-27 26.5t-11 38.5t4 35l22 65l37 97q17 46 23 60
q2 6 18 40q17 42 20 48q9 19 21 43l39 79l31 65l14 31l4 19q2 14 7 21l15 13zM241 792l-3 20q0 10 4 18t18 21l30 25q14 8 30 10l22 -4q18 -3 24 -9.5t12 -21.5q3 -8 5 -24q0 -19 -16 -34l-34 -29q-19 -14 -43 -14q-19 0 -29.5 10t-19.5 32zM430 792l-5 21q0 17 18 34l34 29
q13 8 30 10l22 -4q17 -3 25 -12q7 -6 13 -19q3 -8 5 -24q0 -19 -16 -34l-34 -30q-16 -13 -43 -13q-19 0 -29.5 10t-19.5 32z" />
    <glyph glyph-name="Ntilde" unicode="&#xd1;" horiz-adv-x="554" 
d="M408 325l43 101l54 119q32 70 60 110t62 40q18 0 29 -6.5t16 -14.5l7 -9l18 -17q3 -3 5 -13q0 -12 -14 -32l-52 -79q-35 -54 -73 -126q-31 -61 -61 -138l-29 -79l-10 -32l-11 -40l-4 -24l1 -18l1 -18q0 -11 -8 -20q-6 -9 -25 -19q-14 -7 -35 -14l-25 -5q-15 0 -43.5 25.5
t-37.5 54.5q-3 15 -5 31t-2 35v22v16v12l-1 30v32v11q0 78 12 135l-4 7q-2 3 -8 -3l-45 -93q-19 -42 -34 -86l-21 -73l-14 -63l-7 -45v-13l-1 -15q-6 -7 -12 -12t-18 -5q-7 0 -11 2l-15 9l-12 10l-37 25q-11 6 -11 30q0 22 6 45l37 111q32 89 69 178t80.5 167.5t63 103.5
t46.5 25q15 0 24 -3t19 -17l17 -22l22 -21q18 -18 18 -43q0 -17 -5 -33l-13 -46l-11 -51l-11 -71l-3 -48q0 -19 -2 -28q0 -6 8 -7q7 0 13 15zM528 874l54 -13q14 -3 38.5 -8t32.5 -5q21 0 36.5 5.5t31.5 15.5q5 3 8.5 -1t1.5 -9l-6 -11l-21 -31q-15 -24 -42 -44
q-22 -15 -58 -23q-20 -3 -60.5 13.5t-56.5 16.5l-25 -1q-9 0 -22 -7l-33 -17q-3 -3 -8 1q-2 3 -2 10l6 13q1 2 7 10t13.5 17.5t19 21t27.5 23.5q31 23 58 23z" />
    <glyph glyph-name="Ograve" unicode="&#xd2;" horiz-adv-x="486" 
d="M417 699l19 3q17 0 37 -14q20 -11 26 -25l11 -36q6 -24 13 -34l18 -22q8 -11 15 -38.5t7 -53.5q0 -56 -17 -103q-27 -94 -118 -217.5t-156 -144t-92 -20.5q-20 0 -42 6t-49.5 27.5t-43 68.5t-15.5 95q0 100 90 243.5t154 185.5t97 60q27 14 46 19zM507 788
q2 -6 -1.5 -11.5t-16 -16t-31.5 -10.5q-18 0 -63.5 38t-60.5 55q-11 16 -11 27q0 8 4.5 13.5t14.5 13.5t17 13q25 19 34 23q15 6 28 -17l34 -61q2 -3 8.5 -12t20.5 -24q20 -22 23 -31zM201 320q-9 -18 -17.5 -40.5t-11.5 -32.5q-13 -44 -13 -71q0 -21 9 -38q9 -14 38 -14
q53 6 117 93q31 42 53.5 76t34.5 58t21.5 47.5t17.5 46.5q15 42 15 73q0 18 -9 33t-33 15q-50 0 -119 -84q-65 -81 -103 -162z" />
    <glyph glyph-name="Oacute" unicode="&#xd3;" horiz-adv-x="486" 
d="M417 699l19 3q17 0 37 -14q20 -11 26 -25l11 -36q6 -24 13 -34l18 -22q8 -11 15 -38.5t7 -53.5q0 -56 -17 -103q-27 -94 -118 -217.5t-156 -144t-92 -20.5q-20 0 -42 6t-49.5 27.5t-43 68.5t-15.5 95q0 100 90 243.5t154 185.5t97 60q27 14 46 19zM495 750
q-7 -2 -13.5 1.5t-16 16t-9.5 27.5q3 23 41 70q20 24 33 38.5t20 19.5q16 11 27 11q6 0 14 -6l27 -33l21 -31q3 -8 -0.5 -14t-15.5 -14l-61 -35l-35 -28q-23 -20 -32 -23zM201 320q-9 -18 -17.5 -40.5t-11.5 -32.5q-13 -44 -13 -71q0 -21 9 -38q9 -14 38 -14q53 6 117 93
q31 42 53.5 76t34.5 58t21.5 47.5t17.5 46.5q15 42 15 73q0 18 -9 33t-33 15q-50 0 -119 -84q-65 -81 -103 -162z" />
    <glyph glyph-name="Ocircumflex" unicode="&#xd4;" horiz-adv-x="486" 
d="M417 699l19 3q17 0 37 -14q20 -11 26 -25l11 -36q6 -24 13 -34l18 -22q8 -11 15 -38.5t7 -53.5q0 -56 -17 -103q-27 -94 -118 -217.5t-156 -144t-92 -20.5q-20 0 -42 6t-49.5 27.5t-43 68.5t-15.5 95q0 100 90 243.5t154 185.5t97 60q27 14 46 19zM637 774
q-4 -11 -14 -18t-24 -7l-17 3q-8 3 -30.5 28.5t-30.5 28.5l-10 2q-22 0 -69.5 -31.5t-58.5 -27.5q-23 15 -23 36q0 26 43 63q29 21 81 52q48 27 70 21q14 -3 29 -32l28 -53l21 -40q8 -12 5 -25zM201 320q-9 -18 -17.5 -40.5t-11.5 -32.5q-13 -44 -13 -71q0 -21 9 -38
q9 -14 38 -14q53 6 117 93q31 42 53.5 76t34.5 58t21.5 47.5t17.5 46.5q15 42 15 73q0 18 -9 33t-33 15q-50 0 -119 -84q-65 -81 -103 -162z" />
    <glyph glyph-name="Otilde" unicode="&#xd5;" horiz-adv-x="486" 
d="M417 699l19 3q17 0 37 -14q20 -11 26 -25l11 -36q6 -24 13 -34l18 -22q8 -11 15 -38.5t7 -53.5q0 -56 -17 -103q-27 -94 -118 -217.5t-156 -144t-92 -20.5q-20 0 -42 6t-49.5 27.5t-43 68.5t-15.5 95q0 100 90 243.5t154 185.5t97 60q27 14 46 19zM515 874l54 -13
q14 -3 38.5 -8t32.5 -5q20 0 37 5.5t31 15.5q6 0 8.5 -2t1.5 -8l-16 -26q-29 -43 -52 -59t-60 -24q-17 -3 -63 13q-17 6 -32.5 11t-20.5 6l-25 -1q-10 0 -19 -5l-20 -10l-16 -9q-5 -3 -8 0t-3 11l8 14q1 2 7 10t13 17q14 20 45.5 43.5t58.5 23.5zM201 320
q-9 -18 -17.5 -40.5t-11.5 -32.5q-13 -44 -13 -71q0 -21 9 -38q9 -14 38 -14q53 6 117 93q31 42 53.5 76t34.5 58t21.5 47.5t17.5 46.5q15 42 15 73q0 18 -9 33t-33 15q-50 0 -119 -84q-65 -81 -103 -162z" />
    <glyph glyph-name="Odieresis" unicode="&#xd6;" horiz-adv-x="486" 
d="M417 699l19 3q17 0 37 -14q20 -11 26 -25l11 -36q6 -24 13 -34l18 -22q8 -11 15 -38.5t7 -53.5q0 -56 -17 -103q-27 -94 -118 -217.5t-156 -144t-92 -20.5q-20 0 -42 6t-49.5 27.5t-43 68.5t-15.5 95q0 100 90 243.5t154 185.5t97 60q27 14 46 19zM339 792l-5 22
q0 18 18 33l35 29q14 8 30 10l22 -4q18 -3 24.5 -10t12.5 -23l5 -22q0 -20 -16 -35l-35 -28q-19 -14 -43 -14q-19 0 -30 10q-10 11 -18 32zM527 792l-3 20q0 19 17 35l32 27q15 12 31 12l22 -4q18 -3 25 -10.5t12.5 -20t5.5 -24.5q0 -19 -16 -34l-34 -30q-16 -13 -43 -13
q-20 0 -31 10q-10 11 -18 32zM201 320q-9 -18 -17.5 -40.5t-11.5 -32.5q-13 -44 -13 -71q0 -21 9 -38q9 -14 38 -14q53 6 117 93q31 42 53.5 76t34.5 58t21.5 47.5t17.5 46.5q15 42 15 73q0 18 -9 33t-33 15q-50 0 -119 -84q-65 -81 -103 -162z" />
    <glyph glyph-name="Oslash" unicode="&#xd8;" horiz-adv-x="486" 
d="M39 110l-7 41l-2 40q0 103 89.5 244.5t154 184t95.5 59t44 19.5l23 4q17 0 36 -12.5t27 -28.5l11 -34q5 -21 8 -26l9 -12l18 17q34 30 58 45t39 12q16 -6 16 -20q0 -12 -11 -19l-22 -14l-29 -22l-44 -39q11 -28 11 -69q0 -56 -17 -104q-27 -94 -118 -217.5t-156 -144
t-92 -20.5q-20 0 -41.5 6t-38 17.5t-25.5 23.5l-18 25l-35 -36l-21 -24q-11 -12 -19 -12q-11 0 -18 16q-5 11 8 26l23 28l38 40zM158 171q0 -15 9.5 -31t38.5 -16q53 6 117.5 93.5t98.5 156.5l16 40l16 46q-91 -83 -145 -137l-95 -94zM463 533q0 6 -5 14.5t-15 14.5l-20 4
q-50 0 -117 -83t-90 -131l-30 -67l-12 -32l80 82l119 116z" />
    <glyph glyph-name="Ugrave" unicode="&#xd9;" 
d="M241 636l3 16q1 13 6 19l12 11l24 13q15 5 29 7q27 0 51.5 -30.5t24.5 -42.5q0 -10 -10 -21l-30 -51q-14 -23 -30.5 -54.5t-34.5 -68.5l-53 -119l-26 -69l-11 -37q-3 -12 -4 -18t-1 -19q0 -27 9 -30l18 -2q30 0 61.5 36t71.5 115l156 307l49 90q14 20 42 20q18 0 30 -11
l33 -35q12 -12 14 -21q0 -8 -14 -30l-29 -51q-35 -64 -73 -144l-63 -140q-10 -23 -21.5 -53.5t-16.5 -46.5q-9 -32 -9 -66q0 -35 12 -86q2 -15 -5 -18l-18 -6l-25 -3l-11 1l-22 4q-15 3 -25 16t-15 36l2 32l4 24q3 9 -2 14q-3 5 -9 -1l-85 -97q-25 -25 -82 -25
q-17 0 -24.5 1t-21.5 8t-39 41q-23 34 -23 93q0 32 9 74q5 23 11.5 43.5t17.5 50.5q20 55 46 116l52 113l34 66zM561 788q2 -7 -4 -15l-16 -15q-10 -8 -29 -8t-62 35.5t-65 61.5q-9 12 -9 24q0 7 5 13l31 26l35 23q8 3 14 0q5 -3 13 -17l35 -61l28 -35q22 -25 24 -32z" />
    <glyph glyph-name="Uacute" unicode="&#xda;" 
d="M241 636l3 16q1 13 6 19l12 11l24 13q15 5 29 7q27 0 51.5 -30.5t24.5 -42.5q0 -10 -10 -21l-30 -51q-14 -23 -30.5 -54.5t-34.5 -68.5l-53 -119l-26 -69l-11 -37q-3 -12 -4 -18t-1 -19q0 -27 9 -30l18 -2q30 0 61.5 36t71.5 115l156 307l49 90q14 20 42 20q18 0 30 -11
l33 -35q12 -12 14 -21q0 -8 -14 -30l-29 -51q-35 -64 -73 -144l-63 -140q-10 -23 -21.5 -53.5t-16.5 -46.5q-9 -32 -9 -66q0 -35 12 -86q2 -15 -5 -18l-18 -6l-25 -3l-11 1l-22 4q-15 3 -25 16t-15 36l2 32l4 24q3 9 -2 14q-3 5 -9 -1l-85 -97q-25 -25 -82 -25
q-17 0 -24.5 1t-21.5 8t-39 41q-23 34 -23 93q0 32 9 74q5 23 11.5 43.5t17.5 50.5q20 55 46 116l52 113l34 66zM483 750q-7 -2 -13.5 1.5t-16 16t-9.5 27.5q3 23 41 70q20 24 33 38.5t20 19.5q14 11 26 11q9 0 15 -6l27 -33l21 -31q3 -9 0 -15l-16 -13l-62 -35l-34 -28
q-23 -20 -32 -23z" />
    <glyph glyph-name="Ucircumflex" unicode="&#xdb;" 
d="M241 636l3 16q1 13 6 19l12 11l24 13q15 5 29 7q27 0 51.5 -30.5t24.5 -42.5q0 -10 -10 -21l-30 -51q-14 -23 -30.5 -54.5t-34.5 -68.5l-53 -119l-26 -69l-11 -37q-3 -12 -4 -18t-1 -19q0 -27 9 -30l18 -2q30 0 61.5 36t71.5 115l156 307l49 90q14 20 42 20q18 0 30 -11
l33 -35q12 -12 14 -21q0 -8 -14 -30l-29 -51q-35 -64 -73 -144l-63 -140q-10 -23 -21.5 -53.5t-16.5 -46.5q-9 -32 -9 -66q0 -35 12 -86q2 -15 -5 -18l-18 -6l-25 -3l-11 1l-22 4q-15 3 -25 16t-15 36l2 32l4 24q3 9 -2 14q-3 5 -9 -1l-85 -97q-25 -25 -82 -25
q-17 0 -24.5 1t-21.5 8t-39 41q-23 34 -23 93q0 32 9 74q5 23 11.5 43.5t17.5 50.5q20 55 46 116l52 113l34 66zM644 774q-4 -12 -14.5 -18.5t-24.5 -6.5l-16 3q-7 3 -30 28.5t-31 28.5l-11 2q-22 0 -64 -28.5t-50 -31.5q-6 -2 -13 1q-24 17 -24 36q0 27 39 58.5t86 57.5
t70 20q15 -5 33 -40l23 -45l22 -40q8 -12 5 -25z" />
    <glyph glyph-name="Udieresis" unicode="&#xdc;" 
d="M241 636l3 16q1 13 6 19l12 11l24 13q15 5 29 7q27 0 51.5 -30.5t24.5 -42.5q0 -10 -10 -21l-30 -51q-14 -23 -30.5 -54.5t-34.5 -68.5l-53 -119l-26 -69l-11 -37q-3 -12 -4 -18t-1 -19q0 -27 9 -30l18 -2q30 0 61.5 36t71.5 115l156 307l49 90q14 20 42 20q18 0 30 -11
l33 -35q12 -12 14 -21q0 -8 -14 -30l-29 -51q-35 -64 -73 -144l-63 -140q-10 -23 -21.5 -53.5t-16.5 -46.5q-9 -32 -9 -66q0 -35 12 -86q2 -15 -5 -18l-18 -6l-25 -3l-11 1l-22 4q-15 3 -25 16t-15 36l2 32l4 24q3 9 -2 14q-3 5 -9 -1l-85 -97q-25 -25 -82 -25
q-17 0 -24.5 1t-21.5 8t-39 41q-23 34 -23 93q0 32 9 74q5 23 11.5 43.5t17.5 50.5q20 55 46 116l52 113l34 66zM345 792l-3 20q0 10 4 18t18 21l30 25q14 8 30 10l19 -4q14 -3 23.5 -8.5t15.5 -21.5l5 -25q0 -19 -16 -34l-34 -29q-19 -14 -43 -14q-19 0 -29.5 10t-19.5 32z
M534 792l-5 21q0 19 17 33l33 28q15 12 31 12l20 -4q16 -3 25 -8.5t15 -20t6 -26.5q0 -19 -16 -34l-35 -30q-16 -13 -42 -13q-20 0 -31 10q-10 11 -18 32z" />
    <glyph glyph-name="germandbls" unicode="&#xdf;" horiz-adv-x="441" 
d="M166 111l-10 -35l-3 -22l-3 -28q0 -10 -8 -17q-12 -15 -41 -15l-19 3q-9 3 -23 14q-4 3 -9 8t-12 15l-9 21l-2 20q0 31 7 55l20 58l27 76l35 90l-30 9q-15 6 -21 24l-4 29l3 21l13 27q6 11 18 13l56 -13q11 3 15 9l13 23l9 18q45 100 82.5 134.5t73.5 44.5t56 10
q14 0 21 -1t21 -5t23 -9t23 -15q22 -16 34.5 -43.5t12.5 -56.5q0 -18 -1.5 -25t-6.5 -21q-6 -23 -20 -41q-10 -14 -48 -56l-42 -48q-6 -9 -6 -28q0 -14 5 -32l11 -37l5 -17l10 -48l4 -46q0 -38 -12 -72t-48 -73t-92 -39q-14 0 -21 1t-32 8t-48 37q-21 30 -27 75zM226 159
q3 -11 9 -18t14.5 -9t14.5 -2q16 0 26 11q14 14 20 32.5t6 37.5l-3 32l-6 38l-2 10q-2 10 -3 19.5t-5 22.5l-3 33q0 27 26 60l44 56q18 22 24 37t8 32v6l-6 12q-3 7 -19 7q-26 0 -59 -70l-56 -127q-12 -30 -29 -75q-6 -16 -18 -51l-25 -83l20 24q5 5 14 2q5 -3 6 -18
q0 -16 2 -19z" />
    <glyph glyph-name="agrave" unicode="&#xe0;" horiz-adv-x="518" 
d="M519 265q8 3 13 -8l11 -19q3 -6 5 -18q0 -10 -14 -45t-61 -98.5t-79.5 -73t-46.5 -9.5q-30 0 -52 19l-12 14l-9 23q-3 15 -12 17q-6 -4 -10 -6q-9 -6 -27 -20l-51 -36q-18 -9 -41 -9q-12 0 -43 8q-33 7 -46 50t-13 71q0 64 33 139.5t75 122.5t83 76t74 29l25 -3
q16 -3 37 -38.5t31 -42.5l22 -9l20 -9q10 -5 15 -16t7 -26q0 -18 -6.5 -36t-21.5 -45l-13 -27l-22 -48l-7 -33q0 -6 4 -12.5t17 -7.5q19 0 39 26l41 57l25 36q4 6 10 7zM421 573q3 -12 -18 -28l-12 -7q-6 -3 -20 -3q-18 0 -64.5 39t-61.5 57q-9 14 -9 26q0 7 4.5 13t31.5 25
l34 22q15 4 28 -16l35 -61l28 -35q22 -25 24 -32zM217 298q-19 -30 -39.5 -77.5t-20.5 -71.5l3 -15q3 -8 16 -11q14 -3 43.5 23t69.5 100q34 67 34 105q-3 20 -12 24q-9 5 -25 -4.5t-33.5 -28t-35.5 -44.5z" />
    <glyph glyph-name="aacute" unicode="&#xe1;" horiz-adv-x="518" 
d="M519 265q8 3 13 -8l11 -19q3 -6 5 -18q0 -10 -14 -45t-61 -98.5t-79.5 -73t-46.5 -9.5q-30 0 -52 19l-12 14l-9 23q-3 15 -12 17q-6 -4 -10 -6q-9 -6 -27 -20l-51 -36q-18 -9 -41 -9q-12 0 -43 8q-33 7 -46 50t-13 71q0 64 33 139.5t75 122.5t83 76t74 29l25 -3
q16 -3 37 -38.5t31 -42.5l22 -9l20 -9q10 -5 15 -16t7 -26q0 -18 -6.5 -36t-21.5 -45l-13 -27l-22 -48l-7 -33q0 -6 4 -12.5t17 -7.5q19 0 39 26l41 57l25 36q4 6 10 7zM336 535q-7 -2 -13 1.5t-16 15t-10 26.5q0 25 37 69t53.5 57.5t30.5 13.5q8 0 13.5 -3.5t25.5 -32.5
q19 -25 23 -34q6 -15 -17 -27l-61 -34l-34 -28q-25 -22 -32 -24zM217 298q-19 -30 -39.5 -77.5t-20.5 -71.5l3 -15q3 -8 16 -11q14 -3 43.5 23t69.5 100q34 67 34 105q-3 20 -12 24q-9 5 -25 -4.5t-33.5 -28t-35.5 -44.5z" />
    <glyph glyph-name="acircumflex" unicode="&#xe2;" horiz-adv-x="518" 
d="M519 265q8 3 13 -8l11 -19q3 -6 5 -18q0 -10 -14 -45t-61 -98.5t-79.5 -73t-46.5 -9.5q-30 0 -52 19l-12 14l-9 23q-3 15 -12 17q-6 -4 -10 -6q-9 -6 -27 -20l-51 -36q-18 -9 -41 -9q-12 0 -43 8q-33 7 -46 50t-13 71q0 64 33 139.5t75 122.5t83 76t74 29l25 -3
q16 -3 37 -38.5t31 -42.5l22 -9l20 -9q10 -5 15 -16t7 -26q0 -18 -6.5 -36t-21.5 -45l-13 -27l-22 -48l-7 -33q0 -6 4 -12.5t17 -7.5q19 0 39 26l41 57l25 36q4 6 10 7zM487 559q-9 -26 -36 -26q-10 0 -17.5 3.5t-32.5 29.5q-22 25 -30 28l-11 2q-20 0 -95 -51
q-20 -11 -31 -8q-25 14 -25 36q0 27 36 56t81 55t70 26l15 -3q8 -3 25 -33l25 -50l22 -39q7 -14 4 -26zM217 298q-19 -30 -39.5 -77.5t-20.5 -71.5l3 -15q3 -8 16 -11q14 -3 43.5 23t69.5 100q34 67 34 105q-3 20 -12 24q-9 5 -25 -4.5t-33.5 -28t-35.5 -44.5z" />
    <glyph glyph-name="atilde" unicode="&#xe3;" horiz-adv-x="518" 
d="M519 265q8 3 13 -8l11 -19q3 -6 5 -18q0 -10 -14 -45t-61 -98.5t-79.5 -73t-46.5 -9.5q-30 0 -52 19l-12 14l-9 23q-3 15 -12 17q-6 -4 -10 -6q-9 -6 -27 -20l-51 -36q-18 -9 -41 -9q-12 0 -43 8q-33 7 -46 50t-13 71q0 64 33 139.5t75 122.5t83 76t74 29l25 -3
q16 -3 37 -38.5t31 -42.5l22 -9l20 -9q10 -5 15 -16t7 -26q0 -18 -6.5 -36t-21.5 -45l-13 -27l-22 -48l-7 -33q0 -6 4 -12.5t17 -7.5q19 0 39 26l41 57l25 36q4 6 10 7zM349 660l54 -14q54 -13 72 -13q23 0 37 5t30 16q6 0 8.5 -2t1.5 -8l-16 -27q-27 -41 -53 -59
q-22 -15 -59 -23q-17 -3 -63 13q-17 6 -32.5 11t-20.5 6l-26 -1q-7 0 -22 -8l-32 -16q-5 -3 -8 0t-3 10l10 19l20 25q15 20 44.5 43t57.5 23zM217 298q-19 -30 -39.5 -77.5t-20.5 -71.5l3 -15q3 -8 16 -11q14 -3 43.5 23t69.5 100q34 67 34 105q-3 20 -12 24q-9 5 -25 -4.5
t-33.5 -28t-35.5 -44.5z" />
    <glyph glyph-name="adieresis" unicode="&#xe4;" horiz-adv-x="518" 
d="M519 265q8 3 13 -8l11 -19q3 -6 5 -18q0 -10 -14 -45t-61 -98.5t-79.5 -73t-46.5 -9.5q-30 0 -52 19l-12 14l-9 23q-3 15 -12 17q-6 -4 -10 -6q-9 -6 -27 -20l-51 -36q-18 -9 -41 -9q-12 0 -43 8q-33 7 -46 50t-13 71q0 64 33 139.5t75 122.5t83 76t74 29l25 -3
q16 -3 37 -38.5t31 -42.5l22 -9l20 -9q10 -5 15 -16t7 -26q0 -18 -6.5 -36t-21.5 -45l-13 -27l-22 -48l-7 -33q0 -6 4 -12.5t17 -7.5q19 0 39 26l41 57l25 36q4 6 10 7zM208 577l-3 20q0 21 19 37l33 26q12 9 30 11l18 -3q15 -3 25 -9.5t16 -23.5l5 -24q0 -18 -12 -29
l-35 -31q-19 -16 -47 -16q-19 0 -31 11q-11 12 -18 31zM397 577l-5 21q0 18 20 35q8 7 18 16t18 14.5t25 7.5l19 -3q14 -1 26 -9q8 -5 17 -28l4 -20q0 -18 -12 -29l-38 -34q-16 -13 -43 -13q-19 0 -31 11q-11 12 -18 31zM217 298q-19 -30 -39.5 -77.5t-20.5 -71.5l3 -15
q3 -8 16 -11q14 -3 43.5 23t69.5 100q34 67 34 105q-3 20 -12 24q-9 5 -25 -4.5t-33.5 -28t-35.5 -44.5z" />
    <glyph glyph-name="aring" unicode="&#xe5;" horiz-adv-x="518" 
d="M519 265q8 3 13 -8l11 -19q3 -6 5 -18q0 -10 -14 -45t-61 -98.5t-79.5 -73t-46.5 -9.5q-30 0 -52 19l-12 14l-9 23q-3 15 -12 17q-6 -4 -10 -6q-9 -6 -27 -20l-51 -36q-18 -9 -41 -9q-12 0 -43 8q-33 7 -46 50t-13 71q0 64 33 139.5t75 122.5t83 76t74 29l25 -3
q16 -3 37 -38.5t31 -42.5l22 -9l20 -9q10 -5 15 -16t7 -26q0 -18 -6.5 -36t-21.5 -45l-13 -27l-22 -48l-7 -33q0 -6 4 -12.5t17 -7.5q19 0 39 26l41 57l25 36q4 6 10 7zM385 740l20 3q20 0 29 -7.5t12 -24.5l5 -21l7 -23q6 -17 6 -27l-4 -22q-3 -15 -18.5 -39.5t-38.5 -34.5
t-39 -10q-19 0 -36.5 9.5t-27.5 28.5q-4 8 -7 18t-3 20q0 15 3 29t11 30q15 30 38 47t43 24zM217 298q-19 -30 -39.5 -77.5t-20.5 -71.5l3 -15q3 -8 16 -11q14 -3 43.5 23t69.5 100q34 67 34 105q-3 20 -12 24q-9 5 -25 -4.5t-33.5 -28t-35.5 -44.5zM393 612q24 25 21 47
q-3 13 -15 16q-14 2 -24 -11l-15 -22l-6 -16l-2 -10q0 -12 11 -18q7 -3 14 0t16 14z" />
    <glyph glyph-name="ae" unicode="&#xe6;" horiz-adv-x="645" 
d="M415 182l-6 -14l-3 -17q0 -23 12 -35q13 -10 32 -10q48 0 89 40q19 20 39.5 42.5t47.5 54.5l10 14q5 5 12 7q11 0 23 -26q2 -5 3 -15.5t1 -18.5q-6 -48 -66.5 -108.5t-105.5 -81.5q-42 -18 -89 -18q-22 0 -41 3.5t-32.5 13.5t-25.5 23l-20 25q-6 12 -15 6
q-42 -38 -74 -56q-16 -8 -30 -12t-32 -4h-20l-25 6q-14 3 -33 22.5t-28 44.5q-3 13 -5 25.5t-2 24.5q0 78 42 126t74 64.5t62 16.5l30 -4q23 -3 65 -43l21 34q11 20 11 33q0 7 -8 19q-6 13 -40 19q-14 2 -26 -2l-19 -7l-11 -7l-14 -11l-12 -9q-6 0 -26 14q-19 16 -19 46
q0 20 12 34t43.5 32t90.5 18q41 0 66 -13l26 -20l19 -17q5 -3 11 2l21 14l26 16q24 13 54 13q23 0 48.5 -9.5t44 -35.5t18.5 -63q0 -30 -15 -70t-50.5 -73.5t-68.5 -41.5l-46 -10l-28 -2zM546 332q9 15 9 26q0 7 -4.5 12t-18.5 5q-19 -3 -48.5 -43.5t-41.5 -70.5
q18 0 32 4.5t29 14.5q24 15 43 52zM245 175q15 21 9 35q-3 8 -8 12t-18 5q-11 0 -27 -11t-26.5 -26.5t-15.5 -35.5q-1 -3 -1 -6.5v-4.5q0 -7 2 -11.5t10 -7.5l11 -2q16 0 29.5 13t34.5 40z" />
    <glyph glyph-name="ccedilla" unicode="&#xe7;" horiz-adv-x="358" 
d="M194 -5l-18 -23q-6 -10 -2 -15q2 -3 12 -5l17 -1q13 0 18 -15l5 -19q0 -21 -15 -44.5t-43 -38.5t-56 -15q-18 0 -30 3.5t-24 15.5q-9 11 -9 23l2 14q2 9 12 15l13 5q11 3 17 0v-8q0 -8 4 -13q4 -3 21 -5q12 0 19 4l14 10q6 4 8 13q0 9 -5 13l-13 4h-10l-11 -1l-9 3l-12 7
q-6 4 -7 14q0 8 14 28l31 34l-12 4l-29 14q-23 12 -43.5 47t-20.5 72q0 71 45 168.5t106.5 142t108.5 44.5q17 0 36 -9t31.5 -30.5t15.5 -49.5q0 -33 -1.5 -46t-6.5 -37q-6 -38 -25 -53q-17 -11 -34 -13l-22 5q-17 6 -17 34q0 12 5 28.5t10 25.5l5 15q0 7 -7 8q-7 0 -10 -2
q-48 -39 -80 -103.5t-32 -107.5v-10q2 -13 8 -22t18 -12l17 -2q30 0 60 27l44 41q14 15 19 15q12 0 14 -12q-6 -61 -31 -99.5t-51.5 -56t-40.5 -22.5z" />
    <glyph glyph-name="egrave" unicode="&#xe8;" horiz-adv-x="407" 
d="M170 183q-6 0 -9 -9l-2 -23q0 -18 12 -33q11 -11 37 -11q31 0 65 25t69 73l41 56q4 6 12 8q9 0 16 -8l10 -14q5 -14 5 -31q0 -36 -56.5 -102.5t-104 -93t-95.5 -26.5q-38 0 -68.5 17t-51.5 48q-19 32 -19 63v18q0 67 37 156.5t97.5 140t115.5 50.5q13 0 33 -5.5t38.5 -22
t27.5 -45.5q6 -15 6 -33q0 -32 -12.5 -65t-41.5 -67q-27 -34 -67.5 -50t-94.5 -16zM401 573q1 -5 -3 -14l-13 -14l-15 -9l-14 -1q-22 3 -70 41q-24 20 -38.5 33t-19.5 20q-11 14 -11 26q0 10 5 15l32 26q26 18 34 21q14 6 27 -16l35 -61l28 -35q20 -23 23 -32zM271 373
l-20 -17l-26 -28q-7 -8 -13 -16q-1 -2 -13 -20l-6 -27l21 -4q26 0 49.5 26.5t34.5 75.5q5 15 -12 15q-7 0 -15 -5z" />
    <glyph glyph-name="eacute" unicode="&#xe9;" horiz-adv-x="407" 
d="M170 183q-6 0 -9 -9l-2 -23q0 -18 12 -33q11 -11 37 -11q31 0 65 25t69 73l41 56q4 6 12 8q9 0 16 -8l10 -14q5 -14 5 -31q0 -36 -56.5 -102.5t-104 -93t-95.5 -26.5q-38 0 -68.5 17t-51.5 48q-19 32 -19 63v18q0 67 37 156.5t97.5 140t115.5 50.5q13 0 33 -5.5t38.5 -22
t27.5 -45.5q6 -15 6 -33q0 -32 -12.5 -65t-41.5 -67q-27 -34 -67.5 -50t-94.5 -16zM288 535q-8 -3 -15 2l-13 14l-9 15l-1 15q3 22 42.5 70t53.5 57.5t25 9.5q7 0 13 -5q5 -2 26 -31q20 -24 23 -34q6 -15 -10 -24l-31 -16l-30 -18l-40 -31q-26 -21 -34 -24zM271 373l-20 -17
l-26 -28q-7 -8 -13 -16q-1 -2 -13 -20l-6 -27l21 -4q26 0 49.5 26.5t34.5 75.5q5 15 -12 15q-7 0 -15 -5z" />
    <glyph glyph-name="ecircumflex" unicode="&#xea;" horiz-adv-x="407" 
d="M170 183q-6 0 -9 -9l-2 -23q0 -18 12 -33q11 -11 37 -11q31 0 65 25t69 73l41 56q4 6 12 8q9 0 16 -8l10 -14q5 -14 5 -31q0 -36 -56.5 -102.5t-104 -93t-95.5 -26.5q-38 0 -68.5 17t-51.5 48q-19 32 -19 63v18q0 67 37 156.5t97.5 140t115.5 50.5q13 0 33 -5.5t38.5 -22
t27.5 -45.5q6 -15 6 -33q0 -32 -12.5 -65t-41.5 -67q-27 -34 -67.5 -50t-94.5 -16zM468 559q-9 -26 -36 -26l-18 3q-5 3 -31 30q-22 25 -30 28l-11 2q-7 0 -14 -2t-20 -9l-62 -40q-20 -11 -31 -8q-24 15 -24 36q0 27 37 57q17 15 39 29.5t47 27.5q47 26 71 22q14 -3 29 -32
l29 -53l20 -39q8 -14 5 -26zM271 373l-20 -17l-26 -28q-7 -8 -13 -16q-1 -2 -13 -20l-6 -27l21 -4q26 0 49.5 26.5t34.5 75.5q5 15 -12 15q-7 0 -15 -5z" />
    <glyph glyph-name="edieresis" unicode="&#xeb;" horiz-adv-x="407" 
d="M170 183q-6 0 -9 -9l-2 -23q0 -18 12 -33q11 -11 37 -11q31 0 65 25t69 73l41 56q4 6 12 8q9 0 16 -8l10 -14q5 -14 5 -31q0 -36 -56.5 -102.5t-104 -93t-95.5 -26.5q-38 0 -68.5 17t-51.5 48q-19 32 -19 63v18q0 67 37 156.5t97.5 140t115.5 50.5q13 0 33 -5.5t38.5 -22
t27.5 -45.5q6 -15 6 -33q0 -32 -12.5 -65t-41.5 -67q-27 -34 -67.5 -50t-94.5 -16zM190 577l-5 21q0 17 21 37l33 27q11 9 29 9l17 -3q15 -2 24 -7q10 -3 16.5 -22t6.5 -28q0 -19 -13 -29l-34 -31q-19 -16 -47 -16q-19 0 -30 11t-18 31zM378 577l-5 21q0 18 17 34l33 27
q15 12 31 12l19 -3q14 -1 24.5 -8t17 -22t6.5 -27q0 -19 -13 -29l-38 -35q-19 -15 -43 -12q-19 0 -31 11q-11 12 -18 31zM271 373l-20 -17l-26 -28q-7 -8 -13 -16q-1 -2 -13 -20l-6 -27l21 -4q26 0 49.5 26.5t34.5 75.5q5 15 -12 15q-7 0 -15 -5z" />
    <glyph glyph-name="igrave" unicode="&#xec;" horiz-adv-x="291" 
d="M157 179l-3 -22q0 -18 8 -22l13 -1q8 0 21 14l29 34l25 31l22 31q7 12 11 13q7 0 10 -1l10 -13l7 -16q2 -8 2 -12q0 -26 -25 -66q-30 -50 -54 -78t-58 -53q-35 -22 -64 -22q-38 0 -56 27q-6 11 -11.5 23.5t-8.5 24.5l-4 38q0 38 12 84.5t25 77.5l26 62l24 55l16 34l6 19
q0 9 3.5 15.5t12.5 11.5l19 6l18 3q11 0 21 -5q12 -3 24.5 -18.5t18.5 -31.5q5 -16 -11 -44l-40 -73q-23 -41 -49 -126zM297 573q0 -6 -4.5 -14t-10.5 -13l-14 -8q-6 -3 -20 -3q-19 0 -66 39.5t-58 55t-11 27.5q0 7 4 12l32 26l34 22q15 5 27 -16l35 -61l28 -35
q22 -25 24 -32z" />
    <glyph glyph-name="iacute" unicode="&#xed;" horiz-adv-x="291" 
d="M157 179l-3 -22q0 -18 8 -22l13 -1q8 0 21 14l29 34l25 31l22 31q7 12 11 13q7 0 10 -1l10 -13l7 -16q2 -8 2 -12q0 -26 -25 -66q-30 -50 -54 -78t-58 -53q-35 -22 -64 -22q-38 0 -56 27q-6 11 -11.5 23.5t-8.5 24.5l-4 38q0 38 12 84.5t25 77.5l26 62l24 55l16 34l6 19
q0 9 3.5 15.5t12.5 11.5l19 6l18 3q11 0 21 -5q12 -3 24.5 -18.5t18.5 -31.5q5 -16 -11 -44l-40 -73q-23 -41 -49 -126zM240 535q-5 -1 -12.5 3t-15.5 13.5t-10 26.5q0 25 38.5 70.5t57.5 61.5q10 6 24 8q10 0 15 -5q5 -3 25 -30l22 -35q3 -7 0 -14q-3 -5 -15 -13l-62 -34
l-34 -28q-24 -21 -33 -24z" />
    <glyph glyph-name="icircumflex" unicode="&#xee;" horiz-adv-x="291" 
d="M157 179l-3 -22q0 -18 8 -22l13 -1q8 0 21 14l29 34l25 31l22 31q7 12 11 13q7 0 10 -1l10 -13l7 -16q2 -8 2 -12q0 -26 -25 -66q-30 -50 -54 -78t-58 -53q-35 -22 -64 -22q-38 0 -56 27q-6 11 -11.5 23.5t-8.5 24.5l-4 38q0 38 12 84.5t25 77.5l26 62l24 55l16 34l6 19
q0 9 3.5 15.5t12.5 11.5l19 6l18 3q11 0 21 -5q12 -3 24.5 -18.5t18.5 -31.5q5 -16 -11 -44l-40 -73q-23 -41 -49 -126zM364 559q-9 -26 -37 -26l-18 3q-5 3 -31 30q-22 25 -30 28l-11 2q-7 0 -14 -2t-20 -9l-62 -40l-17 -9q-6 -3 -13 1q-25 14 -25 36q0 11 12 28t37.5 38.5
t74 48t71.5 21.5q14 -3 29 -32l28 -53l22 -39q7 -14 4 -26z" />
    <glyph glyph-name="idieresis" unicode="&#xef;" horiz-adv-x="291" 
d="M157 179l-3 -22q0 -18 8 -22l13 -1q8 0 21 14l29 34l25 31l22 31q7 12 11 13q7 0 10 -1l10 -13l7 -16q2 -8 2 -12q0 -26 -25 -66q-30 -50 -54 -78t-58 -53q-35 -22 -64 -22q-38 0 -56 27q-6 11 -11.5 23.5t-8.5 24.5l-4 38q0 38 12 84.5t25 77.5l26 62l24 55l16 34l6 19
q0 9 3.5 15.5t12.5 11.5l19 6l18 3q11 0 21 -5q12 -3 24.5 -18.5t18.5 -31.5q5 -16 -11 -44l-40 -73q-23 -41 -49 -126zM94 577l-3 20q0 20 21 38l32 27q11 9 29 9l17 -3q15 -2 24 -7q9 -3 15.5 -21t6.5 -29q0 -18 -12 -29l-41 -37q-13 -10 -40 -10q-19 0 -29.5 10.5
t-19.5 31.5zM283 577l-3 20q0 18 21 39q10 9 19 17t13 10q9 6 26 8l19 -3q14 -1 24.5 -8t16.5 -22t6 -26q0 -21 -12 -30l-38 -34q-16 -13 -43 -13q-20 0 -31 11t-18 31z" />
    <glyph glyph-name="ntilde" unicode="&#xf1;" horiz-adv-x="523" 
d="M300 268q3 11 -2.5 17t-16.5 6l-10 -3l-12 -6l-16 -18l-35 -53q-30 -49 -49 -95q-17 -46 -17 -77q0 -19 -6.5 -26t-24.5 -16l-20 -3q-13 0 -22.5 5t-23.5 19q-4 4 -10.5 13t-9.5 14q-3 9 -5 26q0 14 9 47l13 58q3 12 4.5 16.5t9.5 23.5l89 224l5 26q3 9 21 15t31 6
q22 0 37 -12l35 -23q6 -5 6 -14l-3 -13l-12 -19q-3 -8 1 -13q4 -3 11 1q39 42 66 66q13 11 27 17t28 6q8 0 20.5 -5t25.5 -18t22.5 -32.5t9.5 -34.5q0 -20 -12 -50l-23 -52l-34 -74l-19 -45q-5 -14 -5 -19v-8q0 -9 7 -13q9 -3 17 0l16 13l18 21l16 22l41 56q10 11 19 10
q26 -11 26 -38q0 -22 -22 -70t-73 -104t-103 -56q-4 -1 -11 -1q-18 0 -35.5 8t-37 37.5t-19.5 65.5q0 37 14 71l24 58l13 29zM334 660q8 -2 19 -4.5t36 -9.5q54 -13 72 -13q21 0 35 5l31 16q5 3 8.5 -1t1.5 -9l-7 -14l-21 -31q-16 -25 -40 -41.5t-60 -22.5q-17 -3 -63 13
q-17 6 -32.5 11t-20.5 6q-19 0 -26 -2q-8 0 -22 -7l-32 -16q-5 -3 -8.5 0.5t-1.5 9.5l8 16l20 27q14 18 44.5 42.5t58.5 24.5z" />
    <glyph glyph-name="ograve" unicode="&#xf2;" horiz-adv-x="377" 
d="M273 484l24 2q17 0 33 -5t31 -19q19 -25 19 -78q0 -14 10 -41q5 -11 8 -24t3 -25q0 -64 -42.5 -147t-94.5 -116.5t-100 -33.5q-15 0 -30.5 3t-32.5 11q-31 15 -50 43q-15 26 -20 52l-2 38q0 66 39.5 150t86.5 121.5t69.5 50t48.5 18.5zM419 573q1 -5 -3 -14l-15 -14
q-6 -6 -14 -9l-15 -1q-18 0 -66 40t-63 56q-9 14 -9 26q0 7 4.5 13t31.5 25l34 22q15 4 28 -16l35 -61l28 -35q22 -25 24 -32zM206 288q-19 -26 -39.5 -77t-16.5 -70q6 -18 21 -21q7 -1 19 3.5t32 22t47 75.5t27 90q0 21 -9.5 27.5t-16.5 6.5q-6 0 -18 -6.5t-23 -20.5z" />
    <glyph glyph-name="oacute" unicode="&#xf3;" horiz-adv-x="377" 
d="M273 484l24 2q17 0 33 -5t31 -19q19 -25 19 -78q0 -14 10 -41q5 -11 8 -24t3 -25q0 -64 -42.5 -147t-94.5 -116.5t-100 -33.5q-15 0 -30.5 3t-32.5 11q-31 15 -50 43q-15 26 -20 52l-2 38q0 66 39.5 150t86.5 121.5t69.5 50t48.5 18.5zM334 535q-7 -2 -13 1.5t-16 15
t-10 26.5q0 25 37 69t53.5 57.5t30.5 13.5q8 0 13.5 -3.5t25.5 -32.5q19 -25 23 -34q6 -15 -14 -26l-38 -19l-27 -18l-34 -27q-22 -20 -31 -23zM206 288q-19 -26 -39.5 -77t-16.5 -70q6 -18 21 -21q7 -1 19 3.5t32 22t47 75.5t27 90q0 21 -9.5 27.5t-16.5 6.5q-6 0 -18 -6.5
t-23 -20.5z" />
    <glyph glyph-name="ocircumflex" unicode="&#xf4;" horiz-adv-x="377" 
d="M273 484l24 2q17 0 33 -5t31 -19q19 -25 19 -78q0 -14 10 -41q5 -11 8 -24t3 -25q0 -64 -42.5 -147t-94.5 -116.5t-100 -33.5q-15 0 -30.5 3t-32.5 11q-31 15 -50 43q-15 26 -20 52l-2 38q0 66 39.5 150t86.5 121.5t69.5 50t48.5 18.5zM485 559q-9 -26 -36 -26
q-10 0 -17.5 3.5t-32.5 29.5q-22 25 -30 28l-11 2q-20 0 -95 -51q-20 -11 -31 -8q-25 14 -25 36q0 27 37.5 57t85.5 56.5t72 22.5q16 -4 32 -35l25 -50l22 -39q7 -14 4 -26zM206 288q-19 -26 -39.5 -77t-16.5 -70q6 -18 21 -21q7 -1 19 3.5t32 22t47 75.5t27 90
q0 21 -9.5 27.5t-16.5 6.5q-6 0 -18 -6.5t-23 -20.5z" />
    <glyph glyph-name="otilde" unicode="&#xf5;" horiz-adv-x="377" 
d="M273 484l24 2q17 0 33 -5t31 -19q19 -25 19 -78q0 -14 10 -41q5 -11 8 -24t3 -25q0 -64 -42.5 -147t-94.5 -116.5t-100 -33.5q-15 0 -30.5 3t-32.5 11q-31 15 -50 43q-15 26 -20 52l-2 38q0 66 39.5 150t86.5 121.5t69.5 50t48.5 18.5zM319 660q8 -2 19 -4.5t35 -9.5
q54 -13 72 -13q23 0 36 5l31 16q5 3 8 0t3 -10l-17 -27q-29 -43 -52.5 -59t-59.5 -23q-19 -3 -59.5 13.5t-56.5 16.5q-19 0 -26 -2q-8 0 -22 -7l-32 -16q-3 -3 -6.5 0t-3.5 10q8 17 25 39t47.5 46.5t58.5 24.5zM206 288q-19 -26 -39.5 -77t-16.5 -70q6 -18 21 -21
q7 -1 19 3.5t32 22t47 75.5t27 90q0 21 -9.5 27.5t-16.5 6.5q-6 0 -18 -6.5t-23 -20.5z" />
    <glyph glyph-name="odieresis" unicode="&#xf6;" horiz-adv-x="377" 
d="M273 484l24 2q17 0 33 -5t31 -19q19 -25 19 -78q0 -14 10 -41q5 -11 8 -24t3 -25q0 -64 -42.5 -147t-94.5 -116.5t-100 -33.5q-15 0 -30.5 3t-32.5 11q-31 15 -50 43q-15 26 -20 52l-2 38q0 66 39.5 150t86.5 121.5t69.5 50t48.5 18.5zM188 577l-5 21q0 18 21 36l33 27
q13 10 29 10l17 -3q15 -2 24 -7q10 -3 16.5 -22t6.5 -28q0 -18 -12 -29l-34 -31q-19 -16 -47 -16q-20 0 -31 11t-18 31zM376 577l-3 20q0 18 16 34l32 28q15 12 31 12l19 -3q14 -1 24.5 -8t17 -22t6.5 -27q0 -19 -13 -29l-38 -34q-16 -13 -43 -13q-19 0 -31 11
q-11 12 -18 31zM206 288q-19 -26 -39.5 -77t-16.5 -70q6 -18 21 -21q7 -1 19 3.5t32 22t47 75.5t27 90q0 21 -9.5 27.5t-16.5 6.5q-6 0 -18 -6.5t-23 -20.5z" />
    <glyph glyph-name="divide" unicode="&#xf7;" horiz-adv-x="309" 
d="M438 491q-89 -94 -152 -181q-33 -45 -53 -74q-24 -35 -40 -59l-60 -97l-44 -75q-16 -27 -28 -28q-13 0 -16 13q0 11 7 28l42 73q15 26 33 54q14 23 35 53q26 40 34 52q15 22 40 57q38 53 96 124q53 63 84 86q5 3 9 3q3 0 10 -4.5t7 -14.5q0 -6 -4 -10z" />
    <glyph glyph-name="oslash" unicode="&#xf8;" horiz-adv-x="377" 
d="M388 354q13 -36 13 -60q0 -64 -42.5 -147t-94.5 -116.5t-100 -33.5q-15 0 -30.5 3t-32.5 11q-30 14 -50 45l-33 -31q-22 -21 -32 -23q-9 0 -16 11q-4 15 10 28l53 54l-3 28l-1 21q0 65 39 147.5t98.5 132.5t106.5 60l24 2q17 0 33 -5t31 -19q18 -23 18 -66q57 48 71 51
q10 3 16.5 -2.5t6.5 -13.5q0 -9 -7 -17l-18 -16zM290 274l-58 -51l-41 -35l-42 -39l1 -8q0 -8 7.5 -14.5t16.5 -6.5q19 0 39.5 19.5t44.5 59.5q11 19 18.5 36.5t13.5 38.5zM173 227l41 36l78 66q0 9 -7 12t-17 3q-8 0 -18 -7t-21 -19l-21 -28l-18 -27z" />
    <glyph glyph-name="ugrave" unicode="&#xf9;" 
d="M376 415l10 22l4 17q0 8 3.5 14.5t12.5 11.5l20 6l17 3q10 0 21.5 -3.5t24 -19.5t18.5 -32q5 -15 -15 -51l-29 -55l-47 -99l-14 -33q-6 -18 -6 -34q0 -17 11 -21q11 -3 21 3l15 15l24 34l51 67q2 3 9 5q3 -2 5 -3q7 -5 13 -11q13 -15 13 -43q0 -30 -49 -99t-80.5 -87
t-45 -21.5t-18.5 -4.5t-17 -1q-17 0 -38 9q-17 9 -32 35l-8 20q-5 15 -13 15q-2 -1 -3 -2q-9 -7 -21 -20q-19 -20 -46 -37.5t-64 -17.5q-46 0 -70 42q-11 20 -17 41.5t-6 44.5q0 48 15.5 98t42.5 98l48 96l10 20l5 17q0 8 3.5 15.5t14.5 11.5l19 6l15 2q10 0 21.5 -3.5
t23.5 -19t20 -32.5q2 -6 2 -10q0 -7 -7 -23l-34 -61q-24 -43 -45 -96t-21 -84q0 -7 5 -12.5t13 -5.5q11 0 31.5 12t48.5 52.5t48 75.5l36 69zM430 573q2 -7 -5 -16l-16 -15q-9 -7 -29 -7q-19 0 -63 37t-57.5 53.5t-13.5 29.5q0 9 4 14l32 26l34 22q15 6 27 -16l35 -61
l28 -35q22 -25 24 -32z" />
    <glyph glyph-name="uacute" unicode="&#xfa;" 
d="M376 415l10 22l4 17q0 8 3.5 14.5t12.5 11.5l20 6l17 3q10 0 21.5 -3.5t24 -19.5t18.5 -32q5 -15 -15 -51l-29 -55l-47 -99l-14 -33q-6 -18 -6 -34q0 -17 11 -21q11 -3 21 3l15 15l24 34l51 67q2 3 9 5q3 -2 5 -3q7 -5 13 -11q13 -15 13 -43q0 -30 -49 -99t-80.5 -87
t-45 -21.5t-18.5 -4.5t-17 -1q-17 0 -38 9q-17 9 -32 35l-8 20q-5 15 -13 15q-2 -1 -3 -2q-9 -7 -21 -20q-19 -20 -46 -37.5t-64 -17.5q-46 0 -70 42q-11 20 -17 41.5t-6 44.5q0 48 15.5 98t42.5 98l48 96l10 20l5 17q0 8 3.5 15.5t14.5 11.5l19 6l15 2q10 0 21.5 -3.5
t23.5 -19t20 -32.5q2 -6 2 -10q0 -7 -7 -23l-34 -61q-24 -43 -45 -96t-21 -84q0 -7 5 -12.5t13 -5.5q11 0 31.5 12t48.5 52.5t48 75.5l36 69zM317 535q-7 -2 -13 1.5t-13 12t-10 17.5l-3 15q3 21 41 68t52.5 58t27.5 11q8 0 13.5 -3.5t25.5 -32.5q19 -25 23 -34
q2 -10 -1 -15q-1 -4 -15 -12l-62 -34l-32 -27q-23 -22 -34 -25z" />
    <glyph glyph-name="ucircumflex" unicode="&#xfb;" 
d="M376 415l10 22l4 17q0 8 3.5 14.5t12.5 11.5l20 6l17 3q10 0 21.5 -3.5t24 -19.5t18.5 -32q5 -15 -15 -51l-29 -55l-47 -99l-14 -33q-6 -18 -6 -34q0 -17 11 -21q11 -3 21 3l15 15l24 34l51 67q2 3 9 5q3 -2 5 -3q7 -5 13 -11q13 -15 13 -43q0 -30 -49 -99t-80.5 -87
t-45 -21.5t-18.5 -4.5t-17 -1q-17 0 -38 9q-17 9 -32 35l-8 20q-5 15 -13 15q-2 -1 -3 -2q-9 -7 -21 -20q-19 -20 -46 -37.5t-64 -17.5q-46 0 -70 42q-11 20 -17 41.5t-6 44.5q0 48 15.5 98t42.5 98l48 96l10 20l5 17q0 8 3.5 15.5t14.5 11.5l19 6l15 2q10 0 21.5 -3.5
t23.5 -19t20 -32.5q2 -6 2 -10q0 -7 -7 -23l-34 -61q-24 -43 -45 -96t-21 -84q0 -7 5 -12.5t13 -5.5q11 0 31.5 12t48.5 52.5t48 75.5l36 69zM497 559q-9 -26 -37 -26q-10 0 -17.5 3.5t-30.5 29t-32 28.5l-11 2q-20 0 -94 -51q-19 -11 -32 -8q-10 7 -18 16q-6 10 -7 20
q0 11 12 29q12 15 37.5 36.5t74.5 48.5t72 22q15 -5 33 -40l23 -45l22 -39q8 -14 5 -26z" />
    <glyph glyph-name="udieresis" unicode="&#xfc;" 
d="M376 415l10 22l4 17q0 8 3.5 14.5t12.5 11.5l20 6l17 3q10 0 21.5 -3.5t24 -19.5t18.5 -32q5 -15 -15 -51l-29 -55l-47 -99l-14 -33q-6 -18 -6 -34q0 -17 11 -21q11 -3 21 3l15 15l24 34l51 67q2 3 9 5q3 -2 5 -3q7 -5 13 -11q13 -15 13 -43q0 -30 -49 -99t-80.5 -87
t-45 -21.5t-18.5 -4.5t-17 -1q-17 0 -38 9q-17 9 -32 35l-8 20q-5 15 -13 15q-2 -1 -3 -2q-9 -7 -21 -20q-19 -20 -46 -37.5t-64 -17.5q-46 0 -70 42q-11 20 -17 41.5t-6 44.5q0 48 15.5 98t42.5 98l48 96l10 20l5 17q0 8 3.5 15.5t14.5 11.5l19 6l15 2q10 0 21.5 -3.5
t23.5 -19t20 -32.5q2 -6 2 -10q0 -7 -7 -23l-34 -61q-24 -43 -45 -96t-21 -84q0 -7 5 -12.5t13 -5.5q11 0 31.5 12t48.5 52.5t48 75.5l36 69zM227 577l-5 21q0 18 20 35l34 27q12 9 30 11l18 -3q15 -3 25.5 -9.5t14.5 -21.5l5 -26q0 -19 -13 -32l-33 -28q-6 -5 -17 -10.5
t-29 -5.5q-20 0 -30.5 10.5t-19.5 31.5zM416 577l-5 21q0 18 20 35q8 7 18 16t18 14.5t25 7.5l19 -3q14 -1 24 -8t16.5 -22t6.5 -27q0 -19 -13 -29l-37 -35q-19 -15 -44 -12q-19 0 -30 11t-18 31z" />
    <glyph glyph-name="ydieresis" unicode="&#xff;" horiz-adv-x="400" 
d="M216 220l39 65l43 69l40 62q5 8 8 27l3 23q0 5 13 14q6 4 14.5 6t23.5 2l20 -4q15 -3 25 -15.5t19 -32.5l8 -23q0 -6 -17 -32l-37 -59l-51 -86l-56 -96l-50 -93l-45 -85l-29 -64q-12 -27 -12 -52l2 -32v-12q0 -8 -4 -13.5t-18 -14.5q-6 -5 -12 -7t-9 -4l-19 -3l-18 4
q-10 3 -29.5 20t-25.5 31l-5 22q0 26 15 65l36 77l20 44q-24 18 -35.5 48.5t-11.5 67.5v22.5t2 20.5l9 50l28 137l7 28l5 31l-1 24l3 15q3 6 15 12l23 11l23 4q16 0 30 -11q15 -9 27 -32.5t10 -40.5l-10 -28l-11 -31l-11 -44l-16 -80q-3 -16 7 -17q8 0 15 10zM186 587l-5 21
q0 17 18 34l36 29q14 8 30 10l20 -4q16 -3 25 -12q9 -7 13 -22l5 -22q0 -18 -16 -33l-34 -31q-20 -13 -43 -13q-18 0 -29 11.5t-20 31.5zM374 587l-3 20q0 18 15 33l31 27q16 14 34 14l19 -3q14 -3 25 -9.5t18 -27.5l4 -20q0 -20 -13 -30l-38 -34q-16 -13 -43 -13
q-17 0 -30 12t-19 31z" />
    <glyph glyph-name="dotlessi" unicode="&#x131;" horiz-adv-x="291" 
d="M157 179l-3 -22q0 -18 8 -22l13 -1q8 0 21 14l29 34l25 31l22 31q7 12 11 13q7 0 10 -1l10 -13l7 -16q2 -8 2 -12q0 -26 -25 -66q-30 -50 -54 -78t-58 -53q-35 -22 -64 -22q-38 0 -56 27q-6 11 -11.5 23.5t-8.5 24.5l-4 38q0 38 12 84.5t25 77.5l26 62l24 55l16 34l6 19
q0 9 3.5 15.5t12.5 11.5l19 6l18 3q11 0 21 -5q12 -3 24.5 -18.5t18.5 -31.5q5 -16 -11 -44l-40 -73q-23 -41 -49 -126z" />
    <glyph glyph-name="ring" unicode="&#x2da;" horiz-adv-x="95" 
d="M174 699l18 2q21 0 30 -7.5t13 -26.5l7 -28l7 -20l3 -20q0 -8 -5 -23q-3 -17 -17.5 -39t-37 -33.5t-40.5 -11.5q-19 0 -46.5 17t-27.5 59q0 15 3 29t11 30q15 30 39 48t43 24zM181 570q24 27 21 47q-3 13 -15 16q-12 2 -26.5 -15.5t-18.5 -29.5l-3 -14q0 -12 12 -18
q8 -3 15.5 0.5t14.5 13.5z" />
    <glyph glyph-name="circumflex" unicode="&#x302;" horiz-adv-x="268" 
d="M428 550q-9 -25 -37 -25q-10 0 -17.5 3.5t-32.5 29.5q-22 25 -30 28l-10 2q-20 0 -63 -29.5t-51 -31.5q-8 0 -12 2q-25 14 -25 36q0 26 45 62q29 25 77 51.5t73 21.5q14 -3 29 -31l27 -53l22 -40q8 -14 5 -26z" />
    <glyph glyph-name="tilde" unicode="&#x303;" horiz-adv-x="320" 
d="M324 701l56 -13q14 -3 38.5 -8t32.5 -5q20 0 31 4l18 7l18 10q5 3 8.5 -0.5t1.5 -9.5l-8 -13l-21 -32q-15 -22 -40 -40.5t-59 -24.5q-19 -3 -60 13q-39 18 -56 18q-19 0 -26 -2q-8 0 -22 -7l-32 -16q-5 -3 -8.5 0.5t-1.5 9.5l6 13l18 26q15 21 48 45.5t58 24.5z" />
    <glyph glyph-name="fraction" unicode="&#x2215;" horiz-adv-x="495" 
d="M202 284q-32 6 -42 20t-10 50v15.5t4 26.5l12 57l16 62l13 47l7 27l1 23l-1 33v12.5t4 17.5q0 9 20 16l23 6l12 1h8q12 0 25 -5q13 -3 24 -14.5t23 -41.5l8 -21q0 -9 -6 -24l-13 -34l-17 -50l-16 -54l-10 -39q-3 -17 8 -17q8 0 24 20l54 69l76 96q37 46 75.5 82t76.5 36
l15 -1q6 0 11 -5l25 -18l27 -20q6 -3 9 -12q2 -12 -22 -36l-91 -88q-31 -30 -61 -63.5t-53 -64.5l-88 -121l-69 -98l-38 -61q-9 -18 -15 -49q0 -27 -3 -39q0 -12 -18 -21t-39 -9q-13 0 -21 4l-14 9l-13 11l-18 14q-10 8 -13 15l-1 15q0 31 26 76l49 82l21 36q6 11 6 17
t-11 10zM354 792l-5 22q0 18 18 33l35 29q14 8 30 10l19 -4q14 -3 24 -9t16 -22l5 -24q0 -19 -16 -34l-34 -29q-19 -14 -44 -14q-19 0 -30 11t-18 31zM542 792l-5 21q0 17 18 34l33 27q15 12 31 12l22 -4q18 -3 25 -11l13 -19q6 -12 6 -25q0 -20 -16 -35l-35 -30
q-19 -15 -43 -12q-19 0 -31 11q-11 12 -18 31z" />
    <glyph glyph-name="periodcentered" unicode="&#x2219;" horiz-adv-x="142" 
d="M156 0h71l-19 -27l-9 -16q-3 -5 -1 -10q5 -6 16 -6q14 0 27.5 -3.5t17.5 -18.5l5 -25q0 -22 -16 -50q-22 -33 -57.5 -51.5t-69.5 -18.5q-23 0 -39.5 5t-28.5 20t-12 28l3 15q6 12 11 16l13 9q10 5 19 5q7 0 10 -2.5t1 -11.5t1 -12l10 -6q6 -3 17 -3q19 0 28 6
q11 5 17.5 12t8.5 17q0 9 -6.5 14t-20.5 7l-10 -2l-10 -3l-11 5l-13 7q-11 8 -14 20q0 10 19 36q6 7 20 21.5t22 22.5z" />
    </font>
</defs>
</svg>
